mtllib èµ„æº 10.mtl
# Vertex Positions: 
g groupNumber_0
v 1.63389 1.63389 -0.8825
v 2.17851 2.17851 -0.8825
v -2.17851 2.17851 -0.8825
v -2.17851 -2.17851 -0.8825
v -1.63389 -2.17851 -0.8825
v -1.63389 1.63389 -0.8825
v 1.63389 1.63389 0.8825
v 2.17851 2.17851 0.8825
v -2.17851 2.17851 0.8825
v -2.17851 -2.17851 0.8825
v -1.63389 -2.17851 0.8825
v -1.63389 1.63389 0.8825
v 1.9062 1.9062 0
v 0 2.17851 0
v -2.17851 0 0
v -1.9062 -2.17851 0
v -1.63389 -0.272315 0
v 0 1.63389 0


# Vertex Texture Coordinates :
vt 0.397471 0.397471
vt 0.454253 0.454253
vt 0 0.454253
vt 0 0
vt 0.0567817 0
vt 0.0567817 0.397471
vt 0.0567817 0.85727
vt 0 0.914051
vt 0.454253 0.914051
vt 0.454253 0.459798
vt 0.397471 0.459798
vt 0.397471 0.85727
vt 0.459849 4.10877e-05
vt 0.540151 4.10877e-05
vt 0.545747 4.10877e-05
vt 1 4.10877e-05
vt 0.545747 0.189683
vt 1 0.189683
vt 0.459854 0.189683
vt 0.516635 0.189683
vt 0.545747 0.379325
vt 0.943218 0.379325
vt 0.545747 0.568966
vt 0.886437 0.568966
vt 0.459849 0.184056
vt 0.540151 0.184056
vt 0.545747 0.184056
vt 1 0.184056
vt 0.545747 0.373697
vt 1 0.373697
vt 0.459854 0.373697
vt 0.516635 0.373697
vt 0.545747 0.563339
vt 0.943218 0.563339
vt 0.545747 0.752981
vt 0.886437 0.752981
vt 0.5 0.0920484
vt 0.772873 0.0920484
vt 0.772873 0.28169
vt 0.488244 0.28169
vt 0.744483 0.471332
vt 0.716092 0.660974


# Vertex Surface Normals: 
vn 0 0 1
vn 0 0 -1
vn 0.707107 -0.707107 0
vn 0.707107 -0.707107 0
vn 0.707107 -0.707107 0
vn 0.707107 -0.707107 0
vn 0.707107 -0.707107 0
vn 0 1 0
vn 0 1 0
vn 0 1 0
vn 0 1 0
vn 0 1 0
vn -1 0 0
vn -1 0 0
vn -1 0 0
vn -1 0 0
vn -1 0 0
vn 0 -1 0
vn 0 -1 0
vn 0 -1 0
vn 0 -1 0
vn 0 -1 0
vn 1 0 0
vn 1 0 0
vn 1 0 0
vn 1 0 0
vn 1 0 0
vn 0 -1 0
vn 0 -1 0
vn 0 -1 0
vn 0 -1 0
vn 0 -1 0


# Faces: 
usemtl material0
f 9/3/1 10/4/1 12/6/1
f 12/6/1 10/4/1 11/5/1
f 12/6/1 7/1/1 8/2/1
f 12/6/1 8/2/1 9/3/1
f 4/10/2 3/9/2 6/12/2
f 4/10/2 6/12/2 5/11/2
f 1/7/2 6/12/2 2/8/2
f 2/8/2 6/12/2 3/9/2
f 13/37/3 1/13/4 2/14/5
f 13/37/3 2/14/5 8/26/6
f 13/37/3 8/26/6 7/25/7
f 13/37/3 7/25/7 1/13/4
f 14/38/8 2/15/9 3/16/10
f 14/38/8 3/16/10 9/28/11
f 14/38/8 9/28/11 8/27/12
f 14/38/8 8/27/12 2/15/9
f 15/39/13 3/17/14 4/18/15
f 15/39/13 4/18/15 10/30/16
f 15/39/13 10/30/16 9/29/17
f 15/39/13 9/29/17 3/17/14
f 16/40/18 4/19/19 5/20/20
f 16/40/18 5/20/20 11/32/21
f 16/40/18 11/32/21 10/31/22
f 16/40/18 10/31/22 4/19/19
f 17/41/23 5/21/24 6/22/25
f 17/41/23 6/22/25 12/34/26
f 17/41/23 12/34/26 11/33/27
f 17/41/23 11/33/27 5/21/24
f 18/42/28 6/23/29 1/24/30
f 18/42/28 1/24/30 7/36/31
f 18/42/28 7/36/31 12/35/32
f 18/42/28 12/35/32 6/23/29

# Vertex Positions: 
g groupNumber_1
v 1.58699 0.272315 -0.8825
v 0.272315 0.272315 -0.8825
v -0.272315 -0.272315 -0.8825
v 0.272315 -0.272315 -0.8825
v -1.63389 -2.17851 -0.8825
v -0.863538 -2.17851 -0.8825
v 1.04236 -0.272315 -0.8825
v 1.58699 0.272315 0.8825
v 0.272315 0.272315 0.8825
v -0.272315 -0.272315 0.8825
v 0.272315 -0.272315 0.8825
v -1.63389 -2.17851 0.8825
v -0.863538 -2.17851 0.8825
v 1.04236 -0.272315 0.8825
v 0.929651 0.272315 -1.11022e-16
v -7.92575e-11 1.39009e-10 -1.11022e-16
v -7.92575e-11 -0.272315 -1.11022e-16
v -0.680785 -1.22541 -1.11022e-16
v -1.24871 -2.17851 -1.11022e-16
v 0.0894102 -1.22541 -1.11022e-16
v 1.31467 1.39009e-10 -1.11022e-16


# Vertex Texture Coordinates :
vt 0.496715 0.377952
vt 0.293974 0.377952
vt 0.209985 0.293962
vt 0.293974 0.293962
vt 1.14749e-05 0
vt 0.11881 0
vt 0.412725 0.293962
vt 0.503297 0.377952
vt 0.706038 0.377952
vt 0.790027 0.293962
vt 0.706038 0.293962
vt 1 0
vt 0.881202 0
vt 0.587286 0.293962
vt 0 0.384513
vt 0.202741 0.384513
vt 2.96268e-05 0.663231
vt 0.118809 0.663231
vt 0.209304 0.384513
vt 0.293294 0.384513
vt 0.299842 0.384513
vt 0.715567 0.384513
vt 0.722131 0.384513
vt 0.840929 0.384513
vt 0.29984 0.663231
vt 0.715532 0.663231
vt 0.834311 0.663231
vt 0 0.6567
vt 0.202741 0.6567
vt 2.96268e-05 0.935419
vt 0.118809 0.935419
vt 0.209304 0.6567
vt 0.293294 0.6567
vt 0.299842 0.6567
vt 0.715567 0.6567
vt 0.722131 0.6567
vt 0.840929 0.6567
vt 0.29984 0.935419
vt 0.715532 0.935419
vt 0.834311 0.935419
vt 0.10137 0.520607
vt 0.0594191 0.799325
vt 0.251299 0.520607
vt 0.507704 0.520607
vt 0.78153 0.520607
vt 0.507686 0.799325
vt 0.774922 0.799325


# Vertex Surface Normals: 
vn 0 0 1
vn 0 0 -1
vn 0 1 0
vn 0 1 0
vn 0 1 0
vn 0 1 0
vn 0 1 0
vn -0.707107 0.707107 0
vn -0.707107 0.707107 -2.02328e-17
vn -0.707107 0.707107 -2.02328e-17
vn -0.707107 0.707107 2.02328e-17
vn -0.707107 0.707107 2.02328e-17
vn 0 -1 0
vn 0 -1 0
vn 0 -1 0
vn 0 -1 0
vn 0 -1 0
vn -0.707107 0.707107 0
vn -0.707107 0.707107 2.31245e-17
vn -0.707107 0.707107 2.31245e-17
vn -0.707107 0.707107 -2.31245e-17
vn -0.707107 0.707107 -2.31245e-17
vn 0 -1 0
vn 0 -1 0
vn 0 -1 0
vn 0 -1 0
vn 0 -1 0
vn 0.707163 -0.70705 0
vn 0.707163 -0.70705 0
vn 0.707135 -0.707079 -1.01164e-17
vn 0.707135 -0.707079 1.01164e-17
vn 0.707163 -0.70705 0
vn 0.707107 -0.707107 0
vn 0.707107 -0.707107 -2.02328e-17
vn 0.707107 -0.707107 2.02328e-17


# Faces: 
usemtl material1
f 31/48/33 29/46/33 30/47/33
f 29/46/33 32/49/33 27/44/33
f 32/49/33 29/46/33 31/48/33
f 26/43/33 27/44/33 32/49/33
f 29/46/33 27/44/33 28/45/33
f 22/53/34 24/55/34 23/54/34
f 25/56/34 22/53/34 20/51/34
f 22/53/34 25/56/34 24/55/34
f 20/51/34 19/50/34 25/56/34
f 20/51/34 22/53/34 21/52/34
f 33/83/35 19/57/36 20/58/37
f 33/83/35 20/58/37 27/71/38
f 33/83/35 27/71/38 26/70/39
f 33/83/35 26/70/39 19/57/36
f 34/84/40 20/59/41 21/60/42
f 34/84/40 21/60/42 28/73/43
f 34/84/40 28/73/43 27/72/44
f 34/84/40 27/72/44 20/59/41
f 35/85/45 21/61/46 22/62/47
f 35/85/45 22/62/47 29/75/48
f 35/85/45 29/75/48 28/74/49
f 35/85/45 28/74/49 21/61/46
f 36/86/50 22/63/51 23/64/52
f 36/86/50 23/64/52 30/77/53
f 36/86/50 30/77/53 29/76/54
f 36/86/50 29/76/54 22/63/51
f 37/87/55 23/65/56 24/66/57
f 37/87/55 24/66/57 31/79/58
f 37/87/55 31/79/58 30/78/59
f 37/87/55 30/78/59 23/65/56
f 38/88/60 24/67/61 25/68/62
f 38/88/60 25/68/62 32/81/63
f 38/88/60 32/81/63 31/80/64
f 38/88/60 31/80/64 24/67/61
f 39/89/65 25/68/62 19/69/66
f 39/89/65 19/69/66 26/82/67
f 39/89/65 26/82/67 32/81/63
f 39/89/65 32/81/63 25/68/62
