mtllib èµ„æº 11.mtl
# Vertex Positions: 
g groupNumber_0
v 2.17851 -1.63389 -0.8825
v 2.17851 2.17851 -0.8825
v 1.63389 2.17851 -0.8825
v 1.63389 0.261421 -0.8825
v -1.63389 0.261421 -0.8825
v -1.63389 2.17851 -0.8825
v -2.17851 2.17851 -0.8825
v -2.17851 -2.17851 -0.8825
v -1.63389 -2.17851 -0.8825
v -1.63389 -0.283206 -0.8825
v 1.63389 -0.283206 -0.8825
v 1.63389 -2.17851 -0.8825
v 2.17851 -1.63389 0.8825
v 2.17851 2.17851 0.8825
v 1.63389 2.17851 0.8825
v 1.63389 0.261421 0.8825
v -1.63389 0.261421 0.8825
v -1.63389 2.17851 0.8825
v -2.17851 2.17851 0.8825
v -2.17851 -2.17851 0.8825
v -1.63389 -2.17851 0.8825
v -1.63389 -0.283206 0.8825
v 1.63389 -0.283206 0.8825
v 1.63389 -2.17851 0.8825
v 2.17851 0.272315 0
v 1.9062 2.17851 0
v 1.63389 1.21997 0
v 0 0.261421 0
v -1.63389 1.21997 0
v -1.9062 2.17851 0
v -2.17851 0 0
v -1.9062 -2.17851 0
v -1.63389 -1.23086 0
v 0 -0.283206 0
v 1.63389 -1.23086 0
v 1.9062 -1.9062 0


# Vertex Texture Coordinates :
vt 0.452603 0.0565754
vt 0.452603 0.452603
vt 0.396027 0.452603
vt 0.396027 0.253457
vt 0.0565754 0.253457
vt 0.0565754 0.452603
vt 0 0.452603
vt 0 0
vt 0.0565754 0
vt 0.0565754 0.196882
vt 0.396027 0.196882
vt 0.396027 0
vt 0 0.514703
vt 0 0.91073
vt 0.0565754 0.91073
vt 0.0565754 0.711585
vt 0.396027 0.711585
vt 0.396027 0.91073
vt 0.452603 0.91073
vt 0.452603 0.458128
vt 0.396027 0.458128
vt 0.396027 0.65501
vt 0.0565754 0.65501
vt 0.0565754 0.458128
vt 0.458128 4.09382e-05
vt 0.854155 4.09382e-05
vt 0.859735 4.09382e-05
vt 0.91631 4.09382e-05
vt 0.45817 0.188994
vt 0.657315 0.188994
vt 0.458128 0.377946
vt 0.79758 0.377946
vt 0.662924 0.188994
vt 0.862069 0.188994
vt 0.921946 4.09382e-05
vt 0.978521 4.09382e-05
vt 0.458128 0.566899
vt 0.91073 0.566899
vt 0.91631 0.566899
vt 0.972886 0.566899
vt 0.803118 0.377946
vt 1 0.377946
vt 0.458128 0.755852
vt 0.79758 0.755852
vt 0.803118 0.755852
vt 1 0.755852
vt 0.867687 0.188994
vt 0.947696 0.188994
vt 0.458128 0.183387
vt 0.854155 0.183387
vt 0.859735 0.183387
vt 0.91631 0.183387
vt 0.45817 0.37234
vt 0.657315 0.37234
vt 0.458128 0.561292
vt 0.79758 0.561292
vt 0.662924 0.37234
vt 0.862069 0.37234
vt 0.921946 0.183387
vt 0.978521 0.183387
vt 0.458128 0.750245
vt 0.91073 0.750245
vt 0.91631 0.750245
vt 0.972886 0.750245
vt 0.803118 0.561292
vt 1 0.561292
vt 0.458128 0.939198
vt 0.79758 0.939198
vt 0.803118 0.939198
vt 1 0.939198
vt 0.867687 0.37234
vt 0.947696 0.37234
vt 0.656141 0.0917139
vt 0.888023 0.0917139
vt 0.557742 0.280667
vt 0.627854 0.469619
vt 0.762496 0.280667
vt 0.950234 0.0917139
vt 0.684429 0.658572
vt 0.944598 0.658572
vt 0.901559 0.469619
vt 0.627854 0.847525
vt 0.901559 0.847525
vt 0.907692 0.280667


# Vertex Surface Normals: 
vn 0 0 1
vn 0 0 -1
vn 1 0 0
vn 1 0 0
vn 1 0 0
vn 1 0 0
vn 1 0 0
vn 0 1 0
vn 0 1 0
vn 0 1 0
vn 0 1 0
vn 0 1 0
vn -1 0 0
vn -1 0 0
vn -1 0 0
vn -1 0 0
vn -1 0 0
vn 0 1 0
vn 0 1 0
vn 0 1 0
vn 0 1 0
vn 0 1 0
vn 1 0 0
vn 1 0 0
vn 1 0 0
vn 1 0 0
vn 1 0 0
vn 0 1 0
vn 0 1 0
vn 0 1 0
vn 0 1 0
vn 0 1 0
vn -1 0 0
vn -1 0 0
vn -1 0 0
vn -1 0 0
vn -1 0 0
vn 0 -1 0
vn 0 -1 0
vn 0 -1 0
vn 0 -1 0
vn 0 -1 0
vn 1 0 0
vn 1 0 0
vn 1 0 0
vn 1 0 0
vn 1 0 0
vn 0 -1 0
vn 0 -1 0
vn 0 -1 0
vn 0 -1 0
vn 0 -1 0
vn -1 0 0
vn -1 0 0
vn -1 0 0
vn -1 0 0
vn -1 0 0
vn 0.707107 -0.707107 0
vn 0.707107 -0.707107 -1.0494e-16
vn 0.707107 -0.707107 -1.0494e-16
vn 0.707107 -0.707107 1.0494e-16
vn 0.707107 -0.707107 1.0494e-16


# Faces: 
usemtl material0
f 20/8/1 21/9/1 22/10/1
f 20/8/1 22/10/1 17/5/1
f 19/7/1 17/5/1 18/6/1
f 17/5/1 19/7/1 20/8/1
f 22/10/1 23/11/1 17/5/1
f 24/12/1 13/1/1 23/11/1
f 23/11/1 13/1/1 16/4/1
f 16/4/1 14/2/1 15/3/1
f 14/2/1 16/4/1 13/1/1
f 23/11/1 16/4/1 17/5/1
f 9/21/2 8/20/2 10/22/2
f 10/22/2 8/20/2 5/17/2
f 5/17/2 7/19/2 6/18/2
f 7/19/2 5/17/2 8/20/2
f 11/23/2 10/22/2 5/17/2
f 1/13/2 12/24/2 11/23/2
f 1/13/2 11/23/2 4/16/2
f 2/14/2 4/16/2 3/15/2
f 4/16/2 2/14/2 1/13/2
f 4/16/2 11/23/2 5/17/2
f 25/73/3 1/25/4 2/26/5
f 25/73/3 2/26/5 14/50/6
f 25/73/3 14/50/6 13/49/7
f 25/73/3 13/49/7 1/25/4
f 26/74/8 2/27/9 3/28/10
f 26/74/8 3/28/10 15/52/11
f 26/74/8 15/52/11 14/51/12
f 26/74/8 14/51/12 2/27/9
f 27/75/13 3/29/14 4/30/15
f 27/75/13 4/30/15 16/54/16
f 27/75/13 16/54/16 15/53/17
f 27/75/13 15/53/17 3/29/14
f 28/76/18 4/31/19 5/32/20
f 28/76/18 5/32/20 17/56/21
f 28/76/18 17/56/21 16/55/22
f 28/76/18 16/55/22 4/31/19
f 29/77/23 5/33/24 6/34/25
f 29/77/23 6/34/25 18/58/26
f 29/77/23 18/58/26 17/57/27
f 29/77/23 17/57/27 5/33/24
f 30/78/28 6/35/29 7/36/30
f 30/78/28 7/36/30 19/60/31
f 30/78/28 19/60/31 18/59/32
f 30/78/28 18/59/32 6/35/29
f 31/79/33 7/37/34 8/38/35
f 31/79/33 8/38/35 20/62/36
f 31/79/33 20/62/36 19/61/37
f 31/79/33 19/61/37 7/37/34
f 32/80/38 8/39/39 9/40/40
f 32/80/38 9/40/40 21/64/41
f 32/80/38 21/64/41 20/63/42
f 32/80/38 20/63/42 8/39/39
f 33/81/43 9/41/44 10/42/45
f 33/81/43 10/42/45 22/66/46
f 33/81/43 22/66/46 21/65/47
f 33/81/43 21/65/47 9/41/44
f 34/82/48 10/43/49 11/44/50
f 34/82/48 11/44/50 23/68/51
f 34/82/48 23/68/51 22/67/52
f 34/82/48 22/67/52 10/43/49
f 35/83/53 11/45/54 12/46/55
f 35/83/53 12/46/55 24/70/56
f 35/83/53 24/70/56 23/69/57
f 35/83/53 23/69/57 11/45/54
f 36/84/58 12/47/59 1/48/60
f 36/84/58 1/48/60 13/72/61
f 36/84/58 13/72/61 24/71/62
f 36/84/58 24/71/62 12/47/59
