mtllib èµ„æº 12.mtl
# Vertex Positions: 
g groupNumber_0
v 2.17851 -1.63389 -0.8825
v 0.272315 -1.63389 -0.8825
v 0.272315 1.63389 -0.8825
v 1.63389 1.63389 -0.8825
v 2.17851 2.17851 -0.8825
v -2.17851 2.17851 -0.8825
v -2.17851 1.63389 -0.8825
v -0.272315 1.63389 -0.8825
v -0.272315 -1.63389 -0.8825
v -2.17851 -1.63389 -0.8825
v -2.17851 -2.17851 -0.8825
v 1.63389 -2.17851 -0.8825
v 2.17851 -1.63389 0.8825
v 0.272315 -1.63389 0.8825
v 0.272315 1.63389 0.8825
v 1.63389 1.63389 0.8825
v 2.17851 2.17851 0.8825
v -2.17851 2.17851 0.8825
v -2.17851 1.63389 0.8825
v -0.272315 1.63389 0.8825
v -0.272315 -1.63389 0.8825
v -2.17851 -1.63389 0.8825
v -2.17851 -2.17851 0.8825
v 1.63389 -2.17851 0.8825
v 1.22541 -1.63389 0
v 0.272315 0 0
v 0.9531 1.63389 0
v 1.9062 1.9062 0
v 0 2.17851 0
v -2.17851 1.9062 0
v -1.22541 1.63389 0
v -0.272315 0 0
v -1.22541 -1.63389 0
v -2.17851 -1.9062 0
v -0.272315 -2.17851 0
v 1.9062 -1.9062 0


# Vertex Texture Coordinates :
vt 0.451805 0.0564879
vt 0.25414 0.0564879
vt 0.25414 0.395342
vt 0.395329 0.395342
vt 0.451805 0.451817
vt 0 0.451817
vt 0 0.395342
vt 0.197665 0.395342
vt 0.197665 0.0564879
vt 0 0.0564879
vt 0 1.25174e-05
vt 0.395329 1.25174e-05
vt 0 0.514167
vt 0.197665 0.514167
vt 0.197665 0.853021
vt 0.0564756 0.853021
vt 0 0.909496
vt 0.451805 0.909496
vt 0.451805 0.853021
vt 0.25414 0.853021
vt 0.25414 0.514167
vt 0.451805 0.514167
vt 0.451805 0.457692
vt 0.0564756 0.457692
vt 0.457655 0
vt 0.655319 0
vt 0.661146 0
vt 0.999999 0
vt 0.457676 0.188872
vt 0.598865 0.188872
vt 0.678733 0.188872
vt 0.457679 0.377745
vt 0.909484 0.377745
vt 0.915334 0.377745
vt 0.971809 0.377745
vt 0.68458 0.188872
vt 0.882245 0.188872
vt 0.457655 0.566617
vt 0.796509 0.566617
vt 0.802335 0.566617
vt 1 0.566617
vt 0.88807 0.188872
vt 0.944545 0.188872
vt 0.457642 0.75549
vt 0.852971 0.75549
vt 0.93284 0.75549
vt 0.457655 0.183023
vt 0.655319 0.183023
vt 0.661146 0.183023
vt 0.999999 0.183023
vt 0.457676 0.371895
vt 0.598865 0.371895
vt 0.678733 0.371895
vt 0.457679 0.560768
vt 0.909484 0.560768
vt 0.915334 0.560768
vt 0.971809 0.560768
vt 0.68458 0.371895
vt 0.882245 0.371895
vt 0.457655 0.74964
vt 0.796509 0.74964
vt 0.802335 0.74964
vt 1 0.74964
vt 0.88807 0.371895
vt 0.944545 0.371895
vt 0.457642 0.938512
vt 0.852971 0.938512
vt 0.93284 0.938512
vt 0.556487 0.0915114
vt 0.830573 0.0915114
vt 0.52827 0.280384
vt 0.638799 0.280384
vt 0.683582 0.469256
vt 0.943571 0.469256
vt 0.783412 0.280384
vt 0.627082 0.658129
vt 0.901168 0.658129
vt 0.916308 0.280384
vt 0.655307 0.847001
vt 0.892906 0.847001


# Vertex Surface Normals: 
vn 0 0 1
vn 0 0 -1
vn 0 1 0
vn 0 1 0
vn 0 1 0
vn 0 1 0
vn 0 1 0
vn 1 0 0
vn 1 0 0
vn 1 0 0
vn 1 0 0
vn 1 0 0
vn 0 -1 0
vn 0 -1 0
vn 0.382683 -0.92388 5.41639e-17
vn 0.382683 -0.92388 -5.41639e-17
vn 0 -1 0
vn 0.707105 -0.707108 0
vn 0.707105 -0.707108 1.00082e-16
vn 0.707105 -0.707108 -1.00082e-16
vn 0 1 0
vn 0 1 0
vn 0 1 0
vn 0 1 0
vn 0 1 0
vn -1 0 0
vn -1 0 0
vn -1 0 0
vn -1 0 0
vn -1 0 0
vn 0 -1 0
vn 0 -1 0
vn 0 -1 0
vn 0 -1 0
vn 0 -1 0
vn -1 0 0
vn -1 0 0
vn -1 0 0
vn -1 0 0
vn -1 0 0
vn 0 1 0
vn 0 1 0
vn 0 1 0
vn 0 1 0
vn 0 1 0
vn -1 0 0
vn -1 0 0
vn -1 0 0
vn -1 0 0
vn -1 0 0
vn 0 -1 0
vn 0 -1 0
vn 0.382683 -0.92388 -5.41639e-17
vn 0.382683 -0.92388 5.41639e-17
vn 0 -1 0
vn 0.707105 -0.707108 0
vn 0.707105 -0.707108 -1.00082e-16
vn 0.707105 -0.707108 1.00082e-16


# Faces: 
usemtl material0
f 23/11/1 21/9/1 22/10/1
f 21/9/1 23/11/1 24/12/1
f 19/7/1 20/8/1 18/6/1
f 18/6/1 20/8/1 15/3/1
f 21/9/1 14/2/1 20/8/1
f 14/2/1 24/12/1 13/1/1
f 24/12/1 14/2/1 21/9/1
f 15/3/1 16/4/1 17/5/1
f 15/3/1 17/5/1 18/6/1
f 14/2/1 15/3/1 20/8/1
f 9/21/2 11/23/2 10/22/2
f 11/23/2 9/21/2 12/24/2
f 8/20/2 7/19/2 6/18/2
f 8/20/2 6/18/2 3/15/2
f 2/14/2 9/21/2 8/20/2
f 12/24/2 2/14/2 1/13/2
f 2/14/2 12/24/2 9/21/2
f 4/16/2 3/15/2 5/17/2
f 5/17/2 3/15/2 6/18/2
f 3/15/2 2/14/2 8/20/2
f 25/69/3 1/25/4 2/26/5
f 25/69/3 2/26/5 14/48/6
f 25/69/3 14/48/6 13/47/7
f 25/69/3 13/47/7 1/25/4
f 26/70/8 2/27/9 3/28/10
f 26/70/8 3/28/10 15/50/11
f 26/70/8 15/50/11 14/49/12
f 26/70/8 14/49/12 2/27/9
f 27/71/13 3/29/14 4/30/15
f 27/71/13 4/30/15 16/52/16
f 27/71/13 16/52/16 15/51/17
f 27/71/13 15/51/17 3/29/14
f 28/72/18 4/30/15 5/31/19
f 28/72/18 5/31/19 17/53/20
f 28/72/18 17/53/20 16/52/16
f 28/72/18 16/52/16 4/30/15
f 29/73/21 5/32/22 6/33/23
f 29/73/21 6/33/23 18/55/24
f 29/73/21 18/55/24 17/54/25
f 29/73/21 17/54/25 5/32/22
f 30/74/26 6/34/27 7/35/28
f 30/74/26 7/35/28 19/57/29
f 30/74/26 19/57/29 18/56/30
f 30/74/26 18/56/30 6/34/27
f 31/75/31 7/36/32 8/37/33
f 31/75/31 8/37/33 20/59/34
f 31/75/31 20/59/34 19/58/35
f 31/75/31 19/58/35 7/36/32
f 32/76/36 8/38/37 9/39/38
f 32/76/36 9/39/38 21/61/39
f 32/76/36 21/61/39 20/60/40
f 32/76/36 20/60/40 8/38/37
f 33/77/41 9/40/42 10/41/43
f 33/77/41 10/41/43 22/63/44
f 33/77/41 22/63/44 21/62/45
f 33/77/41 21/62/45 9/40/42
f 34/78/46 10/42/47 11/43/48
f 34/78/46 11/43/48 23/65/49
f 34/78/46 23/65/49 22/64/50
f 34/78/46 22/64/50 10/42/47
f 35/79/51 11/44/52 12/45/53
f 35/79/51 12/45/53 24/67/54
f 35/79/51 24/67/54 23/66/55
f 35/79/51 23/66/55 11/44/52
f 36/80/56 12/45/53 1/46/57
f 36/80/56 1/46/57 13/68/58
f 36/80/56 13/68/58 24/67/54
f 36/80/56 24/67/54 12/45/53
