mtllib èµ„æº 14.mtl
# Vertex Positions: 
g groupNumber_0
v 2.17851 -2.17851 -0.8825
v 0.277457 -0.272314 -0.8825
v 0.00302498 0.00302605 -0.8825
v 0.272315 0.272314 -0.8825
v 2.17851 2.17851 -0.8825
v 1.40817 2.17851 -0.8825
v -0.381543 0.388504 -0.8825
v -0.497731 0.272314 -0.8825
v -1.63389 0.272314 -0.8825
v -1.63389 2.17851 -0.8825
v -2.17851 2.17851 -0.8825
v -2.17851 -2.17851 -0.8825
v -1.63389 -2.17851 -0.8825
v -1.63389 -0.272314 -0.8825
v -0.489863 -0.272314 -0.8825
v 1.41634 -2.17851 -0.8825
v 2.17851 -2.17851 0.8825
v 0.277457 -0.272314 0.8825
v 0.00302498 0.00302605 0.8825
v 0.272315 0.272314 0.8825
v 2.17851 2.17851 0.8825
v 1.40817 2.17851 0.8825
v -0.381543 0.388504 0.8825
v -0.497731 0.272314 0.8825
v -1.63389 0.272314 0.8825
v -1.63389 2.17851 0.8825
v -2.17851 2.17851 0.8825
v -2.17851 -2.17851 0.8825
v -1.63389 -2.17851 0.8825
v -1.63389 -0.272314 0.8825
v -0.489863 -0.272314 0.8825
v 1.41634 -2.17851 0.8825
v 1.22799 -1.22541 0
v 0.140241 -0.134644 0
v 0.13767 0.13767 0
v 1.22541 1.22541 0
v 1.79334 2.17851 0
v 0.513312 1.28351 0
v -0.439637 0.330409 0
v -1.06581 0.272314 0
v -1.63389 1.22541 0
v -1.9062 2.17851 0
v -2.17851 0 0
v -1.9062 -2.17851 0
v -1.63389 -1.22541 0
v -1.06187 -0.272314 0
v 0.463237 -1.22541 0
v 1.79743 -2.17851 0


# Vertex Texture Coordinates :
vt 0.450415 0
vt 0.25389 0.197057
vt 0.22552 0.22552
vt 0.253359 0.253358
vt 0.450415 0.450415
vt 0.370779 0.450415
vt 0.185765 0.26537
vt 0.173754 0.253358
vt 0.056302 0.253358
vt 0.056302 0.450415
vt 0 0.450415
vt 0 0
vt 0.056302 0
vt 0.056302 0.197057
vt 0.174567 0.197057
vt 0.371624 0
vt 0 0.456224
vt 0.196525 0.653281
vt 0.224895 0.681745
vt 0.197057 0.709583
vt 0 0.906639
vt 0.079636 0.906639
vt 0.26465 0.721594
vt 0.276661 0.709583
vt 0.394113 0.709583
vt 0.394113 0.906639
vt 0.450415 0.906639
vt 0.450415 0.456224
vt 0.394113 0.456224
vt 0.394113 0.653281
vt 0.275848 0.653281
vt 0.0787914 0.456224
vt 0.456273 2.38453e-06
vt 0.734577 2.38453e-06
vt 0.774765 2.38453e-06
vt 0.456262 0.188276
vt 0.495631 0.188276
vt 0.774311 0.188276
vt 0.780641 2.38453e-06
vt 0.860277 2.38453e-06
vt 0.45627 0.37655
vt 0.717942 0.37655
vt 0.734928 0.37655
vt 0.866149 2.38453e-06
vt 0.983601 2.38453e-06
vt 0.780179 0.188276
vt 0.977235 0.188276
vt 0.740797 0.37655
vt 0.797099 0.37655
vt 0.456224 0.564824
vt 0.906639 0.564824
vt 0.912462 0.564824
vt 0.968764 0.564824
vt 0.802943 0.37655
vt 1 0.37655
vt 0.456223 0.753097
vt 0.574489 0.753097
vt 0.853169 0.753097
vt 0.93196 0.753097
vt 0.456273 0.182462
vt 0.734577 0.182462
vt 0.774765 0.182462
vt 0.456262 0.370736
vt 0.495631 0.370736
vt 0.774311 0.370736
vt 0.780641 0.182462
vt 0.860277 0.182462
vt 0.45627 0.55901
vt 0.717942 0.55901
vt 0.734928 0.55901
vt 0.866149 0.182462
vt 0.983601 0.182462
vt 0.780179 0.370736
vt 0.977235 0.370736
vt 0.740797 0.55901
vt 0.797099 0.55901
vt 0.456224 0.747284
vt 0.906639 0.747284
vt 0.912462 0.747284
vt 0.968764 0.747284
vt 0.802943 0.55901
vt 1 0.55901
vt 0.456223 0.935557
vt 0.574489 0.935557
vt 0.853169 0.935557
vt 0.93196 0.935557
vt 0.595425 0.0912323
vt 0.754671 0.0912323
vt 0.475946 0.279506
vt 0.634971 0.279506
vt 0.820459 0.0912323
vt 0.587106 0.46778
vt 0.726435 0.46778
vt 0.924875 0.0912323
vt 0.878707 0.279506
vt 0.768948 0.46778
vt 0.681432 0.656054
vt 0.940613 0.656054
vt 0.901472 0.46778
vt 0.515356 0.844327
vt 0.713829 0.844327
vt 0.892564 0.844327


# Vertex Surface Normals: 
vn 0 0 1
vn 0 0 -1
vn 0.708061 0.706151 0
vn 0.708061 0.706151 2.34818e-17
vn 0.708167 0.706045 2.06336e-17
vn 0.708167 0.706045 -2.06336e-17
vn 0.708061 0.706151 -2.34818e-17
vn 0.708272 0.705939 0
vn 0.708272 0.705939 1.77853e-17
vn 0.708272 0.705939 -1.77853e-17
vn 0.707104 -0.70711 0
vn 0.707104 -0.70711 1.82125e-17
vn 0.707105 -0.707108 -2.60316e-17
vn 0.707105 -0.707108 2.60316e-17
vn 0.707104 -0.70711 -1.82125e-17
vn 0.707107 -0.707107 0
vn 0.707107 -0.707107 -7.02756e-17
vn 0.707107 -0.707107 7.02756e-17
vn 0 1 0
vn 0 1 0
vn 0 1 0
vn 0 1 0
vn 0 1 0
vn -0.707166 0.707048 0
vn -0.707166 0.707048 2.62049e-17
vn -0.70714 0.707074 1.31025e-17
vn -0.70714 0.707074 -1.31025e-17
vn -0.707166 0.707048 -2.62049e-17
vn -0.707113 0.7071 0
vn -0.707113 0.7071 0
vn -0.707113 0.7071 0
vn 0 1 0
vn 0 1 0
vn 0 1 0
vn 0 1 0
vn 0 1 0
vn 1 0 0
vn 1 0 0
vn 1 0 0
vn 1 0 0
vn 1 0 0
vn 0 1 0
vn 0 1 0
vn 0 1 0
vn 0 1 0
vn 0 1 0
vn -1 0 0
vn -1 0 0
vn -1 0 0
vn -1 0 0
vn -1 0 0
vn 0 -1 0
vn 0 -1 0
vn 0 -1 0
vn 0 -1 0
vn 0 -1 0
vn 1 0 0
vn 1 0 0
vn 1 0 0
vn 1 0 0
vn 1 0 0
vn 0 -1 0
vn 0 -1 0
vn -0.382683 -0.92388 1.26776e-17
vn -0.382683 -0.92388 -1.26776e-17
vn 0 -1 0
vn -0.707107 -0.707107 0
vn -0.382683 -0.92388 1.26776e-17
vn -0.382683 -0.92388 -1.26776e-17
vn 0 -1 0
vn 0 -1 0
vn 0 -1 0


# Faces: 
usemtl material0
f 28/12/1 29/13/1 30/14/1
f 30/14/1 31/15/1 24/8/1
f 28/12/1 30/14/1 25/9/1
f 27/11/1 25/9/1 26/10/1
f 25/9/1 27/11/1 28/12/1
f 25/9/1 30/14/1 24/8/1
f 31/15/1 19/3/1 24/8/1
f 19/3/1 31/15/1 18/2/1
f 32/16/1 17/1/1 18/2/1
f 23/7/1 24/8/1 19/3/1
f 23/7/1 20/4/1 22/6/1
f 20/4/1 23/7/1 19/3/1
f 21/5/1 22/6/1 20/4/1
f 31/15/1 32/16/1 18/2/1
f 13/29/2 12/28/2 14/30/2
f 15/31/2 14/30/2 8/24/2
f 14/30/2 12/28/2 9/25/2
f 9/25/2 11/27/2 10/26/2
f 11/27/2 9/25/2 12/28/2
f 14/30/2 9/25/2 8/24/2
f 3/19/2 15/31/2 8/24/2
f 15/31/2 3/19/2 2/18/2
f 1/17/2 16/32/2 2/18/2
f 8/24/2 7/23/2 3/19/2
f 4/20/2 7/23/2 6/22/2
f 7/23/2 4/20/2 3/19/2
f 6/22/2 5/21/2 4/20/2
f 16/32/2 15/31/2 2/18/2
f 33/87/3 1/33/4 2/34/5
f 33/87/3 2/34/5 18/61/6
f 33/87/3 18/61/6 17/60/7
f 33/87/3 17/60/7 1/33/4
f 34/88/8 2/34/5 3/35/9
f 34/88/8 3/35/9 19/62/10
f 34/88/8 19/62/10 18/61/6
f 34/88/8 18/61/6 2/34/5
f 35/89/11 3/36/12 4/37/13
f 35/89/11 4/37/13 20/64/14
f 35/89/11 20/64/14 19/63/15
f 35/89/11 19/63/15 3/36/12
f 36/90/16 4/37/13 5/38/17
f 36/90/16 5/38/17 21/65/18
f 36/90/16 21/65/18 20/64/14
f 36/90/16 20/64/14 4/37/13
f 37/91/19 5/39/20 6/40/21
f 37/91/19 6/40/21 22/67/22
f 37/91/19 22/67/22 21/66/23
f 37/91/19 21/66/23 5/39/20
f 38/92/24 6/41/25 7/42/26
f 38/92/24 7/42/26 23/69/27
f 38/92/24 23/69/27 22/68/28
f 38/92/24 22/68/28 6/41/25
f 39/93/29 7/42/26 8/43/30
f 39/93/29 8/43/30 24/70/31
f 39/93/29 24/70/31 23/69/27
f 39/93/29 23/69/27 7/42/26
f 40/94/32 8/44/33 9/45/34
f 40/94/32 9/45/34 25/72/35
f 40/94/32 25/72/35 24/71/36
f 40/94/32 24/71/36 8/44/33
f 41/95/37 9/46/38 10/47/39
f 41/95/37 10/47/39 26/74/40
f 41/95/37 26/74/40 25/73/41
f 41/95/37 25/73/41 9/46/38
f 42/96/42 10/48/43 11/49/44
f 42/96/42 11/49/44 27/76/45
f 42/96/42 27/76/45 26/75/46
f 42/96/42 26/75/46 10/48/43
f 43/97/47 11/50/48 12/51/49
f 43/97/47 12/51/49 28/78/50
f 43/97/47 28/78/50 27/77/51
f 43/97/47 27/77/51 11/50/48
f 44/98/52 12/52/53 13/53/54
f 44/98/52 13/53/54 29/80/55
f 44/98/52 29/80/55 28/79/56
f 44/98/52 28/79/56 12/52/53
f 45/99/57 13/54/58 14/55/59
f 45/99/57 14/55/59 30/82/60
f 45/99/57 30/82/60 29/81/61
f 45/99/57 29/81/61 13/54/58
f 46/100/62 14/56/63 15/57/64
f 46/100/62 15/57/64 31/84/65
f 46/100/62 31/84/65 30/83/66
f 46/100/62 30/83/66 14/56/63
f 47/101/67 15/57/64 16/58/68
f 47/101/67 16/58/68 32/85/69
f 47/101/67 32/85/69 31/84/65
f 47/101/67 31/84/65 15/57/64
f 48/102/70 16/58/68 1/59/71
f 48/102/70 1/59/71 17/86/72
f 48/102/70 17/86/72 32/85/69
f 48/102/70 32/85/69 16/58/68
