mtllib èµ„æº 15.mtl
# Vertex Positions: 
g groupNumber_0
v 2.17851 -1.63389 -0.8825
v -1.63389 -1.63389 -0.8825
v -1.63389 2.17851 -0.8825
v -2.17851 2.17851 -0.8825
v -2.17851 -2.17851 -0.8825
v 1.63389 -2.17851 -0.8825
v 2.17851 -1.63389 0.8825
v -1.63389 -1.63389 0.8825
v -1.63389 2.17851 0.8825
v -2.17851 2.17851 0.8825
v -2.17851 -2.17851 0.8825
v 1.63389 -2.17851 0.8825
v 0.272315 -1.63389 0
v -1.63389 0.272314 0
v -1.9062 2.17851 0
v -2.17851 1.77636e-15 0
v -0.272315 -2.17851 0
v 1.9062 -1.9062 0


# Vertex Texture Coordinates :
vt 0.484333 0.0605548
vt 0.0605416 0.0605548
vt 0.0605416 0.484346
vt 0 0.484346
vt 0 1.34185e-05
vt 0.423791 1.34185e-05
vt 0 0.551185
vt 0.423791 0.551185
vt 0.423791 0.974976
vt 0.484333 0.974976
vt 0.484333 0.490643
vt 0.0605416 0.490643
vt 0.490617 0
vt 0.914408 0
vt 0.490617 0.20247
vt 0.914408 0.20247
vt 0.920666 0
vt 0.981208 0
vt 0.49063 0.404941
vt 0.974962 0.404941
vt 0.49059 0.607411
vt 0.914381 0.607411
vt 1 0.607411
vt 0.490617 0.196199
vt 0.914408 0.196199
vt 0.490617 0.39867
vt 0.914408 0.39867
vt 0.920666 0.196199
vt 0.981208 0.196199
vt 0.49063 0.60114
vt 0.974962 0.60114
vt 0.49059 0.803611
vt 0.914381 0.803611
vt 1 0.803611
vt 0.702513 0.0980997
vt 0.702513 0.30057
vt 0.950937 0.0980997
vt 0.732796 0.503041
vt 0.702486 0.705511
vt 0.957191 0.705511


# Vertex Surface Normals: 
vn 0 0 1
vn 0 0 -1
vn 0 1 0
vn 0 1 0
vn 0 1 0
vn 0 1 0
vn 0 1 0
vn 1 0 0
vn 1 0 0
vn 1 0 0
vn 1 0 0
vn 1 0 0
vn 0 1 0
vn 0 1 0
vn 0 1 0
vn 0 1 0
vn 0 1 0
vn -1 0 0
vn -1 0 0
vn -1 0 0
vn -1 0 0
vn -1 0 0
vn 0 -1 0
vn 0 -1 0
vn 0.382683 -0.92388 1.11603e-16
vn 0.382683 -0.92388 -1.11603e-16
vn 0 -1 0
vn 0.707105 -0.707108 0
vn 0.707105 -0.707108 2.06216e-16
vn 0.707105 -0.707108 -2.06216e-16


# Faces: 
usemtl material0
f 11/5/1 8/2/1 10/4/1
f 8/2/1 11/5/1 12/6/1
f 10/4/1 8/2/1 9/3/1
f 7/1/1 8/2/1 12/6/1
f 2/8/2 5/11/2 4/10/2
f 5/11/2 2/8/2 6/12/2
f 2/8/2 4/10/2 3/9/2
f 2/8/2 1/7/2 6/12/2
f 13/35/3 1/13/4 2/14/5
f 13/35/3 2/14/5 8/25/6
f 13/35/3 8/25/6 7/24/7
f 13/35/3 7/24/7 1/13/4
f 14/36/8 2/15/9 3/16/10
f 14/36/8 3/16/10 9/27/11
f 14/36/8 9/27/11 8/26/12
f 14/36/8 8/26/12 2/15/9
f 15/37/13 3/17/14 4/18/15
f 15/37/13 4/18/15 10/29/16
f 15/37/13 10/29/16 9/28/17
f 15/37/13 9/28/17 3/17/14
f 16/38/18 4/19/19 5/20/20
f 16/38/18 5/20/20 11/31/21
f 16/38/18 11/31/21 10/30/22
f 16/38/18 10/30/22 4/19/19
f 17/39/23 5/21/24 6/22/25
f 17/39/23 6/22/25 12/33/26
f 17/39/23 12/33/26 11/32/27
f 17/39/23 11/32/27 5/21/24
f 18/40/28 6/22/25 1/23/29
f 18/40/28 1/23/29 7/34/30
f 18/40/28 7/34/30 12/33/26
f 18/40/28 12/33/26 6/22/25
