mtllib èµ„æº 16.mtl
# Vertex Positions: 
g groupNumber_0
v 2.17851 -1.63389 -0.8825
v 2.17851 2.17851 -0.8825
v 0 0 -0.8825
v -2.17851 2.17851 -0.8825
v -2.17851 -2.17851 -0.8825
v -1.63389 -2.17851 -0.8825
v -1.63389 0.86354 -0.8825
v -0.385174 -0.385172 -0.8825
v 0 -0.770044 -0.8825
v 0.385172 -0.385172 -0.8825
v 1.63389 0.86354 -0.8825
v 1.63389 -2.17851 -0.8825
v 2.17851 -1.63389 0.8825
v 2.17851 2.17851 0.8825
v 0 0 0.8825
v -2.17851 2.17851 0.8825
v -2.17851 -2.17851 0.8825
v -1.63389 -2.17851 0.8825
v -1.63389 0.86354 0.8825
v -0.385174 -0.385172 0.8825
v 0 -0.770044 0.8825
v 0.385172 -0.385172 0.8825
v 1.63389 0.86354 0.8825
v 1.63389 -2.17851 0.8825
v 2.17851 0.272315 0
v 1.08926 1.08926 0
v -1.08926 1.08926 0
v -2.17851 0 0
v -1.9062 -2.17851 0
v -1.63389 -0.657487 0
v -1.00953 0.239184 0
v -0.192587 -0.577608 0
v 0.192586 -0.577608 0
v 1.00953 0.239184 0
v 1.63389 -0.657487 0
v 1.9062 -1.9062 0


# Vertex Texture Coordinates :
vt 0.413074 0.0516343
vt 0.413074 0.413074
vt 0.206537 0.206537
vt 0 0.413074
vt 0 0
vt 0.0516343 0
vt 0.0516343 0.288406
vt 0.17002 0.17002
vt 0.206537 0.133532
vt 0.243054 0.17002
vt 0.36144 0.288406
vt 0.36144 0
vt 0 0.469751
vt 0 0.83119
vt 0.206537 0.624653
vt 0.413074 0.83119
vt 0.413074 0.418116
vt 0.36144 0.418116
vt 0.36144 0.706522
vt 0.243054 0.588136
vt 0.206537 0.551648
vt 0.17002 0.588136
vt 0.0516343 0.706522
vt 0.0516343 0.418116
vt 0.418116 3.7363e-05
vt 0.779556 3.7363e-05
vt 0.418151 0.172488
vt 0.710238 0.172488
vt 0.418151 0.344938
vt 0.710238 0.344938
vt 0.418116 0.517388
vt 0.83119 0.517388
vt 0.836283 0.517388
vt 0.887917 0.517388
vt 0.418126 0.689838
vt 0.706532 0.689838
vt 0.715364 0.172488
vt 0.882787 0.172488
vt 0.93441 0.172488
vt 0.715364 0.344938
vt 0.766987 0.344938
vt 0.93441 0.344938
vt 0.711594 0.689838
vt 1 0.689838
vt 0.893056 0.517388
vt 0.966078 0.517388
vt 0.418116 0.16737
vt 0.779556 0.16737
vt 0.418151 0.339821
vt 0.710238 0.339821
vt 0.418151 0.512271
vt 0.710238 0.512271
vt 0.418116 0.684721
vt 0.83119 0.684721
vt 0.836283 0.684721
vt 0.887917 0.684721
vt 0.418126 0.857172
vt 0.706532 0.857172
vt 0.715364 0.339821
vt 0.882787 0.339821
vt 0.93441 0.339821
vt 0.715364 0.512271
vt 0.766987 0.512271
vt 0.93441 0.512271
vt 0.711594 0.857172
vt 1 0.857172
vt 0.893056 0.684721
vt 0.966078 0.684721
vt 0.598836 0.0837039
vt 0.564195 0.256154
vt 0.564195 0.428604
vt 0.624653 0.601055
vt 0.8621 0.601055
vt 0.562329 0.773505
vt 0.799076 0.256154
vt 0.908598 0.256154
vt 0.741176 0.428604
vt 0.850698 0.428604
vt 0.855797 0.773505
vt 0.929567 0.601055


# Vertex Surface Normals: 
vn 0 0 1
vn 0 0 -1
vn 1 0 0
vn 0.92388 -0.382683 -2.76741e-17
vn 1 0 0
vn 1 0 0
vn 0.92388 -0.382683 2.76741e-17
vn -0.707107 0.707107 0
vn -0.707107 0.707107 1.83575e-17
vn -0.707107 0.707107 1.83575e-17
vn -0.707107 0.707107 -1.83575e-17
vn -0.707107 0.707107 -1.83575e-17
vn 0.707107 0.707107 0
vn 0.707107 0.707107 -1.83575e-17
vn 0.707107 0.707107 -1.83575e-17
vn 0.707107 0.707107 1.83575e-17
vn 0.707107 0.707107 1.83575e-17
vn -1 0 0
vn -1 0 0
vn -1 0 0
vn -1 0 0
vn -1 0 0
vn 0 -1 0
vn 0 -1 0
vn 0 -1 0
vn 0 -1 0
vn 0 -1 0
vn 1 0 0
vn 1 0 0
vn 1 0 0
vn 1 0 0
vn 1 0 0
vn -0.707107 -0.707107 0
vn -0.707107 -0.707107 0
vn -0.706968 -0.707245 0
vn -0.706968 -0.707245 0
vn -0.707107 -0.707107 0
vn -0.70683 -0.707384 0
vn -0.70683 -0.707384 0
vn -0.70683 -0.707384 0
vn 0.706832 -0.707382 0
vn 0.706832 -0.707382 0
vn 0.706969 -0.707245 0
vn 0.706969 -0.707245 0
vn 0.706832 -0.707382 0
vn 0.707106 -0.707107 0
vn 0.707106 -0.707107 0
vn 0.707106 -0.707107 0
vn -1 0 0
vn -1 0 0
vn -1 0 0
vn -1 0 0
vn -1 0 0
vn 0.707107 -0.707107 0
vn 0.707107 -0.707107 -5.11351e-17
vn 0.707107 -0.707107 5.11351e-17


# Faces: 
usemtl material0
f 16/4/1 19/7/1 15/3/1
f 19/7/1 16/4/1 17/5/1
f 19/7/1 17/5/1 18/6/1
f 20/8/1 15/3/1 19/7/1
f 20/8/1 21/9/1 15/3/1
f 24/12/1 13/1/1 23/11/1
f 22/10/1 15/3/1 21/9/1
f 23/11/1 15/3/1 22/10/1
f 14/2/1 23/11/1 13/1/1
f 14/2/1 15/3/1 23/11/1
f 7/19/2 4/16/2 3/15/2
f 4/16/2 7/19/2 5/17/2
f 5/17/2 7/19/2 6/18/2
f 3/15/2 8/20/2 7/19/2
f 9/21/2 8/20/2 3/15/2
f 1/13/2 12/24/2 11/23/2
f 3/15/2 10/22/2 9/21/2
f 3/15/2 11/23/2 10/22/2
f 11/23/2 2/14/2 1/13/2
f 3/15/2 2/14/2 11/23/2
f 25/69/3 1/25/4 2/26/5
f 25/69/3 2/26/5 14/48/6
f 25/69/3 14/48/6 13/47/7
f 25/69/3 13/47/7 1/25/4
f 26/70/8 2/27/9 3/28/10
f 26/70/8 3/28/10 15/50/11
f 26/70/8 15/50/11 14/49/12
f 26/70/8 14/49/12 2/27/9
f 27/71/13 3/29/14 4/30/15
f 27/71/13 4/30/15 16/52/16
f 27/71/13 16/52/16 15/51/17
f 27/71/13 15/51/17 3/29/14
f 28/72/18 4/31/19 5/32/20
f 28/72/18 5/32/20 17/54/21
f 28/72/18 17/54/21 16/53/22
f 28/72/18 16/53/22 4/31/19
f 29/73/23 5/33/24 6/34/25
f 29/73/23 6/34/25 18/56/26
f 29/73/23 18/56/26 17/55/27
f 29/73/23 17/55/27 5/33/24
f 30/74/28 6/35/29 7/36/30
f 30/74/28 7/36/30 19/58/31
f 30/74/28 19/58/31 18/57/32
f 30/74/28 18/57/32 6/35/29
f 31/75/33 7/37/34 8/38/35
f 31/75/33 8/38/35 20/60/36
f 31/75/33 20/60/36 19/59/37
f 31/75/33 19/59/37 7/37/34
f 32/76/38 8/38/35 9/39/39
f 32/76/38 9/39/39 21/61/40
f 32/76/38 21/61/40 20/60/36
f 32/76/38 20/60/36 8/38/35
f 33/77/41 9/40/42 10/41/43
f 33/77/41 10/41/43 22/63/44
f 33/77/41 22/63/44 21/62/45
f 33/77/41 21/62/45 9/40/42
f 34/78/46 10/41/43 11/42/47
f 34/78/46 11/42/47 23/64/48
f 34/78/46 23/64/48 22/63/44
f 34/78/46 22/63/44 10/41/43
f 35/79/49 11/43/50 12/44/51
f 35/79/49 12/44/51 24/66/52
f 35/79/49 24/66/52 23/65/53
f 35/79/49 23/65/53 11/43/50
f 36/80/54 12/45/55 1/46/4
f 36/80/54 1/46/4 13/68/7
f 36/80/54 13/68/7 24/67/56
f 36/80/54 24/67/56 12/45/55
