mtllib èµ„æº 20.mtl
# Vertex Positions: 
g groupNumber_0
v 1.63389 -1.63389 -0.8825
v -1.63389 -1.63389 -0.8825
v -1.63389 1.63389 -0.8825
v -2.17851 1.08926 -0.8825
v -2.17851 -2.17851 -0.8825
v 1.08926 -2.17851 -0.8825
v 1.63389 -1.63389 0.8825
v -1.63389 -1.63389 0.8825
v -1.63389 1.63389 0.8825
v -2.17851 1.08926 0.8825
v -2.17851 -2.17851 0.8825
v 1.08926 -2.17851 0.8825
v -8.17082e-10 -1.63389 -1.11022e-16
v -1.63389 -2.34826e-10 -1.11022e-16
v -1.9062 1.36157 -1.11022e-16
v -2.17851 -0.544628 -1.11022e-16
v -0.544629 -2.17851 -1.11022e-16
v 1.36157 -1.9062 -1.11022e-16


# Vertex Texture Coordinates :
vt 0.482576 0.0689511
vt 0.0689396 0.0689511
vt 0.0689396 0.482588
vt 0 0.413649
vt 0 1.17532e-05
vt 0.413637 1.17532e-05
vt 0 0.557871
vt 0.413637 0.557871
vt 0.413637 0.971508
vt 0.482576 0.902568
vt 0.482576 0.488932
vt 0.0689396 0.488932
vt 0.488886 0
vt 0.902523 0
vt 0.488886 0.229735
vt 0.902523 0.229735
vt 0.488868 0.45947
vt 0.586363 0.45947
vt 1 0.45947
vt 0.488868 0.689205
vt 0.902505 0.689205
vt 1 0.689205
vt 0.488886 0.223415
vt 0.902523 0.223415
vt 0.488886 0.45315
vt 0.902523 0.45315
vt 0.488868 0.682885
vt 0.586363 0.682885
vt 1 0.682885
vt 0.488868 0.91262
vt 0.902505 0.91262
vt 1 0.91262
vt 0.695704 0.111708
vt 0.695704 0.341442
vt 0.537615 0.571177
vt 0.793182 0.571177
vt 0.695686 0.800912
vt 0.951252 0.800912


# Vertex Surface Normals: 
vn 0 0 1
vn 0 0 -1
vn 0 1 0
vn 0 1 0
vn 0 1 0
vn 0 1 0
vn 0 1 0
vn 1 0 0
vn 1 0 0
vn 1 0 0
vn 1 0 0
vn 1 0 0
vn -0.707107 0.707107 0
vn -0.707107 0.707107 -9.12194e-17
vn -0.92388 0.382683 -4.93676e-17
vn -0.92388 0.382683 4.93676e-17
vn -0.707107 0.707107 9.12194e-17
vn -1 0 0
vn -1 0 0
vn -1 0 0
vn 0 -1 0
vn 0 -1 0
vn 0.382683 -0.92388 4.93677e-17
vn 0.382683 -0.92388 -4.93677e-17
vn 0 -1 0
vn 0.707105 -0.707108 0
vn 0.707105 -0.707108 9.12197e-17
vn 0.707105 -0.707108 -9.12197e-17


# Faces: 
usemtl material0
f 11/5/1 8/2/1 10/4/1
f 8/2/1 11/5/1 12/6/1
f 10/4/1 8/2/1 9/3/1
f 7/1/1 8/2/1 12/6/1
f 2/8/2 5/11/2 4/10/2
f 5/11/2 2/8/2 6/12/2
f 2/8/2 4/10/2 3/9/2
f 2/8/2 1/7/2 6/12/2
f 13/33/3 1/13/4 2/14/5
f 13/33/3 2/14/5 8/24/6
f 13/33/3 8/24/6 7/23/7
f 13/33/3 7/23/7 1/13/4
f 14/34/8 2/15/9 3/16/10
f 14/34/8 3/16/10 9/26/11
f 14/34/8 9/26/11 8/25/12
f 14/34/8 8/25/12 2/15/9
f 15/35/13 3/17/14 4/18/15
f 15/35/13 4/18/15 10/28/16
f 15/35/13 10/28/16 9/27/17
f 15/35/13 9/27/17 3/17/14
f 16/36/18 4/18/15 5/19/19
f 16/36/18 5/19/19 11/29/20
f 16/36/18 11/29/20 10/28/16
f 16/36/18 10/28/16 4/18/15
f 17/37/21 5/20/22 6/21/23
f 17/37/21 6/21/23 12/31/24
f 17/37/21 12/31/24 11/30/25
f 17/37/21 11/30/25 5/20/22
f 18/38/26 6/21/23 1/22/27
f 18/38/26 1/22/27 7/32/28
f 18/38/26 7/32/28 12/31/24
f 18/38/26 12/31/24 6/21/23

# Vertex Positions: 
g groupNumber_1
v 2.17851 -2.17851 -0.8825
v 2.17851 2.17851 -0.8825
v -1.08926 2.17851 -0.8825
v -1.63389 1.63389 -0.8825
v 1.63389 1.63389 -0.8825
v 1.63389 -0.863539 -0.8825
v 0.544629 0.225719 -0.8825
v 0.544629 -0.544628 -0.8825
v 2.17851 -2.17851 0.8825
v 2.17851 2.17851 0.8825
v -1.08926 2.17851 0.8825
v -1.63389 1.63389 0.8825
v 1.63389 1.63389 0.8825
v 1.63389 -0.863539 0.8825
v 0.544629 0.225719 0.8825
v 0.544629 -0.544628 0.8825
v 2.17851 0 0
v 0.544628 2.17851 0
v -1.36157 1.9062 0
v 7.54063e-11 1.63389 0
v 1.63389 0.385174 0
v 1.08926 -0.31891 0
v 0.544629 -0.159454 0
v 1.36157 -1.36157 0


# Vertex Texture Coordinates :
vt 0.421397 0
vt 0.421397 0.481597
vt 0.0601995 0.481597
vt 0 0.421397
vt 0.361198 0.421397
vt 0.361198 0.145349
vt 0.240799 0.265748
vt 0.240799 0.180599
vt 0 0.487476
vt 0 0.969073
vt 0.361198 0.969073
vt 0.421397 0.908873
vt 0.0601997 0.908873
vt 0.0601997 0.632824
vt 0.180599 0.753224
vt 0.180599 0.668075
vt 0.427335 4.35128e-05
vt 0.908932 4.35128e-05
vt 0.427394 0.201101
vt 0.788592 0.201101
vt 0.914865 4.35128e-05
vt 1 4.35128e-05
vt 0.427394 0.402158
vt 0.788591 0.402158
vt 0.427346 0.603215
vt 0.703395 0.603215
vt 0.794579 0.201101
vt 0.964849 0.201101
vt 0.427369 0.804273
vt 0.512518 0.804273
vt 0.767923 0.804273
vt 0.427335 0.195135
vt 0.908932 0.195135
vt 0.427394 0.396192
vt 0.788592 0.396192
vt 0.914865 0.195135
vt 1 0.195135
vt 0.427394 0.597249
vt 0.788591 0.597249
vt 0.427346 0.798307
vt 0.703395 0.798307
vt 0.794579 0.396192
vt 0.964849 0.396192
vt 0.427369 0.999364
vt 0.512518 0.999364
vt 0.767923 0.999364
vt 0.668133 0.0975892
vt 0.607993 0.298647
vt 0.957433 0.0975892
vt 0.607993 0.499704
vt 0.565371 0.700761
vt 0.879714 0.298647
vt 0.469943 0.901818
vt 0.64022 0.901818


# Vertex Surface Normals: 
vn 0 0 1
vn 0 0 -1
vn 1 0 0
vn 1 0 0
vn 1 0 0
vn 1 0 0
vn 1 0 0
vn 0 1 0
vn 0 1 0
vn 0 1 0
vn 0 1 0
vn 0 1 0
vn -0.707107 0.707107 0
vn -0.707107 0.707107 0
vn -0.707107 0.707107 0
vn -0.707107 0.707107 0
vn -0.707107 0.707107 0
vn 0 -1 0
vn 0 -1 0
vn 0 -1 0
vn 0 -1 0
vn 0 -1 0
vn -1 0 0
vn -1 0 0
vn -1 0 0
vn -1 0 0
vn -1 0 0
vn 0.707107 0.707106 0
vn 0.707107 0.707106 5.18631e-17
vn 0.707107 0.707106 5.18631e-17
vn 0.707107 0.707106 -5.18631e-17
vn 0.707107 0.707106 -5.18631e-17
vn -1 0 0
vn -1 0 0
vn -0.92388 -0.382683 -1.43056e-17
vn -0.92388 -0.382683 1.43056e-17
vn -1 0 0
vn -0.707107 -0.707107 0
vn -0.707107 -0.707107 -2.64334e-17
vn -0.707107 -0.707107 2.64334e-17


# Faces: 
usemtl material1
f 33/45/29 34/46/29 32/44/29
f 31/43/29 29/41/29 30/42/29
f 32/44/29 27/39/29 28/40/29
f 27/39/29 32/44/29 34/46/29
f 31/43/29 28/40/29 29/41/29
f 28/40/29 31/43/29 32/44/29
f 26/54/30 25/53/30 24/52/30
f 21/49/30 23/51/30 22/50/30
f 19/47/30 24/52/30 20/48/30
f 24/52/30 19/47/30 26/54/30
f 20/48/30 23/51/30 21/49/30
f 23/51/30 20/48/30 24/52/30
f 35/85/31 19/55/32 20/56/33
f 35/85/31 20/56/33 28/71/34
f 35/85/31 28/71/34 27/70/35
f 35/85/31 27/70/35 19/55/32
f 36/86/36 20/57/37 21/58/38
f 36/86/36 21/58/38 29/73/39
f 36/86/36 29/73/39 28/72/40
f 36/86/36 28/72/40 20/57/37
f 37/87/41 21/59/42 22/60/43
f 37/87/41 22/60/43 30/75/44
f 37/87/41 30/75/44 29/74/45
f 37/87/41 29/74/45 21/59/42
f 38/88/46 22/61/47 23/62/48
f 38/88/46 23/62/48 31/77/49
f 38/88/46 31/77/49 30/76/50
f 38/88/46 30/76/50 22/61/47
f 39/89/51 23/63/52 24/64/53
f 39/89/51 24/64/53 32/79/54
f 39/89/51 32/79/54 31/78/55
f 39/89/51 31/78/55 23/63/52
f 40/90/56 24/65/57 25/66/58
f 40/90/56 25/66/58 33/81/59
f 40/90/56 33/81/59 32/80/60
f 40/90/56 32/80/60 24/65/57
f 41/91/61 25/67/62 26/68/63
f 41/91/61 26/68/63 34/83/64
f 41/91/61 34/83/64 33/82/65
f 41/91/61 33/82/65 25/67/62
f 42/92/66 26/68/63 19/69/67
f 42/92/66 19/69/67 27/84/68
f 42/92/66 27/84/68 34/83/64
f 42/92/66 34/83/64 26/68/63
