mtllib èµ„æº 24.mtl
# Vertex Positions: 
g groupNumber_0
v -1.63389 -2.17851 -0.8825
v -1.63389 2.17851 -0.8825
v -2.17851 2.17851 -0.8825
v -2.17851 -2.17851 -0.8825
v -1.63389 -2.17851 0.8825
v -1.63389 2.17851 0.8825
v -2.17851 2.17851 0.8825
v -2.17851 -2.17851 0.8825
v -1.63389 -1.77636e-15 0
v -1.9062 2.17851 0
v -2.17851 -1.77636e-15 0
v -1.9062 -2.17851 0


# Vertex Texture Coordinates :
vt 0.0885201 0
vt 0.0885201 0.70816
vt 0 0.70816
vt 0 0
vt 0.0973375 0
vt 0.0973375 0.70816
vt 0.185858 0.70816
vt 0.185858 0
vt 0.194589 6.40539e-05
vt 0.902749 6.40539e-05
vt 0.91148 6.40539e-05
vt 1 6.40539e-05
vt 0.194589 0.295707
vt 0.902749 0.295707
vt 0.91148 0.295707
vt 1 0.295707
vt 0.194589 0.286935
vt 0.902749 0.286935
vt 0.91148 0.286935
vt 1 0.286935
vt 0.194589 0.582578
vt 0.902749 0.582578
vt 0.91148 0.582578
vt 1 0.582578
vt 0.548669 0.143499
vt 0.95574 0.143499
vt 0.548669 0.439142
vt 0.95574 0.439142


# Vertex Surface Normals: 
vn 0 0 1
vn 0 0 -1
vn 1 0 0
vn 1 0 0
vn 1 0 0
vn 1 0 0
vn 1 0 0
vn 0 1 0
vn 0 1 0
vn 0 1 0
vn 0 1 0
vn 0 1 0
vn -1 0 0
vn -1 0 0
vn -1 0 0
vn -1 0 0
vn -1 0 0
vn 0 -1 0
vn 0 -1 0
vn 0 -1 0
vn 0 -1 0
vn 0 -1 0


# Faces: 
usemtl material0
f 7/3/1 8/4/1 5/1/1
f 5/1/1 6/2/1 7/3/1
f 4/8/2 3/7/2 1/5/2
f 2/6/2 1/5/2 3/7/2
f 9/25/3 1/9/4 2/10/5
f 9/25/3 2/10/5 6/18/6
f 9/25/3 6/18/6 5/17/7
f 9/25/3 5/17/7 1/9/4
f 10/26/8 2/11/9 3/12/10
f 10/26/8 3/12/10 7/20/11
f 10/26/8 7/20/11 6/19/12
f 10/26/8 6/19/12 2/11/9
f 11/27/13 3/13/14 4/14/15
f 11/27/13 4/14/15 8/22/16
f 11/27/13 8/22/16 7/21/17
f 11/27/13 7/21/17 3/13/14
f 12/28/18 4/15/19 1/16/20
f 12/28/18 1/16/20 5/24/21
f 12/28/18 5/24/21 8/23/22
f 12/28/18 8/23/22 4/15/19

# Vertex Positions: 
g groupNumber_1
v 2.17851 0.86354 -0.8825
v 2.17851 2.17851 -0.8825
v 1.63389 2.17851 -0.8825
v 1.63389 1.08926 -0.8825
v -1.63389 -2.17851 -0.8825
v -0.863538 -2.17851 -0.8825
v 1.63389 0.318911 -0.8825
v 2.17851 0.86354 0.8825
v 2.17851 2.17851 0.8825
v 1.63389 2.17851 0.8825
v 1.63389 1.08926 0.8825
v -1.63389 -2.17851 0.8825
v -0.863538 -2.17851 0.8825
v 1.63389 0.318911 0.8825
v 2.17851 1.52103 -3.33067e-16
v 1.9062 2.17851 -3.33067e-16
v 1.63389 1.63389 -3.33067e-16
v -5.07228e-10 -0.544629 -3.33067e-16
v -1.24871 -2.17851 -3.33067e-16
v 0.385174 -0.929802 -3.33067e-16
v 1.9062 0.591225 -3.33067e-16


# Vertex Texture Coordinates :
vt 0.397413 0.317171
vt 0.397413 0.454247
vt 0.34064 0.454247
vt 0.34064 0.3407
vt 0 6.02525e-05
vt 0.0803027 6.02525e-05
vt 0.34064 0.260397
vt 0 0.778748
vt 0 0.915824
vt 0.0567734 0.915824
vt 0.0567734 0.802278
vt 0.397413 0.461638
vt 0.31711 0.461638
vt 0.0567734 0.721975
vt 0.404775 0
vt 0.541851 0
vt 0.549203 0
vt 0.605976 0
vt 0.404716 0.191258
vt 0.518263 0.191258
vt 1 0.191258
vt 0.613302 0
vt 0.693605 0
vt 0.404734 0.382516
vt 0.772906 0.382516
vt 0.853196 0.382516
vt 0.404775 0.183988
vt 0.541851 0.183988
vt 0.549203 0.183988
vt 0.605976 0.183988
vt 0.404716 0.375246
vt 0.518263 0.375246
vt 1 0.375246
vt 0.613302 0.183988
vt 0.693605 0.183988
vt 0.404734 0.566504
vt 0.772906 0.566504
vt 0.853196 0.566504
vt 0.473313 0.0919938
vt 0.57759 0.0919938
vt 0.461489 0.283252
vt 0.759131 0.283252
vt 0.653453 0.0919938
vt 0.58882 0.47451
vt 0.813051 0.47451


# Vertex Surface Normals: 
vn 0 0 1
vn 0 0 -1
vn 1 0 0
vn 0.92388 -0.382683 -2.77514e-17
vn 1 0 0
vn 1 0 0
vn 0.92388 -0.382683 2.77514e-17
vn 0 1 0
vn 0 1 0
vn 0 1 0
vn 0 1 0
vn 0 1 0
vn -1 0 0
vn -1 0 0
vn -0.92388 0.382683 0
vn -0.92388 0.382683 0
vn -1 0 0
vn -0.707107 0.707107 0
vn -0.707107 0.707107 0
vn -0.707107 0.707107 0
vn 0 -1 0
vn 0 -1 0
vn 0 -1 0
vn 0 -1 0
vn 0 -1 0
vn 0.707107 -0.707106 0
vn 0.707107 -0.707106 0
vn 0.707107 -0.707107 -2.5639e-17
vn 0.707107 -0.707107 2.5639e-17
vn 0.707107 -0.707106 0
vn 0.707107 -0.707107 0


# Faces: 
usemtl material1
f 24/33/23 25/34/23 26/35/23
f 24/33/23 26/35/23 23/32/23
f 23/32/23 20/29/23 21/30/23
f 20/29/23 23/32/23 26/35/23
f 21/30/23 22/31/23 23/32/23
f 18/41/24 17/40/24 19/42/24
f 19/42/24 17/40/24 16/39/24
f 13/36/24 16/39/24 14/37/24
f 16/39/24 13/36/24 19/42/24
f 15/38/24 14/37/24 16/39/24
f 27/67/25 13/43/26 14/44/27
f 27/67/25 14/44/27 21/56/28
f 27/67/25 21/56/28 20/55/29
f 27/67/25 20/55/29 13/43/26
f 28/68/30 14/45/31 15/46/32
f 28/68/30 15/46/32 22/58/33
f 28/68/30 22/58/33 21/57/34
f 28/68/30 21/57/34 14/45/31
f 29/69/35 15/47/36 16/48/37
f 29/69/35 16/48/37 23/60/38
f 29/69/35 23/60/38 22/59/39
f 29/69/35 22/59/39 15/47/36
f 30/70/40 16/48/37 17/49/41
f 30/70/40 17/49/41 24/61/42
f 30/70/40 24/61/42 23/60/38
f 30/70/40 23/60/38 16/48/37
f 31/71/43 17/50/44 18/51/45
f 31/71/43 18/51/45 25/63/46
f 31/71/43 25/63/46 24/62/47
f 31/71/43 24/62/47 17/50/44
f 32/72/48 18/52/49 19/53/50
f 32/72/48 19/53/50 26/65/51
f 32/72/48 26/65/51 25/64/52
f 32/72/48 25/64/52 18/52/49
f 33/73/53 19/53/50 13/54/26
f 33/73/53 13/54/26 20/66/29
f 33/73/53 20/66/29 26/65/51
f 33/73/53 26/65/51 19/53/50
