mtllib èµ„æº 25.mtl
# Vertex Positions: 
g groupNumber_0
v 2.17851 2.17609 -0.8825
v 1.41089 2.17851 -0.8825
v -1.63388 -0.866261 -0.8825
v -1.63388 2.17851 -0.8825
v -2.17851 2.17851 -0.8825
v -2.17851 -2.17851 -0.8825
v 2.17851 2.17609 0.8825
v 1.41089 2.17851 0.8825
v -1.63388 -0.866261 0.8825
v -1.63388 2.17851 0.8825
v -2.17851 2.17851 0.8825
v -2.17851 -2.17851 0.8825
v 1.7947 2.1773 0
v -0.111495 0.656127 0
v -1.63388 0.656127 0
v -1.9062 2.17851 0
v -2.17851 0 0
v 0 -0.00121085 0


# Vertex Texture Coordinates :
vt 0.40982 0.409606
vt 0.337622 0.409833
vt 0.0512463 0.123458
vt 0.0512463 0.409833
vt 2.13298e-05 0.409833
vt 2.13298e-05 3.42731e-05
vt 2.13298e-05 0.826602
vt 0.0722196 0.82683
vt 0.358595 0.540455
vt 0.358595 0.82683
vt 0.40982 0.82683
vt 0.40982 0.417031
vt 0 0.833993
vt 0.0721986 0.833993
vt 0.417015 0
vt 0.822011 0
vt 0.0793436 0.833993
vt 0.365719 0.833993
vt 0.829204 0
vt 0.880429 0
vt 0.417018 0.173136
vt 0.826817 0.173136
vt 0.416955 0.346271
vt 0.996338 0.346271
vt 0 1
vt 0.0721986 1
vt 0.417015 0.166007
vt 0.822011 0.166007
vt 0.0793436 1
vt 0.365719 1
vt 0.829204 0.166007
vt 0.880429 0.166007
vt 0.417018 0.339142
vt 0.826817 0.339142
vt 0.416955 0.512278
vt 0.996338 0.512278
vt 0.0360993 0.916997
vt 0.619513 0.0830033
vt 0.222531 0.916997
vt 0.854816 0.0830033
vt 0.621917 0.256139
vt 0.706646 0.429275


# Vertex Surface Normals: 
vn 0 0 1
vn 0 0 -1
vn 0.00315481 0.999995 0
vn 0.00315481 0.999995 0
vn 0.00315481 0.999995 0
vn 0.00315481 0.999995 0
vn 0.00315481 0.999995 0
vn -0.707107 0.707107 0
vn -0.707107 0.707107 0
vn -0.707107 0.707107 0
vn -0.707107 0.707107 0
vn -0.707107 0.707107 0
vn 1 0 0
vn 1 0 0
vn 1 0 0
vn 1 0 0
vn 1 0 0
vn 0 1 0
vn 0 1 0
vn 0 1 0
vn 0 1 0
vn 0 1 0
vn -1 0 0
vn -1 0 0
vn -1 0 0
vn -1 0 0
vn -1 0 0
vn 0.70691 -0.707303 0
vn 0.70691 -0.707303 0
vn 0.70691 -0.707303 0
vn 0.70691 -0.707303 0
vn 0.70691 -0.707303 0


# Faces: 
usemtl material0
f 12/6/1 9/3/1 11/5/1
f 9/3/1 12/6/1 7/1/1
f 11/5/1 9/3/1 10/4/1
f 8/2/1 9/3/1 7/1/1
f 3/9/2 6/12/2 5/11/2
f 6/12/2 3/9/2 1/7/2
f 3/9/2 5/11/2 4/10/2
f 3/9/2 2/8/2 1/7/2
f 13/37/3 1/13/4 2/14/5
f 13/37/3 2/14/5 8/26/6
f 13/37/3 8/26/6 7/25/7
f 13/37/3 7/25/7 1/13/4
f 14/38/8 2/15/9 3/16/10
f 14/38/8 3/16/10 9/28/11
f 14/38/8 9/28/11 8/27/12
f 14/38/8 8/27/12 2/15/9
f 15/39/13 3/17/14 4/18/15
f 15/39/13 4/18/15 10/30/16
f 15/39/13 10/30/16 9/29/17
f 15/39/13 9/29/17 3/17/14
f 16/40/18 4/19/19 5/20/20
f 16/40/18 5/20/20 11/32/21
f 16/40/18 11/32/21 10/31/22
f 16/40/18 10/31/22 4/19/19
f 17/41/23 5/21/24 6/22/25
f 17/41/23 6/22/25 12/34/26
f 17/41/23 12/34/26 11/33/27
f 17/41/23 11/33/27 5/21/24
f 18/42/28 6/23/29 1/24/30
f 18/42/28 1/24/30 7/36/31
f 18/42/28 7/36/31 12/35/32
f 18/42/28 12/35/32 6/23/29
