mtllib èµ„æº 27.mtl
# Vertex Positions: 
g groupNumber_0
v 2.17851 1.40817 -0.8825
v 2.17851 2.17851 -0.8825
v -2.1552e-06 0 -0.8825
v 2.17851 -2.17851 -0.8825
v 2.17851 -1.40817 -0.8825
v 0.770345 0 -0.8825
v 2.17851 1.40817 0.8825
v 2.17851 2.17851 0.8825
v -2.1552e-06 0 0.8825
v 2.17851 -2.17851 0.8825
v 2.17851 -1.40817 0.8825
v 0.770345 0 0.8825
v 2.17851 1.79334 0
v 1.08926 1.08926 0
v 1.08926 -1.08926 0
v 2.17851 -1.79334 0
v 1.47443 -0.704084 0
v 1.47443 0.704085 0


# Vertex Texture Coordinates :
vt 0.288698 0.475287
vt 0.288698 0.577369
vt 1.35341e-05 0.288684
vt 0.288698 0
vt 0.288698 0.102082
vt 0.102096 0.288684
vt 0.295887 0.475287
vt 0.295887 0.577369
vt 0.584572 0.288684
vt 0.295887 0
vt 0.295887 0.102082
vt 0.482489 0.288684
vt 0 0.584469
vt 0.102082 0.584469
vt 0.591738 5.22237e-05
vt 1 5.22237e-05
vt 0.591738 0.241092
vt 1 0.241092
vt 0.109243 0.584469
vt 0.211325 0.584469
vt 0.295877 0.584469
vt 0.559773 0.584469
vt 0.59175 0.482133
vt 0.855646 0.482133
vt 0 0.818357
vt 0.102082 0.818357
vt 0.591738 0.23394
vt 1 0.23394
vt 0.591738 0.47498
vt 1 0.47498
vt 0.109243 0.818357
vt 0.211325 0.818357
vt 0.295877 0.818357
vt 0.559773 0.818357
vt 0.59175 0.71602
vt 0.855646 0.71602
vt 0.0510409 0.701413
vt 0.795869 0.116996
vt 0.795869 0.358036
vt 0.160284 0.701413
vt 0.427825 0.701413
vt 0.723698 0.599077


# Vertex Surface Normals: 
vn 0 0 1
vn 0 0 -1
vn 1 0 0
vn 0.92388 -0.382683 0
vn 1 0 0
vn 1 0 0
vn 0.92388 -0.382683 0
vn -0.707106 0.707107 0
vn -0.707106 0.707107 0
vn -0.707106 0.707107 0
vn -0.707106 0.707107 0
vn -0.707106 0.707107 0
vn -0.707106 -0.707107 0
vn -0.707106 -0.707107 -5.65918e-17
vn -0.707106 -0.707107 -5.65918e-17
vn -0.707106 -0.707107 5.65918e-17
vn -0.707106 -0.707107 5.65918e-17
vn 1 0 0
vn 1 0 0
vn 1 0 0
vn 1 0 0
vn 1 0 0
vn 0.707106 0.707107 0
vn 0.707106 0.707107 0
vn 0.707106 0.707107 0
vn 0.707106 0.707107 0
vn 0.707106 0.707107 0
vn 0.707107 -0.707107 0
vn 0.707107 -0.707107 0
vn 0.707107 -0.707107 0


# Faces: 
usemtl material0
f 9/3/1 10/4/1 12/6/1
f 12/6/1 10/4/1 11/5/1
f 9/3/1 12/6/1 8/2/1
f 7/1/1 8/2/1 12/6/1
f 4/10/2 3/9/2 6/12/2
f 4/10/2 6/12/2 5/11/2
f 6/12/2 3/9/2 2/8/2
f 2/8/2 1/7/2 6/12/2
f 13/37/3 1/13/4 2/14/5
f 13/37/3 2/14/5 8/26/6
f 13/37/3 8/26/6 7/25/7
f 13/37/3 7/25/7 1/13/4
f 14/38/8 2/15/9 3/16/10
f 14/38/8 3/16/10 9/28/11
f 14/38/8 9/28/11 8/27/12
f 14/38/8 8/27/12 2/15/9
f 15/39/13 3/17/14 4/18/15
f 15/39/13 4/18/15 10/30/16
f 15/39/13 10/30/16 9/29/17
f 15/39/13 9/29/17 3/17/14
f 16/40/18 4/19/19 5/20/20
f 16/40/18 5/20/20 11/32/21
f 16/40/18 11/32/21 10/31/22
f 16/40/18 10/31/22 4/19/19
f 17/41/23 5/21/24 6/22/25
f 17/41/23 6/22/25 12/34/26
f 17/41/23 12/34/26 11/33/27
f 17/41/23 11/33/27 5/21/24
f 18/42/28 6/23/29 1/24/4
f 18/42/28 1/24/4 7/36/7
f 18/42/28 7/36/7 12/35/30
f 18/42/28 12/35/30 6/23/29

# Vertex Positions: 
g groupNumber_1
v -2.17851 -2.17851 -0.8825
v -2.15418e-06 1.77636e-15 -0.8825
v -0.182755 0.182755 -0.8825
v -0.385174 0.385174 -0.8825
v -2.17851 2.17851 -0.8825
v -2.17851 1.40817 -0.8825
v -0.770345 1.77636e-15 -0.8825
v -2.17851 -1.40817 -0.8825
v -2.17851 -2.17851 0.8825
v -2.15418e-06 1.77636e-15 0.8825
v -0.182755 0.182755 0.8825
v -0.385174 0.385174 0.8825
v -2.17851 2.17851 0.8825
v -2.17851 1.40817 0.8825
v -0.770345 1.77636e-15 0.8825
v -2.17851 -1.40817 0.8825
v -1.08926 -1.08926 -2.22045e-16
v -0.0913784 0.0913773 -2.22045e-16
v -0.283964 0.283964 -2.22045e-16
v -1.28184 1.28184 -2.22045e-16
v -2.17851 1.79334 -2.22045e-16
v -1.47443 0.704085 -2.22045e-16
v -1.47443 -0.704084 -2.22045e-16
v -2.17851 -1.79334 -2.22045e-16


# Vertex Texture Coordinates :
vt 0 0
vt 0.288749 0.28875
vt 0.264526 0.312973
vt 0.237697 0.339802
vt 0 0.577499
vt 0 0.475394
vt 0.186645 0.28875
vt 0 0.102105
vt 0.584548 0
vt 0.295799 0.28875
vt 0.320022 0.312973
vt 0.346851 0.339802
vt 0.584548 0.577499
vt 0.584548 0.475394
vt 0.397904 0.28875
vt 0.584548 0.102105
vt 0.591647 5.22355e-05
vt 1 5.22355e-05
vt 0.591647 0.241147
vt 0.625903 0.241147
vt 0.663846 0.241147
vt 1 0.241147
vt 0.591645 0.482241
vt 0.693749 0.482241
vt 0.957705 0.482241
vt 0.591658 0.723336
vt 0.855614 0.723336
vt 0.86278 0.723336
vt 0.964885 0.723336
vt 0.591647 0.233993
vt 1 0.233993
vt 0.591647 0.475087
vt 0.625903 0.475087
vt 0.663846 0.475087
vt 1 0.475087
vt 0.591645 0.716182
vt 0.693749 0.716182
vt 0.957705 0.716182
vt 0.591658 0.957276
vt 0.855614 0.957276
vt 0.86278 0.957276
vt 0.964885 0.957276
vt 0.795823 0.117023
vt 0.608775 0.358117
vt 0.644874 0.358117
vt 0.831923 0.358117
vt 0.642697 0.599212
vt 0.825727 0.599212
vt 0.723636 0.840306
vt 0.913833 0.840306


# Vertex Surface Normals: 
vn 0 0 1
vn 0 0 -1
vn 0.707107 -0.707106 0
vn 0.707107 -0.707106 0
vn 0.707107 -0.707106 0
vn 0.707107 -0.707106 0
vn 0.707107 -0.707106 0
vn 0.707111 0.707103 0
vn 0.707111 0.707103 5.20425e-17
vn 0.707109 0.707105 2.36973e-17
vn 0.707109 0.707105 -2.36973e-17
vn 0.707111 0.707103 -5.20425e-17
vn 0.707107 0.707107 0
vn 0.707107 0.707107 1.21538e-17
vn 0.707107 0.707107 -1.21538e-17
vn 0.707107 0.707107 0
vn 0.707107 0.707107 2.89555e-17
vn 0.707107 0.707107 -2.89555e-17
vn -1 0 0
vn -1 0 0
vn -0.92388 -0.382683 0
vn -0.92388 -0.382683 0
vn -1 0 0
vn -0.707107 -0.707107 0
vn -0.707107 -0.707107 0
vn -0.707107 -0.707107 0
vn -0.707106 0.707107 0
vn -0.707106 0.707107 0
vn -0.707106 0.707107 0
vn -0.707106 0.707107 0
vn -0.707106 0.707107 0
vn -1 0 0
vn -1 0 0
vn -1 0 0
vn -1 0 0
vn -1 0 0


# Faces: 
usemtl material1
f 34/50/31 27/43/31 33/49/31
f 31/47/31 32/48/31 30/46/31
f 33/49/31 28/44/31 29/45/31
f 28/44/31 33/49/31 27/43/31
f 29/45/31 30/46/31 33/49/31
f 33/49/31 30/46/31 32/48/31
f 19/51/32 26/58/32 25/57/32
f 24/56/32 23/55/32 22/54/32
f 20/52/32 25/57/32 21/53/32
f 25/57/32 20/52/32 19/51/32
f 22/54/32 21/53/32 25/57/32
f 22/54/32 25/57/32 24/56/32
f 35/85/33 19/59/34 20/60/35
f 35/85/33 20/60/35 28/73/36
f 35/85/33 28/73/36 27/72/37
f 35/85/33 27/72/37 19/59/34
f 36/86/38 20/61/39 21/62/40
f 36/86/38 21/62/40 29/75/41
f 36/86/38 29/75/41 28/74/42
f 36/86/38 28/74/42 20/61/39
f 37/87/43 21/62/40 22/63/44
f 37/87/43 22/63/44 30/76/45
f 37/87/43 30/76/45 29/75/41
f 37/87/43 29/75/41 21/62/40
f 38/88/46 22/63/44 23/64/47
f 38/88/46 23/64/47 31/77/48
f 38/88/46 31/77/48 30/76/45
f 38/88/46 30/76/45 22/63/44
f 39/89/49 23/65/50 24/66/51
f 39/89/49 24/66/51 32/79/52
f 39/89/49 32/79/52 31/78/53
f 39/89/49 31/78/53 23/65/50
f 40/90/54 24/66/51 25/67/55
f 40/90/54 25/67/55 33/80/56
f 40/90/54 33/80/56 32/79/52
f 40/90/54 32/79/52 24/66/51
f 41/91/57 25/68/58 26/69/59
f 41/91/57 26/69/59 34/82/60
f 41/91/57 34/82/60 33/81/61
f 41/91/57 33/81/61 25/68/58
f 42/92/62 26/70/63 19/71/64
f 42/92/62 19/71/64 27/84/65
f 42/92/62 27/84/65 34/83/66
f 42/92/62 34/83/66 26/70/63
