mtllib èµ„æº 28.mtl
# Vertex Positions: 
g groupNumber_0
v -0.00030379 0.770349 -0.8825
v -0.272315 1.04266 -0.8825
v -1.40817 2.17851 -0.8825
v -2.17851 2.17851 -0.8825
v -0.770348 0.770349 -0.8825
v -0.00030379 0.770349 0.8825
v -0.272315 1.04266 0.8825
v -1.40817 2.17851 0.8825
v -2.17851 2.17851 0.8825
v -0.770348 0.770349 0.8825
v -0.136309 0.906505 0
v -0.840241 1.61059 0
v -1.79334 2.17851 0
v -1.47443 1.47443 0
v -0.385326 0.770349 0


# Vertex Texture Coordinates :
vt 0.436396 0
vt 0.381899 0.0545567
vt 0.154336 0.28212
vt 0 0.28212
vt 0.282121 0
vt 0.441723 0
vt 0.496219 0.0545567
vt 0.723782 0.28212
vt 0.878118 0.28212
vt 0.595998 0
vt 3.20462e-05 0.28745
vt 0.0771441 0.28745
vt 0.398967 0.28745
vt 2.16195e-05 0.646389
vt 0.154358 0.646389
vt 0.404337 0.28745
vt 0.803316 0.28745
vt 0.808705 0.28745
vt 0.96298 0.28745
vt 3.20462e-05 0.64106
vt 0.0771441 0.64106
vt 0.398967 0.64106
vt 2.16195e-05 1
vt 0.154358 1
vt 0.404337 0.64106
vt 0.803316 0.64106
vt 0.808705 0.64106
vt 0.96298 0.64106
vt 0.0385881 0.464255
vt 0.238056 0.464255
vt 0.0771896 0.823195
vt 0.603826 0.464255
vt 0.885843 0.464255


# Vertex Surface Normals: 
vn 0 0 1
vn 0 0 -1
vn 0.707499 0.706715 0
vn 0.707499 0.706715 0
vn 0.707303 0.706911 0
vn 0.707303 0.706911 0
vn 0.707499 0.706715 0
vn 0.707107 0.707107 0
vn 0.382683 0.92388 0
vn 0.382683 0.92388 0
vn 0 1 0
vn 0 1 0
vn 0 1 0
vn -0.707106 -0.707107 0
vn -0.707106 -0.707107 0
vn -0.382683 -0.92388 0
vn -0.382683 -0.92388 0
vn -0.707106 -0.707107 0
vn 0 -1 0
vn 0 -1 0
vn 0 -1 0


# Faces: 
usemtl material0
f 8/3/1 9/4/1 10/5/1
f 10/5/1 6/1/1 7/2/1
f 10/5/1 7/2/1 8/3/1
f 4/9/2 3/8/2 5/10/2
f 1/6/2 5/10/2 2/7/2
f 2/7/2 5/10/2 3/8/2
f 11/29/3 1/11/4 2/12/5
f 11/29/3 2/12/5 7/21/6
f 11/29/3 7/21/6 6/20/7
f 11/29/3 6/20/7 1/11/4
f 12/30/8 2/12/5 3/13/9
f 12/30/8 3/13/9 8/22/10
f 12/30/8 8/22/10 7/21/6
f 12/30/8 7/21/6 2/12/5
f 13/31/11 3/14/9 4/15/12
f 13/31/11 4/15/12 9/24/13
f 13/31/11 9/24/13 8/23/10
f 13/31/11 8/23/10 3/14/9
f 14/32/14 4/16/15 5/17/16
f 14/32/14 5/17/16 10/26/17
f 14/32/14 10/26/17 9/25/18
f 14/32/14 9/25/18 4/16/15
f 15/33/19 5/18/16 1/19/20
f 15/33/19 1/19/20 6/28/21
f 15/33/19 6/28/21 10/27/17
f 15/33/19 10/27/17 5/18/16

# Vertex Positions: 
g groupNumber_1
v 2.17851 2.17851 -0.8825
v 1.40817 2.17851 -0.8825
v -5.88024e-10 0.770349 -0.8825
v -0.272315 0.49773 -0.8825
v -0.272315 -2.17851 -0.8825
v 0.272315 -1.63389 -0.8825
v 0.272315 0.272314 -0.8825
v 0.385172 0.385175 -0.8825
v 2.17851 2.17851 0.8825
v 1.40817 2.17851 0.8825
v -5.88024e-10 0.770349 0.8825
v -0.272315 0.49773 0.8825
v -0.272315 -2.17851 0.8825
v 0.272315 -1.63389 0.8825
v 0.272315 0.272314 0.8825
v 0.385172 0.385175 0.8825
v 1.79334 2.17851 0
v 0.704084 1.47443 0
v -0.136157 0.634039 0
v -0.272315 -0.840392 0
v -5.88024e-10 -1.9062 0
v 0.272315 -0.680787 0
v 0.328743 0.328744 0
v 1.28184 1.28184 0


# Vertex Texture Coordinates :
vt 0.278957 0.495923
vt 0.191275 0.495923
vt 0.0309953 0.335644
vt 0 0.304614
vt 0 0
vt 0.0619905 0.0619903
vt 0.0619905 0.278957
vt 0.0748361 0.291803
vt 0 1
vt 0.0876821 1
vt 0.247962 0.839721
vt 0.278957 0.808691
vt 0.278957 0.504077
vt 0.216967 0.566067
vt 0.216967 0.783033
vt 0.204121 0.795879
vt 0.287061 1.31874e-05
vt 0.374743 1.31874e-05
vt 0.601412 1.31874e-05
vt 0.645271 1.31874e-05
vt 0.949885 1.31874e-05
vt 0.287081 0.209088
vt 0.374748 0.209088
vt 0.382867 0.209088
vt 0.599834 0.209088
vt 0.618 0.209088
vt 0.906671 0.209088
vt 0.287061 0.200908
vt 0.374743 0.200908
vt 0.601412 0.200908
vt 0.645271 0.200908
vt 0.949885 0.200908
vt 0.287081 0.409983
vt 0.374748 0.409983
vt 0.382867 0.409983
vt 0.599834 0.409983
vt 0.618 0.409983
vt 0.906671 0.409983
vt 0.330902 0.100461
vt 0.488077 0.100461
vt 0.623341 0.100461
vt 0.797578 0.100461
vt 0.330914 0.309535
vt 0.49135 0.309535
vt 0.608917 0.309535
vt 0.762335 0.309535


# Vertex Surface Normals: 
vn 0 0 1
vn 0 0 -1
vn 0 1 0
vn 0 1 0
vn -0.382683 0.92388 0
vn -0.382683 0.92388 0
vn 0 1 0
vn -0.707106 0.707107 0
vn -0.707304 0.70691 4.03888e-17
vn -0.707304 0.70691 -4.03888e-17
vn -0.707501 0.706712 0
vn -0.923986 0.382426 4.37115e-17
vn -0.923986 0.382426 -4.37115e-17
vn -1 0 0
vn -1 0 0
vn -1 0 0
vn 0.707105 -0.707108 0
vn 0.707105 -0.707108 -8.29291e-17
vn 0.707105 -0.707108 -8.29291e-17
vn 0.707105 -0.707108 8.29291e-17
vn 0.707105 -0.707108 8.29291e-17
vn 1 0 0
vn 1 0 0
vn 0.923883 -0.382675 0
vn 0.923883 -0.382675 0
vn 1 0 0
vn 0.70712 -0.707093 0
vn 0.707113 -0.7071 0
vn 0.707113 -0.7071 0
vn 0.707106 -0.707108 0
vn 0.707106 -0.707108 0
vn 0.707106 -0.707108 0


# Faces: 
usemtl material1
f 28/38/22 29/39/22 27/37/22
f 30/40/22 26/36/22 27/37/22
f 27/37/22 29/39/22 30/40/22
f 31/41/22 25/35/22 26/36/22
f 24/34/22 25/35/22 31/41/22
f 31/41/22 26/36/22 30/40/22
f 21/47/23 20/46/23 19/45/23
f 18/44/23 22/48/23 19/45/23
f 21/47/23 19/45/23 22/48/23
f 17/43/23 23/49/23 18/44/23
f 17/43/23 16/42/23 23/49/23
f 18/44/23 23/49/23 22/48/23
f 32/72/24 16/50/25 17/51/26
f 32/72/24 17/51/26 25/62/27
f 32/72/24 25/62/27 24/61/28
f 32/72/24 24/61/28 16/50/25
f 33/73/29 17/51/26 18/52/30
f 33/73/29 18/52/30 26/63/31
f 33/73/29 26/63/31 25/62/27
f 33/73/29 25/62/27 17/51/26
f 34/74/32 18/52/30 19/53/33
f 34/74/32 19/53/33 27/64/34
f 34/74/32 27/64/34 26/63/31
f 34/74/32 26/63/31 18/52/30
f 35/75/35 19/53/33 20/54/36
f 35/75/35 20/54/36 28/65/37
f 35/75/35 28/65/37 27/64/34
f 35/75/35 27/64/34 19/53/33
f 36/76/38 20/55/39 21/56/40
f 36/76/38 21/56/40 29/67/41
f 36/76/38 29/67/41 28/66/42
f 36/76/38 28/66/42 20/55/39
f 37/77/43 21/57/44 22/58/45
f 37/77/43 22/58/45 30/69/46
f 37/77/43 30/69/46 29/68/47
f 37/77/43 29/68/47 21/57/44
f 38/78/48 22/58/45 23/59/49
f 38/78/48 23/59/49 31/70/50
f 38/78/48 31/70/50 30/69/46
f 38/78/48 30/69/46 22/58/45
f 39/79/51 23/59/49 16/60/52
f 39/79/51 16/60/52 24/71/53
f 39/79/51 24/71/53 31/70/50
f 39/79/51 31/70/50 23/59/49
