mtllib èµ„æº 29.mtl
# Vertex Positions: 
g groupNumber_0
v 1.63387 -2.17851 -0.8825
v 2.17849 -1.63388 -0.8825
v -1.6339 -1.63388 -0.8825
v -2.17853 -2.17851 -0.8825
v 1.63387 -2.17851 0.8825
v 2.17849 -1.63388 0.8825
v -1.6339 -1.63388 0.8825
v -2.17853 -2.17851 0.8825
v 1.90618 -1.90619 0
v 0.272294 -1.63388 0
v -1.90622 -1.90619 0
v -0.272333 -2.17851 0


# Vertex Texture Coordinates :
vt 0.797574 0
vt 0.911513 0.113939
vt 0.113939 0.113939
vt 0 0
vt 0.113938 0.125066
vt 0 0.239005
vt 0.797573 0.239005
vt 0.911513 0.125066
vt 0.000103021 0.250214
vt 0.161237 0.250214
vt 0.172466 0.250214
vt 0.97004 0.250214
vt 0.000102702 0.630753
vt 0.161237 0.630753
vt 0.172577 0.630753
vt 0.970152 0.630753
vt 0.000103021 0.619461
vt 0.161237 0.619461
vt 0.172466 0.619461
vt 0.97004 0.619461
vt 0.000102702 1
vt 0.161237 1
vt 0.172577 1
vt 0.970152 1
vt 0.0806698 0.434838
vt 0.571253 0.434838
vt 0.0806698 0.815376
vt 0.571364 0.815376


# Vertex Surface Normals: 
vn 0 0 1
vn 0 0 -1
vn 0.707108 -0.707105 0
vn 0.707108 -0.707105 0
vn 0.707108 -0.707105 0
vn 0.707108 -0.707105 0
vn 0.707108 -0.707105 0
vn 0 1 0
vn 0 1 0
vn -0.382683 0.92388 0
vn -0.382683 0.92388 0
vn 0 1 0
vn -0.707105 0.707108 0
vn -0.707105 0.707108 0
vn -0.707105 0.707108 0
vn 0 -1 0
vn 0 -1 0
vn 0 -1 0
vn 0 -1 0
vn 0 -1 0


# Faces: 
usemtl material0
f 7/3/1 8/4/1 5/1/1
f 5/1/1 6/2/1 7/3/1
f 4/8/2 3/7/2 1/5/2
f 2/6/2 1/5/2 3/7/2
f 9/25/3 1/9/4 2/10/5
f 9/25/3 2/10/5 6/18/6
f 9/25/3 6/18/6 5/17/7
f 9/25/3 5/17/7 1/9/4
f 10/26/8 2/11/9 3/12/10
f 10/26/8 3/12/10 7/20/11
f 10/26/8 7/20/11 6/19/12
f 10/26/8 6/19/12 2/11/9
f 11/27/13 3/13/10 4/14/14
f 11/27/13 4/14/14 8/22/15
f 11/27/13 8/22/15 7/21/11
f 11/27/13 7/21/11 3/13/10
f 12/28/16 4/15/17 1/16/18
f 12/28/16 1/16/18 5/24/19
f 12/28/16 5/24/19 8/23/20
f 12/28/16 8/23/20 4/15/17

# Vertex Positions: 
g groupNumber_1
v -1.63396 -1.63392 -0.8825
v 2.17853 2.17842 -0.8825
v -2.17852 2.17851 -0.8825
v -2.17853 1.63387 -0.8825
v 0.863542 1.63382 -0.8825
v -1.63394 -0.863573 -0.8825
v -1.63396 -1.63392 0.8825
v 2.17853 2.17842 0.8825
v -2.17852 2.17851 0.8825
v -2.17853 1.63387 0.8825
v 0.863542 1.63382 0.8825
v -1.63394 -0.863573 0.8825
v 0.272288 0.272249 -1.11022e-16
v 7.95669e-06 2.17846 -1.11022e-16
v -2.17852 1.90619 -1.11022e-16
v -0.657493 1.63385 -1.11022e-16
v -0.385201 0.385122 -1.11022e-16
v -1.63395 -1.24875 -1.11022e-16


# Vertex Texture Coordinates :
vt 0.411253 0.0588078
vt 0 0.47006
vt 0 5.74127e-05
vt 0.0587504 5.74127e-05
vt 0.0587504 0.328211
vt 0.328153 0.0588078
vt 0 0.536043
vt 0.411253 0.947295
vt 0.411253 0.477292
vt 0.352502 0.477292
vt 0.352502 0.805446
vt 0.0830992 0.536043
vt 0.418401 0
vt 1 0
vt 0.418467 0.197511
vt 0.88847 0.197511
vt 0.895653 0.197511
vt 0.954403 0.197511
vt 0.418467 0.395021
vt 0.746621 0.395021
vt 0.418458 0.592532
vt 0.799451 0.592532
vt 0.806661 0.592532
vt 0.88976 0.592532
vt 0.418401 0.190394
vt 1 0.190394
vt 0.418467 0.387904
vt 0.88847 0.387904
vt 0.895653 0.387904
vt 0.954403 0.387904
vt 0.418467 0.585415
vt 0.746621 0.585415
vt 0.418458 0.782926
vt 0.799451 0.782926
vt 0.806661 0.782926
vt 0.88976 0.782926
vt 0.709201 0.0951968
vt 0.653469 0.292708
vt 0.925028 0.292708
vt 0.582544 0.490218
vt 0.608954 0.687729
vt 0.848211 0.687729


# Vertex Surface Normals: 
vn 0 0 1
vn 0 0 -1
vn 0.707093 -0.70712 0
vn 0.707093 -0.70712 2.50816e-17
vn 0.707093 -0.70712 2.50816e-17
vn 0.707093 -0.70712 -2.50816e-17
vn 0.707093 -0.70712 -2.50816e-17
vn 1.90531e-05 1 0
vn 1.90531e-05 1 0
vn 1.90531e-05 1 0
vn 1.90531e-05 1 0
vn 1.90531e-05 1 0
vn -1 1.90531e-05 0
vn -1 1.90531e-05 0
vn -1 1.90531e-05 0
vn -1 1.90531e-05 0
vn -1 1.90531e-05 0
vn -1.90531e-05 -1 0
vn -1.90531e-05 -1 0
vn -1.90531e-05 -1 0
vn -1.90531e-05 -1 0
vn -1.90531e-05 -1 0
vn -0.707093 0.707121 0
vn -0.707093 0.707121 -2.80431e-17
vn -0.707093 0.707121 -2.80431e-17
vn -0.707093 0.707121 2.80431e-17
vn -0.707093 0.707121 2.80431e-17
vn -1 1.90531e-05 0
vn -1 1.90531e-05 0
vn -1 1.90531e-05 0
vn -1 1.90531e-05 0
vn -1 1.90531e-05 0


# Faces: 
usemtl material1
f 20/30/21 21/31/21 23/33/21
f 23/33/21 21/31/21 22/32/21
f 23/33/21 24/34/21 19/29/21
f 23/33/21 19/29/21 20/30/21
f 15/37/22 14/36/22 17/39/22
f 15/37/22 17/39/22 16/38/22
f 18/40/22 17/39/22 13/35/22
f 13/35/22 17/39/22 14/36/22
f 25/65/23 13/41/24 14/42/25
f 25/65/23 14/42/25 20/54/26
f 25/65/23 20/54/26 19/53/27
f 25/65/23 19/53/27 13/41/24
f 26/66/28 14/43/29 15/44/30
f 26/66/28 15/44/30 21/56/31
f 26/66/28 21/56/31 20/55/32
f 26/66/28 20/55/32 14/43/29
f 27/67/33 15/45/34 16/46/35
f 27/67/33 16/46/35 22/58/36
f 27/67/33 22/58/36 21/57/37
f 27/67/33 21/57/37 15/45/34
f 28/68/38 16/47/39 17/48/40
f 28/68/38 17/48/40 23/60/41
f 28/68/38 23/60/41 22/59/42
f 28/68/38 22/59/42 16/47/39
f 29/69/43 17/49/44 18/50/45
f 29/69/43 18/50/45 24/62/46
f 29/69/43 24/62/46 23/61/47
f 29/69/43 23/61/47 17/49/44
f 30/70/48 18/51/49 13/52/50
f 30/70/48 13/52/50 19/64/51
f 30/70/48 19/64/51 24/63/52
f 30/70/48 24/63/52 18/51/49
