mtllib èµ„æº 30.mtl
# Vertex Positions: 
g groupNumber_0
v 2.17791 -1.63389 -0.8825
v 0.271707 -1.63389 -0.8825
v 0.271707 2.17851 -0.8825
v -1.63328 0.273527 -0.8825
v -1.63328 -0.496519 -0.8825
v -0.272922 0.863541 -0.8825
v -0.272922 -1.63389 -0.8825
v -1.63328 -1.63389 -0.8825
v -2.17791 -2.17851 -0.8825
v 1.63328 -2.17851 -0.8825
v 2.17791 -1.63389 0.8825
v 0.271707 -1.63389 0.8825
v 0.271707 2.17851 0.8825
v -1.63328 0.273527 0.8825
v -1.63328 -0.496519 0.8825
v -0.272922 0.863541 0.8825
v -0.272922 -1.63389 0.8825
v -1.63328 -1.63389 0.8825
v -2.17791 -2.17851 0.8825
v 1.63328 -2.17851 0.8825
v 1.22481 -1.63389 0
v 0.271707 0.272314 0
v -0.680788 1.22602 0
v -1.63328 -0.111496 0
v -0.953102 0.183511 0
v -0.272922 -0.385173 0
v -0.953102 -1.63389 0
v -1.90559 -1.9062 0
v -0.272315 -2.17851 0
v 1.90559 -1.9062 0


# Vertex Texture Coordinates :
vt 0.440165 0.0550698
vt 0.247539 0.0550698
vt 0.247539 0.440322
vt 0.0550356 0.247818
vt 0.0550356 0.170003
vt 0.192503 0.307441
vt 0.192503 0.0550698
vt 0.0550356 0.0550698
vt 0 3.39812e-05
vt 0.385129 3.39812e-05
vt 0 0.501077
vt 0.192626 0.501077
vt 0.192626 0.886329
vt 0.38513 0.693826
vt 0.38513 0.616011
vt 0.247662 0.753448
vt 0.247662 0.501077
vt 0.38513 0.501077
vt 0.440165 0.446041
vt 0.055036 0.446041
vt 0.445899 0
vt 0.638525 0
vt 0.445885 0.184009
vt 0.831137 0.184009
vt 0.644241 0
vt 0.916482 0
vt 0.922185 0
vt 1 0
vt 0.445866 0.368018
vt 0.640253 0.368018
vt 0.645925 0.368018
vt 0.898296 0.368018
vt 0.836862 0.184009
vt 0.97433 0.184009
vt 0.903979 0.368018
vt 0.981811 0.368018
vt 0.445856 0.552028
vt 0.830985 0.552028
vt 0.908817 0.552028
vt 0.445899 0.178357
vt 0.638525 0.178357
vt 0.445885 0.362367
vt 0.831137 0.362367
vt 0.644241 0.178357
vt 0.916482 0.178357
vt 0.922185 0.178357
vt 1 0.178357
vt 0.445866 0.546376
vt 0.640253 0.546376
vt 0.645925 0.546376
vt 0.898296 0.546376
vt 0.836862 0.362367
vt 0.97433 0.362367
vt 0.903979 0.546376
vt 0.981811 0.546376
vt 0.445856 0.730385
vt 0.830985 0.730385
vt 0.908817 0.730385
vt 0.542212 0.0891787
vt 0.638511 0.273188
vt 0.780361 0.0891787
vt 0.961093 0.0891787
vt 0.543059 0.457197
vt 0.77211 0.457197
vt 0.905596 0.273188
vt 0.942895 0.457197
vt 0.63842 0.641206
vt 0.869901 0.641206


# Vertex Surface Normals: 
vn 0 0 1
vn 0 0 -1
vn 0 1 0
vn 0 1 0
vn 0 1 0
vn 0 1 0
vn 0 1 0
vn 1 0 0
vn 1 0 0
vn 1 0 0
vn 1 0 0
vn 1 0 0
vn -0.707106 0.707107 0
vn -0.707106 0.707107 4.05654e-17
vn -0.707106 0.707107 4.05654e-17
vn -0.707106 0.707107 -4.05654e-17
vn -0.707106 0.707107 -4.05654e-17
vn -1 0 0
vn -1 0 0
vn -1 0 0
vn -1 0 0
vn -1 0 0
vn 0.707029 -0.707185 0
vn 0.707029 -0.707185 -1.81809e-17
vn 0.707029 -0.707185 -1.81809e-17
vn 0.707029 -0.707185 1.81809e-17
vn 0.707029 -0.707185 1.81809e-17
vn -1 0 0
vn -1 0 0
vn -1 0 0
vn -1 0 0
vn -1 0 0
vn 0 1 0
vn 0 1 0
vn 0 1 0
vn 0 1 0
vn 0 1 0
vn -0.707108 0.707105 0
vn -0.707108 0.707105 0
vn -0.707108 0.707105 0
vn -0.707108 0.707105 0
vn -0.707108 0.707105 0
vn 0 -1 0
vn 0 -1 0
vn 0.382683 -0.92388 0
vn 0.382683 -0.92388 0
vn 0 -1 0
vn 0.707105 -0.707108 0
vn 0.707105 -0.707108 0
vn 0.707105 -0.707108 0


# Faces: 
usemtl material0
f 18/8/1 19/9/1 17/7/1
f 14/4/1 15/5/1 16/6/1
f 19/9/1 20/10/1 17/7/1
f 12/2/1 20/10/1 11/1/1
f 20/10/1 12/2/1 17/7/1
f 12/2/1 13/3/1 16/6/1
f 16/6/1 13/3/1 14/4/1
f 12/2/1 16/6/1 17/7/1
f 9/19/2 8/18/2 7/17/2
f 5/15/2 4/14/2 6/16/2
f 10/20/2 9/19/2 7/17/2
f 10/20/2 2/12/2 1/11/2
f 2/12/2 10/20/2 7/17/2
f 3/13/2 2/12/2 6/16/2
f 3/13/2 6/16/2 4/14/2
f 6/16/2 2/12/2 7/17/2
f 21/59/3 1/21/4 2/22/5
f 21/59/3 2/22/5 12/41/6
f 21/59/3 12/41/6 11/40/7
f 21/59/3 11/40/7 1/21/4
f 22/60/8 2/23/9 3/24/10
f 22/60/8 3/24/10 13/43/11
f 22/60/8 13/43/11 12/42/12
f 22/60/8 12/42/12 2/23/9
f 23/61/13 3/25/14 4/26/15
f 23/61/13 4/26/15 14/45/16
f 23/61/13 14/45/16 13/44/17
f 23/61/13 13/44/17 3/25/14
f 24/62/18 4/27/19 5/28/20
f 24/62/18 5/28/20 15/47/21
f 24/62/18 15/47/21 14/46/22
f 24/62/18 14/46/22 4/27/19
f 25/63/23 5/29/24 6/30/25
f 25/63/23 6/30/25 16/49/26
f 25/63/23 16/49/26 15/48/27
f 25/63/23 15/48/27 5/29/24
f 26/64/28 6/31/29 7/32/30
f 26/64/28 7/32/30 17/51/31
f 26/64/28 17/51/31 16/50/32
f 26/64/28 16/50/32 6/31/29
f 27/65/33 7/33/34 8/34/35
f 27/65/33 8/34/35 18/53/36
f 27/65/33 18/53/36 17/52/37
f 27/65/33 17/52/37 7/33/34
f 28/66/38 8/35/39 9/36/40
f 28/66/38 9/36/40 19/55/41
f 28/66/38 19/55/41 18/54/42
f 28/66/38 18/54/42 8/35/39
f 29/67/43 9/37/44 10/38/45
f 29/67/43 10/38/45 20/57/46
f 29/67/43 20/57/46 19/56/47
f 29/67/43 19/56/47 9/37/44
f 30/68/48 10/38/45 1/39/49
f 30/68/48 1/39/49 11/58/50
f 30/68/48 11/58/50 20/57/46
f 30/68/48 20/57/46 10/38/45
