mtllib èµ„æº 36.mtl
# Vertex Positions: 
g groupNumber_0
v 1.63345 -1.63345 -0.8825
v -1.63345 -1.63345 -0.8825
v -1.63345 1.63345 -0.8825
v -2.17794 1.08897 -0.8825
v -2.17794 -2.17794 -0.8825
v 1.08897 -2.17794 -0.8825
v 1.63345 -1.63345 0.8825
v -1.63345 -1.63345 0.8825
v -1.63345 1.63345 0.8825
v -2.17794 1.08897 0.8825
v -2.17794 -2.17794 0.8825
v 1.08897 -2.17794 0.8825
v -1.3445e-09 -1.63345 0
v -1.63345 3.86568e-10 0
v -1.9057 1.36121 0
v -2.17794 -0.544485 0
v -0.544487 -2.17794 0
v 1.36121 -1.90569 0


# Vertex Texture Coordinates :
vt 0.479546 0.0685478
vt 0.0685069 0.0685478
vt 0.0685069 0.479587
vt 0 0.41108
vt 0 4.11578e-05
vt 0.411039 4.11578e-05
vt 0 0.554397
vt 0.411039 0.554397
vt 0.411039 0.965436
vt 0.479546 0.89693
vt 0.479546 0.485891
vt 0.0685069 0.485891
vt 0.485816 0
vt 0.896855 0
vt 0.485816 0.228292
vt 0.896855 0.228292
vt 0.903117 0
vt 1 0
vt 0.485816 0.456584
vt 0.896855 0.456584
vt 0.485798 0.684877
vt 0.896837 0.684877
vt 0.99372 0.684877
vt 0.485816 0.222071
vt 0.896855 0.222071
vt 0.485816 0.450363
vt 0.896855 0.450363
vt 0.903117 0.222071
vt 1 0.222071
vt 0.485816 0.678655
vt 0.896855 0.678655
vt 0.485798 0.906947
vt 0.896837 0.906947
vt 0.99372 0.906947
vt 0.691335 0.111035
vt 0.691335 0.339328
vt 0.951558 0.111035
vt 0.691335 0.56762
vt 0.691317 0.795912
vt 0.945278 0.795912


# Vertex Surface Normals: 
vn 0 0 1
vn 0 0 -1
vn 0 1 0
vn 0 1 0
vn 0 1 0
vn 0 1 0
vn 0 1 0
vn 1 0 0
vn 1 0 0
vn 1 0 0
vn 1 0 0
vn 1 0 0
vn -0.707105 0.707108 0
vn -0.707105 0.707108 0
vn -0.707105 0.707108 0
vn -0.707105 0.707108 0
vn -0.707105 0.707108 0
vn -1 0 0
vn -1 0 0
vn -1 0 0
vn -1 0 0
vn -1 0 0
vn 0 -1 0
vn 0 -1 0
vn 0.382683 -0.92388 4.35032e-17
vn 0.382683 -0.92388 -4.35032e-17
vn 0 -1 0
vn 0.707105 -0.707108 0
vn 0.707105 -0.707108 8.03834e-17
vn 0.707105 -0.707108 -8.03834e-17


# Faces: 
usemtl material0
f 11/5/1 8/2/1 10/4/1
f 8/2/1 11/5/1 12/6/1
f 10/4/1 8/2/1 9/3/1
f 7/1/1 8/2/1 12/6/1
f 2/8/2 5/11/2 4/10/2
f 5/11/2 2/8/2 6/12/2
f 2/8/2 4/10/2 3/9/2
f 2/8/2 1/7/2 6/12/2
f 13/35/3 1/13/4 2/14/5
f 13/35/3 2/14/5 8/25/6
f 13/35/3 8/25/6 7/24/7
f 13/35/3 7/24/7 1/13/4
f 14/36/8 2/15/9 3/16/10
f 14/36/8 3/16/10 9/27/11
f 14/36/8 9/27/11 8/26/12
f 14/36/8 8/26/12 2/15/9
f 15/37/13 3/17/14 4/18/15
f 15/37/13 4/18/15 10/29/16
f 15/37/13 10/29/16 9/28/17
f 15/37/13 9/28/17 3/17/14
f 16/38/18 4/19/19 5/20/20
f 16/38/18 5/20/20 11/31/21
f 16/38/18 11/31/21 10/30/22
f 16/38/18 10/30/22 4/19/19
f 17/39/23 5/21/24 6/22/25
f 17/39/23 6/22/25 12/33/26
f 17/39/23 12/33/26 11/32/27
f 17/39/23 11/32/27 5/21/24
f 18/40/28 6/22/25 1/23/29
f 18/40/28 1/23/29 7/34/30
f 18/40/28 7/34/30 12/33/26
f 18/40/28 12/33/26 6/22/25

# Vertex Positions: 
g groupNumber_1
v 2.17794 -1.08897 -0.8825
v 2.17794 2.17794 -0.8825
v -1.08897 2.17794 -0.8825
v -1.63345 1.63345 -0.8825
v 1.63345 1.63345 -0.8825
v 1.63345 1.04238 -0.8825
v 0.863613 0.272241 -0.8825
v -1.08897 0.272241 -0.8825
v -1.63345 -0.272244 -0.8825
v 1.08897 -0.272244 -0.8825
v 1.63345 0.272241 -0.8825
v 1.63345 -1.63345 -0.8825
v 2.17794 -1.08897 0.8825
v 2.17794 2.17794 0.8825
v -1.08897 2.17794 0.8825
v -1.63345 1.63345 0.8825
v 1.63345 1.63345 0.8825
v 1.63345 1.04238 0.8825
v 0.863613 0.272241 0.8825
v -1.08897 0.272241 0.8825
v -1.63345 -0.272244 0.8825
v 1.08897 -0.272244 0.8825
v 1.63345 0.272241 0.8825
v 1.63345 -1.63345 0.8825
v 2.17794 0.544484 0
v 0.544485 2.17794 0
v -1.36121 1.90569 0
v -1.31772e-09 1.63345 0
v 1.63345 1.33792 0
v 1.24853 0.657313 0
v -0.112678 0.272241 0
v -1.36121 -1.0777e-06 0
v -0.272244 -0.272244 0
v 1.36121 -1.0777e-06 0
v 1.63345 -0.680606 0
v 1.9057 -1.36121 0


# Vertex Texture Coordinates :
vt 0.417716 0.0596736
vt 0.417716 0.417716
vt 0.0596736 0.417716
vt 0 0.358042
vt 0.358042 0.358042
vt 0.358042 0.293263
vt 0.27367 0.208858
vt 0.0596736 0.208858
vt 0 0.149184
vt 0.298368 0.149184
vt 0.358042 0.208858
vt 0.358042 0
vt 0 0.482489
vt 0 0.840532
vt 0.358043 0.840532
vt 0.417716 0.780858
vt 0.0596741 0.780858
vt 0.0596741 0.716079
vt 0.144046 0.631674
vt 0.358043 0.631674
vt 0.417716 0.572
vt 0.119348 0.572
vt 0.0596741 0.631674
vt 0.0596741 0.422816
vt 0.422823 1.01835e-05
vt 0.780866 1.01835e-05
vt 0.422823 0.198568
vt 0.780866 0.198568
vt 0.785997 1.01835e-05
vt 0.870388 1.01835e-05
vt 0.422823 0.397126
vt 0.780865 0.397126
vt 0.786 0.198568
vt 0.850779 0.198568
vt 0.970123 0.198568
vt 0.786003 0.397126
vt 1 0.397126
vt 0.875536 1.01835e-05
vt 0.959928 1.01835e-05
vt 0.422855 0.595684
vt 0.721223 0.595684
vt 0.805615 0.595684
vt 0.422816 0.794243
vt 0.631674 0.794243
vt 0.810778 0.595684
vt 0.89517 0.595684
vt 0.422823 0.193449
vt 0.780866 0.193449
vt 0.422823 0.392007
vt 0.780866 0.392007
vt 0.785997 0.193449
vt 0.870388 0.193449
vt 0.422823 0.590565
vt 0.780865 0.590565
vt 0.786 0.392007
vt 0.850779 0.392007
vt 0.970123 0.392007
vt 0.786003 0.590565
vt 1 0.590565
vt 0.875536 0.193449
vt 0.959928 0.193449
vt 0.422855 0.789123
vt 0.721223 0.789123
vt 0.805615 0.789123
vt 0.422816 0.987681
vt 0.631674 0.987681
vt 0.810778 0.789123
vt 0.89517 0.789123
vt 0.601844 0.0967294
vt 0.601844 0.295287
vt 0.828192 0.0967294
vt 0.601844 0.493846
vt 0.81839 0.295287
vt 0.910451 0.295287
vt 0.893002 0.493846
vt 0.917732 0.0967294
vt 0.572039 0.692404
vt 0.763419 0.692404
vt 0.527245 0.890962
vt 0.852974 0.692404


# Vertex Surface Normals: 
vn 0 0 1
vn 0 0 -1
vn 1 0 0
vn 1 0 0
vn 1 0 0
vn 1 0 0
vn 1 0 0
vn 0 1 0
vn 0 1 0
vn 0 1 0
vn 0 1 0
vn 0 1 0
vn -0.707108 0.707105 0
vn -0.707108 0.707105 7.91793e-17
vn -0.707108 0.707105 7.91793e-17
vn -0.707108 0.707105 -7.91793e-17
vn -0.707108 0.707105 -7.91793e-17
vn 0 -1 0
vn 0 -1 0
vn 0 -1 0
vn 0 -1 0
vn 0 -1 0
vn -1 0 0
vn -1 0 0
vn -0.923917 0.382592 7.60129e-18
vn -0.923917 0.382592 -7.60129e-18
vn -1 0 0
vn -0.707246 0.706967 0
vn -0.707246 0.706967 1.40459e-17
vn -0.707246 0.706967 -1.40459e-17
vn 0 1 0
vn 0 1 0
vn 0 1 0
vn 0 1 0
vn 0 1 0
vn -0.707108 0.707105 0
vn -0.707108 0.707105 9.04906e-17
vn -0.707108 0.707105 9.04906e-17
vn -0.707108 0.707105 -9.04906e-17
vn -0.707108 0.707105 -9.04906e-17
vn 0 -1 0
vn 0 -1 0
vn 0.382683 -0.92388 -6.12161e-18
vn 0.382683 -0.92388 6.12161e-18
vn 0 -1 0
vn 0.707105 -0.707108 0
vn 0.707105 -0.707108 -1.13113e-17
vn 0.707105 -0.707108 1.13113e-17
vn -1 0 0
vn -1 0 0
vn -1 0 0
vn -1 0 0
vn -1 0 0
vn 0.707104 -0.70711 0
vn 0.707104 -0.70711 -1.69669e-16
vn 0.707104 -0.70711 -1.69669e-16
vn 0.707104 -0.70711 1.69669e-16
vn 0.707104 -0.70711 1.69669e-16


# Faces: 
usemtl material1
f 39/49/31 40/50/31 38/48/31
f 38/48/31 40/50/31 37/47/31
f 34/44/31 35/45/31 33/43/31
f 40/50/31 41/51/31 37/47/31
f 41/51/31 31/41/31 32/42/31
f 41/51/31 42/52/31 31/41/31
f 36/46/31 32/42/31 35/45/31
f 32/42/31 36/46/31 41/51/31
f 35/45/31 32/42/31 33/43/31
f 41/51/31 36/46/31 37/47/31
f 28/62/32 27/61/32 26/60/32
f 28/62/32 26/60/32 25/59/32
f 23/57/32 22/56/32 21/55/32
f 29/63/32 28/62/32 25/59/32
f 19/53/32 29/63/32 20/54/32
f 30/64/32 29/63/32 19/53/32
f 20/54/32 24/58/32 23/57/32
f 24/58/32 20/54/32 29/63/32
f 20/54/32 23/57/32 21/55/32
f 24/58/32 29/63/32 25/59/32
f 43/109/33 19/65/34 20/66/35
f 43/109/33 20/66/35 32/88/36
f 43/109/33 32/88/36 31/87/37
f 43/109/33 31/87/37 19/65/34
f 44/110/38 20/67/39 21/68/40
f 44/110/38 21/68/40 33/90/41
f 44/110/38 33/90/41 32/89/42
f 44/110/38 32/89/42 20/67/39
f 45/111/43 21/69/44 22/70/45
f 45/111/43 22/70/45 34/92/46
f 45/111/43 34/92/46 33/91/47
f 45/111/43 33/91/47 21/69/44
f 46/112/48 22/71/49 23/72/50
f 46/112/48 23/72/50 35/94/51
f 46/112/48 35/94/51 34/93/52
f 46/112/48 34/93/52 22/71/49
f 47/113/53 23/73/54 24/74/55
f 47/113/53 24/74/55 36/96/56
f 47/113/53 36/96/56 35/95/57
f 47/113/53 35/95/57 23/73/54
f 48/114/58 24/74/55 25/75/59
f 48/114/58 25/75/59 37/97/60
f 48/114/58 37/97/60 36/96/56
f 48/114/58 36/96/56 24/74/55
f 49/115/61 25/76/62 26/77/63
f 49/115/61 26/77/63 38/99/64
f 49/115/61 38/99/64 37/98/65
f 49/115/61 37/98/65 25/76/62
f 50/116/66 26/78/67 27/79/68
f 50/116/66 27/79/68 39/101/69
f 50/116/66 39/101/69 38/100/70
f 50/116/66 38/100/70 26/78/67
f 51/117/71 27/80/72 28/81/73
f 51/117/71 28/81/73 40/103/74
f 51/117/71 40/103/74 39/102/75
f 51/117/71 39/102/75 27/80/72
f 52/118/76 28/81/73 29/82/77
f 52/118/76 29/82/77 41/104/78
f 52/118/76 41/104/78 40/103/74
f 52/118/76 40/103/74 28/81/73
f 53/119/79 29/83/80 30/84/81
f 53/119/79 30/84/81 42/106/82
f 53/119/79 42/106/82 41/105/83
f 53/119/79 41/105/83 29/83/80
f 54/120/84 30/85/85 19/86/86
f 54/120/84 19/86/86 31/108/87
f 54/120/84 31/108/87 42/107/88
f 54/120/84 42/107/88 30/85/85
