mtllib èµ„æº 37.mtl
# Vertex Positions: 
g groupNumber_0
v -1.63331 -2.17542 -0.8825
v -1.63331 -0.544086 -0.8825
v -2.1778 0.00039859 -0.8825
v -2.1778 -2.17754 -0.8825
v -1.63543 -2.17754 -0.8825
v -1.63331 -2.17542 0.8825
v -1.63331 -0.544086 0.8825
v -2.1778 0.00039859 0.8825
v -2.1778 -2.17754 0.8825
v -1.63543 -2.17754 0.8825
v -1.63331 -1.35975 0
v -1.90556 -0.271844 0
v -2.1778 -1.08857 0
v -1.90662 -2.17754 0
v -1.63437 -2.17648 0


# Vertex Texture Coordinates :
vt 0.139866 0.000544042
vt 0.139866 0.419596
vt 0 0.559461
vt 0 0
vt 0.139321 0
vt 0.146831 0.000544042
vt 0.146831 0.419596
vt 0.286697 0.559461
vt 0.286697 0
vt 0.147376 0
vt 0.293662 4.11223e-05
vt 0.712714 4.11223e-05
vt 0.719668 4.11223e-05
vt 0.917468 4.11223e-05
vt 0.293595 0.46034
vt 0.853056 0.46034
vt 0.859909 0.46034
vt 0.99923 0.46034
vt 1 0.46034
vt 0.293662 0.453428
vt 0.712714 0.453428
vt 0.719668 0.453428
vt 0.917468 0.453428
vt 0.293595 0.913727
vt 0.853056 0.913727
vt 0.859909 0.913727
vt 0.99923 0.913727
vt 1 0.913727
vt 0.503188 0.226735
vt 0.818568 0.226735
vt 0.573325 0.687034
vt 0.92957 0.687034
vt 0.999615 0.687034


# Vertex Surface Normals: 
vn 0 0 1
vn 0 0 -1
vn 1 0 0
vn 1 0 0
vn 1 0 0
vn 1 0 0
vn 1 0 0
vn 0.707105 0.707108 0
vn 0.707105 0.707108 0
vn 0.707105 0.707108 0
vn 0.707105 0.707108 0
vn 0.707105 0.707108 0
vn -1 0 0
vn -1 0 0
vn -1 0 0
vn -1 0 0
vn -1 0 0
vn 0 -1 0
vn 0 -1 0
vn 0.382449 -0.923977 4.2151e-17
vn 0.382449 -0.923977 -4.2151e-17
vn 0 -1 0
vn 0.706747 -0.707466 0
vn 0.706747 -0.707466 7.78931e-17
vn 0.706747 -0.707466 -7.78931e-17


# Faces: 
usemtl material0
f 8/3/1 9/4/1 7/2/1
f 6/1/1 7/2/1 9/4/1
f 6/1/1 9/4/1 10/5/1
f 4/9/2 3/8/2 2/7/2
f 2/7/2 1/6/2 4/9/2
f 4/9/2 1/6/2 5/10/2
f 11/29/3 1/11/4 2/12/5
f 11/29/3 2/12/5 7/21/6
f 11/29/3 7/21/6 6/20/7
f 11/29/3 6/20/7 1/11/4
f 12/30/8 2/13/9 3/14/10
f 12/30/8 3/14/10 8/23/11
f 12/30/8 8/23/11 7/22/12
f 12/30/8 7/22/12 2/13/9
f 13/31/13 3/15/14 4/16/15
f 13/31/13 4/16/15 9/25/16
f 13/31/13 9/25/16 8/24/17
f 13/31/13 8/24/17 3/15/14
f 14/32/18 4/17/19 5/18/20
f 14/32/18 5/18/20 10/27/21
f 14/32/18 10/27/21 9/26/22
f 14/32/18 9/26/22 4/17/19
f 15/33/23 5/18/20 1/19/24
f 15/33/23 1/19/24 6/28/25
f 15/33/23 6/28/25 10/27/21
f 15/33/23 10/27/21 5/18/20

# Vertex Positions: 
g groupNumber_1
v 1.6337 1.63371 -0.8825
v 1.6337 1.08879 -0.8825
v -1.63336 1.08879 -0.8825
v -1.63336 1.63371 -0.8825
v 1.6337 1.63371 0.8825
v 1.6337 1.08879 0.8825
v -1.63336 1.08879 0.8825
v -1.63336 1.63371 0.8825
v 1.6337 1.36125 -2.22045e-16
v 0.000174518 1.08879 -2.22045e-16
v -1.63336 1.36125 -2.22045e-16
v 0.000174518 1.63371 -2.22045e-16
v 2.17793 0.865645 -0.8825
v 2.17793 2.17793 -0.8825
v -2.17793 2.17793 -0.8825
v -2.17793 0.54422 -0.8825
v 1.08704 0.54422 -0.8825
v 0.542822 0 -0.8825
v -0.00210068 -0.54422 -0.8825
v -1.63336 -2.17548 -0.8825
v -0.865296 -2.17793 -0.8825
v 2.17793 0.865645 0.8825
v 2.17793 2.17793 0.8825
v -2.17793 2.17793 0.8825
v -2.17793 0.54422 0.8825
v 1.08704 0.54422 0.8825
v 0.542822 0 0.8825
v -0.00210068 -0.54422 0.8825
v -1.63336 -2.17548 0.8825
v -0.865296 -2.17793 0.8825
v 2.17793 1.52179 -2.22045e-16
v 0 2.17793 -2.22045e-16
v -2.17793 1.36107 -2.22045e-16
v -0.545446 0.54422 -2.22045e-16
v 0.814929 0.27211 -2.22045e-16
v 0.27036 -0.27211 -2.22045e-16
v -0.817728 -1.35985 -2.22045e-16
v -1.24933 -2.1767 -2.22045e-16
v 0.656316 -0.656142 -2.22045e-16


# Vertex Texture Coordinates :
vt 0.360158 0.360159
vt 0.360158 0.30867
vt 0.0514563 0.30867
vt 0.0514563 0.360159
vt 0.411582 0.287585
vt 0.411582 0.411582
vt 0 0.411582
vt 0 0.257214
vt 0.308504 0.257214
vt 0.257082 0.205791
vt 0.205592 0.154368
vt 0.0514563 0.000231268
vt 0.12403 0
vt 0.0514233 0.776765
vt 0.0514233 0.725275
vt 0.360125 0.725275
vt 0.360125 0.776765
vt 0 0.704191
vt 0 0.828187
vt 0.411582 0.828187
vt 0.411582 0.67382
vt 0.103078 0.67382
vt 0.1545 0.622397
vt 0.205989 0.570974
vt 0.360125 0.416837
vt 0.287552 0.416606
vt 2.95528e-05 0.833226
vt 0.0515186 0.833226
vt 0.0566147 0.833226
vt 0.365317 0.833226
vt 0.416635 1.47964e-05
vt 0.468124 1.47964e-05
vt 0.473221 1.47964e-05
vt 0.781923 1.47964e-05
vt 2.95528e-05 1
vt 0.0515186 1
vt 0.0566147 1
vt 0.365317 1
vt 0.416635 0.166788
vt 0.468124 0.166788
vt 0.473221 0.166788
vt 0.781923 0.166788
vt 0.0257741 0.916613
vt 0.210966 0.916613
vt 0.44238 0.0834016
vt 0.627572 0.0834016
vt 0.786989 1.47964e-05
vt 0.910986 1.47964e-05
vt 0.473178 0.171842
vt 0.88476 0.171842
vt 0.473216 0.343669
vt 0.627584 0.343669
vt 0.632687 0.343669
vt 0.941191 0.343669
vt 0.473216 0.515497
vt 0.545939 0.515497
vt 0.618709 0.515497
vt 0.836691 0.515497
vt 0.916048 1.47964e-05
vt 0.988622 1.47964e-05
vt 0.473216 0.687324
vt 0.879899 0.687324
vt 0.786989 0.166788
vt 0.910986 0.166788
vt 0.473178 0.338616
vt 0.88476 0.338616
vt 0.473216 0.510443
vt 0.627584 0.510443
vt 0.632687 0.510443
vt 0.941191 0.510443
vt 0.473216 0.68227
vt 0.545939 0.68227
vt 0.618709 0.68227
vt 0.836691 0.68227
vt 0.916048 0.166788
vt 0.988622 0.166788
vt 0.473216 0.854098
vt 0.879899 0.854098
vt 0.848988 0.0834016
vt 0.678969 0.255229
vt 0.5504 0.427056
vt 0.786939 0.427056
vt 0.509578 0.598883
vt 0.582324 0.598883
vt 0.7277 0.598883
vt 0.952335 0.0834016
vt 0.676557 0.770711


# Vertex Surface Normals: 
vn 0 0 1
vn 0 0 -1
vn -1 0 0
vn -1 0 0
vn -1 0 0
vn -1 0 0
vn -1 0 0
vn 0 1 0
vn 0 1 0
vn 0 1 0
vn 0 1 0
vn 0 1 0
vn 1 0 0
vn 1 0 0
vn 1 0 0
vn 1 0 0
vn 1 0 0
vn 0 -1 0
vn 0 -1 0
vn 0 -1 0
vn 0 -1 0
vn 0 -1 0
vn 1 0 0
vn 0.923891 -0.382657 -1.71642e-17
vn 1 0 0
vn 1 0 0
vn 0.923891 -0.382657 1.71642e-17
vn 0 1 0
vn 0 1 0
vn 0 1 0
vn 0 1 0
vn 0 1 0
vn -1 0 0
vn -1 0 0
vn -1 0 0
vn -1 0 0
vn -1 0 0
vn 0 -1 0
vn 0 -1 0
vn 0 -1 0
vn 0 -1 0
vn 0 -1 0
vn -0.70711 0.707104 0
vn -0.70711 0.707104 -3.30302e-17
vn -0.70688 0.707333 -2.47656e-17
vn -0.70688 0.707333 2.47656e-17
vn -0.70711 0.707104 3.30302e-17
vn -0.706651 0.707563 0
vn -0.706879 0.707334 -3.30751e-17
vn -0.706879 0.707334 3.30751e-17
vn -0.707108 0.707105 0
vn -0.707108 0.707105 -4.96491e-17
vn -0.707108 0.707105 4.96491e-17
vn -0.00318666 -0.999995 0
vn -0.00318666 -0.999995 2.75111e-16
vn -0.00318666 -0.999995 2.75111e-16
vn -0.00318666 -0.999995 -2.75111e-16
vn -0.00318666 -0.999995 -2.75111e-16
vn 0.707147 -0.707066 0
vn 0.707147 -0.707066 -3.17157e-17
vn 0.707147 -0.707066 3.17157e-17


# Faces: 
usemtl material1
f 39/40/26 22/36/26 23/37/26
f 22/36/26 39/40/26 40/41/26
f 21/35/26 22/36/26 41/42/26
f 39/40/26 23/37/26 38/39/26
f 45/46/26 43/44/26 44/45/26
f 41/42/26 22/36/26 40/41/26
f 43/44/26 45/46/26 42/43/26
f 41/42/26 42/43/26 37/38/26
f 20/34/26 21/35/26 37/38/26
f 37/38/26 38/39/26 20/34/26
f 21/35/26 41/42/26 37/38/26
f 20/34/26 38/39/26 23/37/26
f 45/46/26 37/38/26 42/43/26
f 18/49/27 30/53/27 19/50/27
f 30/53/27 18/49/27 31/54/27
f 18/49/27 17/48/27 32/55/27
f 19/50/27 30/53/27 29/52/27
f 34/57/27 36/59/27 35/58/27
f 18/49/27 32/55/27 31/54/27
f 36/59/27 34/57/27 33/56/27
f 33/56/27 32/55/27 28/51/27
f 17/48/27 16/47/27 28/51/27
f 29/52/27 28/51/27 16/47/27
f 32/55/27 17/48/27 28/51/27
f 29/52/27 16/47/27 19/50/27
f 28/51/27 36/59/27 33/56/27
f 24/76/28 16/60/29 17/61/30
f 24/76/28 17/61/30 21/69/31
f 24/76/28 21/69/31 20/68/32
f 24/76/28 20/68/32 16/60/29
f 25/77/33 17/62/34 18/63/35
f 25/77/33 18/63/35 22/71/36
f 25/77/33 22/71/36 21/70/37
f 25/77/33 21/70/37 17/62/34
f 26/78/38 18/64/39 19/65/40
f 26/78/38 19/65/40 23/73/41
f 26/78/38 23/73/41 22/72/42
f 26/78/38 22/72/42 18/64/39
f 27/79/43 19/66/44 16/67/45
f 27/79/43 16/67/45 20/75/46
f 27/79/43 20/75/46 23/74/47
f 27/79/43 23/74/47 19/66/44
f 46/112/48 28/80/49 29/81/50
f 46/112/48 29/81/50 38/97/51
f 46/112/48 38/97/51 37/96/52
f 46/112/48 37/96/52 28/80/49
f 47/113/53 29/82/54 30/83/55
f 47/113/53 30/83/55 39/99/56
f 47/113/53 39/99/56 38/98/57
f 47/113/53 38/98/57 29/82/54
f 48/114/58 30/84/59 31/85/60
f 48/114/58 31/85/60 40/101/61
f 48/114/58 40/101/61 39/100/62
f 48/114/58 39/100/62 30/84/59
f 49/115/63 31/86/64 32/87/65
f 49/115/63 32/87/65 41/103/66
f 49/115/63 41/103/66 40/102/67
f 49/115/63 40/102/67 31/86/64
f 50/116/68 32/88/69 33/89/70
f 50/116/68 33/89/70 42/105/71
f 50/116/68 42/105/71 41/104/72
f 50/116/68 41/104/72 32/88/69
f 51/117/73 33/89/70 34/90/74
f 51/117/73 34/90/74 43/106/75
f 51/117/73 43/106/75 42/105/71
f 51/117/73 42/105/71 33/89/70
f 52/118/76 34/90/74 35/91/77
f 52/118/76 35/91/77 44/107/78
f 52/118/76 44/107/78 43/106/75
f 52/118/76 43/106/75 34/90/74
f 53/119/79 35/92/80 36/93/81
f 53/119/79 36/93/81 45/109/82
f 53/119/79 45/109/82 44/108/83
f 53/119/79 44/108/83 35/92/80
f 54/120/84 36/94/85 28/95/49
f 54/120/84 28/95/49 37/111/52
f 54/120/84 37/111/52 45/110/86
f 54/120/84 45/110/86 36/94/85
