mtllib èµ„æº 39.mtl
# Vertex Positions: 
g groupNumber_0
v 2.17794 0 -0.8825
v 2.17794 0.544485 -0.8825
v 0.544485 0.544485 -0.8825
v 2.17794 2.17794 -0.8825
v 1.4081 2.17794 -0.8825
v 2.15412e-06 0.770143 -0.8825
v -1.40779 2.17794 -0.8825
v -2.17794 2.17794 -0.8825
v -0.544485 0.544485 -0.8825
v -2.17794 0.544485 -0.8825
v -2.17794 0 -0.8825
v -0.769841 0 -0.8825
v -2.17794 -1.4081 -0.8825
v -2.17794 -2.17794 -0.8825
v 2.15412e-06 0 -0.8825
v 2.17794 -2.17794 -0.8825
v 2.17794 -1.40779 -0.8825
v 0.770139 0 -0.8825
v 2.17794 0 0.8825
v 2.17794 0.544485 0.8825
v 0.544485 0.544485 0.8825
v 2.17794 2.17794 0.8825
v 1.4081 2.17794 0.8825
v 2.15412e-06 0.770143 0.8825
v -1.40779 2.17794 0.8825
v -2.17794 2.17794 0.8825
v -0.544485 0.544485 0.8825
v -2.17794 0.544485 0.8825
v -2.17794 0 0.8825
v -0.769841 0 0.8825
v -2.17794 -1.4081 0.8825
v -2.17794 -2.17794 0.8825
v 2.15412e-06 0 0.8825
v 2.17794 -2.17794 0.8825
v 2.17794 -1.40779 0.8825
v 0.770139 0 0.8825
v 2.17794 0.272242 0
v 1.36121 0.544485 0
v 1.36121 1.36121 0
v 1.79302 2.17794 0
v 0.70405 1.47404 0
v -0.703895 1.47404 0
v -1.79286 2.17794 0
v -1.36121 1.36121 0
v -1.36121 0.544485 0
v -2.17794 0.272242 0
v -1.47389 0 0
v -1.47389 -0.704048 0
v -2.17794 -1.79302 0
v -1.08897 -1.08897 0
v 1.08897 -1.08897 0
v 2.17794 -1.79287 0
v 1.47404 -0.703897 0
v 1.47404 0 0


# Vertex Texture Coordinates :
vt 0.411582 0.205791
vt 0.411582 0.257239
vt 0.257239 0.257239
vt 0.411582 0.411582
vt 0.338841 0.411582
vt 0.205791 0.278561
vt 0.0727702 0.411582
vt 0 0.411582
vt 0.154343 0.257239
vt 0 0.257239
vt 0 0.205791
vt 0.133049 0.205791
vt 0 0.0727415
vt 0 0
vt 0.205791 0.205791
vt 0.411582 0
vt 0.411582 0.07277
vt 0.27856 0.205791
vt 0 0.622397
vt 0 0.673845
vt 0.154343 0.673845
vt 0 0.828188
vt 0.0727412 0.828188
vt 0.205791 0.695167
vt 0.338812 0.828188
vt 0.411582 0.828188
vt 0.257239 0.673845
vt 0.411582 0.673845
vt 0.411582 0.622397
vt 0.278532 0.622397
vt 0.411582 0.489347
vt 0.411582 0.416606
vt 0.205791 0.622397
vt 0 0.416606
vt 0 0.489376
vt 0.133021 0.622397
vt 5.02165e-05 0.833227
vt 0.051498 0.833227
vt 0.0565724 0.833227
vt 0.210916 0.833227
vt 0.416645 1.51262e-05
vt 0.634919 1.51262e-05
vt 0.640019 1.51262e-05
vt 0.71276 1.51262e-05
vt 0.900901 1.51262e-05
vt 0.416639 0.171842
vt 0.604759 0.171842
vt 0.677529 0.171842
vt 0.682625 0.171842
vt 0.900899 0.171842
vt 0.21594 0.833227
vt 0.370283 0.833227
vt 0.906012 1.51262e-05
vt 0.95746 1.51262e-05
vt 0.416652 0.34367
vt 0.549701 0.34367
vt 0.554794 0.34367
vt 0.742955 0.34367
vt 0.905967 0.171842
vt 0.978708 0.171842
vt 0.554806 0.515497
vt 0.845838 0.515497
vt 0.554806 0.687325
vt 0.845838 0.687325
vt 0.850938 0.515497
vt 0.923707 0.515497
vt 0.748045 0.34367
vt 0.936165 0.34367
vt 0.850907 0.687325
vt 0.983928 0.687325
vt 5.02165e-05 1
vt 0.051498 1
vt 0.0565724 1
vt 0.210916 1
vt 0.416645 0.166788
vt 0.634919 0.166788
vt 0.640019 0.166788
vt 0.71276 0.166788
vt 0.900901 0.166788
vt 0.416639 0.338615
vt 0.604759 0.338615
vt 0.677529 0.338615
vt 0.682625 0.338615
vt 0.900899 0.338615
vt 0.21594 1
vt 0.370283 1
vt 0.906012 0.166788
vt 0.95746 0.166788
vt 0.416652 0.510443
vt 0.549701 0.510443
vt 0.554794 0.510443
vt 0.742955 0.510443
vt 0.905967 0.338615
vt 0.978708 0.338615
vt 0.554806 0.68227
vt 0.845838 0.68227
vt 0.554806 0.854097
vt 0.845838 0.854097
vt 0.850938 0.68227
vt 0.923707 0.68227
vt 0.748045 0.510443
vt 0.936165 0.510443
vt 0.850907 0.854097
vt 0.983928 0.854097
vt 0.0257741 0.916614
vt 0.133744 0.916614
vt 0.525782 0.0834016
vt 0.67639 0.0834016
vt 0.80683 0.0834016
vt 0.510699 0.255229
vt 0.641144 0.255229
vt 0.791762 0.255229
vt 0.293111 0.916614
vt 0.931736 0.0834016
vt 0.483177 0.427056
vt 0.648874 0.427056
vt 0.942337 0.255229
vt 0.700322 0.598884
vt 0.700322 0.770711
vt 0.887323 0.598884
vt 0.842105 0.427056
vt 0.917417 0.770711


# Vertex Surface Normals: 
vn 0 0 1
vn 0 0 -1
vn 1 0 0
vn 1 0 0
vn 1 0 0
vn 1 0 0
vn 1 0 0
vn 0 1 0
vn 0 1 0
vn 0 1 0
vn 0 1 0
vn 0 1 0
vn 0.707107 -0.707107 0
vn 0.707107 -0.707107 0
vn 0.707107 -0.707107 0
vn 0.707107 -0.707107 0
vn 0.707107 -0.707107 0
vn 0 1 0
vn 0 1 0
vn -0.382634 0.9239 0
vn -0.382634 0.9239 0
vn 0 1 0
vn -0.707031 0.707183 0
vn -0.707031 0.707183 0
vn -0.707031 0.707183 0
vn 0.707107 0.707107 0
vn 0.707107 0.707107 4.0049e-17
vn 0.382683 0.92388 2.16744e-17
vn 0.382683 0.92388 -2.16744e-17
vn 0.707107 0.707107 -4.0049e-17
vn 0 1 0
vn 0 1 0
vn 0 1 0
vn -0.707107 -0.707107 0
vn -0.707107 -0.707107 0
vn -0.707107 -0.707107 0
vn -0.707107 -0.707107 0
vn -0.707107 -0.707107 0
vn 0 1 0
vn 0 1 0
vn 0 1 0
vn 0 1 0
vn 0 1 0
vn -1 0 0
vn -1 0 0
vn -1 0 0
vn -1 0 0
vn -1 0 0
vn 0 -1 0
vn 0 -1 0
vn 0 -1 0
vn 0 -1 0
vn 0 -1 0
vn -0.707107 0.707107 0
vn -0.707107 0.707107 4.00346e-17
vn -0.707107 0.707107 4.00346e-17
vn -0.707107 0.707107 -4.00346e-17
vn -0.707107 0.707107 -4.00346e-17
vn -1 0 0
vn -1 0 0
vn -1 0 0
vn -1 0 0
vn -1 0 0
vn 0.707106 -0.707107 0
vn 0.707106 -0.707107 0
vn 0.707106 -0.707107 0
vn 0.707106 -0.707107 0
vn 0.707106 -0.707107 0
vn -0.707107 -0.707106 0
vn -0.707107 -0.707106 0
vn -0.707107 -0.707106 0
vn -0.707107 -0.707106 0
vn -0.707107 -0.707106 0
vn 1 0 0
vn 1 0 0
vn 1 0 0
vn 1 0 0
vn 1 0 0
vn 0.707106 0.707108 0
vn 0.707106 0.707108 -2.00245e-17
vn 0.707106 0.707108 -2.00245e-17
vn 0.707106 0.707108 2.00245e-17
vn 0.707106 0.707108 2.00245e-17
vn 0 -1 0
vn 0 -1 0
vn 0 -1 0
vn 0 -1 0
vn 0 -1 0


# Faces: 
usemtl material0
f 31/13/1 32/14/1 30/12/1
f 29/11/1 30/12/1 28/10/1
f 32/14/1 33/15/1 30/12/1
f 24/6/1 25/7/1 27/9/1
f 25/7/1 26/8/1 27/9/1
f 27/9/1 28/10/1 30/12/1
f 24/6/1 27/9/1 33/15/1
f 30/12/1 33/15/1 27/9/1
f 36/18/1 34/16/1 35/17/1
f 21/3/1 33/15/1 36/18/1
f 36/18/1 19/1/1 20/2/1
f 24/6/1 21/3/1 23/5/1
f 24/6/1 33/15/1 21/3/1
f 21/3/1 22/4/1 23/5/1
f 21/3/1 36/18/1 20/2/1
f 36/18/1 33/15/1 34/16/1
f 14/32/2 13/31/2 12/30/2
f 12/30/2 11/29/2 10/28/2
f 15/33/2 14/32/2 12/30/2
f 7/25/2 6/24/2 9/27/2
f 8/26/2 7/25/2 9/27/2
f 10/28/2 9/27/2 12/30/2
f 9/27/2 6/24/2 15/33/2
f 15/33/2 12/30/2 9/27/2
f 16/34/2 18/36/2 17/35/2
f 15/33/2 3/21/2 18/36/2
f 1/19/2 18/36/2 2/20/2
f 3/21/2 6/24/2 5/23/2
f 15/33/2 6/24/2 3/21/2
f 4/22/2 3/21/2 5/23/2
f 18/36/2 3/21/2 2/20/2
f 15/33/2 18/36/2 16/34/2
f 37/105/3 1/37/4 2/38/5
f 37/105/3 2/38/5 20/72/6
f 37/105/3 20/72/6 19/71/7
f 37/105/3 19/71/7 1/37/4
f 38/106/8 2/39/9 3/40/10
f 38/106/8 3/40/10 21/74/11
f 38/106/8 21/74/11 20/73/12
f 38/106/8 20/73/12 2/39/9
f 39/107/13 3/41/14 4/42/15
f 39/107/13 4/42/15 22/76/16
f 39/107/13 22/76/16 21/75/17
f 39/107/13 21/75/17 3/41/14
f 40/108/18 4/43/19 5/44/20
f 40/108/18 5/44/20 23/78/21
f 40/108/18 23/78/21 22/77/22
f 40/108/18 22/77/22 4/43/19
f 41/109/23 5/44/20 6/45/24
f 41/109/23 6/45/24 24/79/25
f 41/109/23 24/79/25 23/78/21
f 41/109/23 23/78/21 5/44/20
f 42/110/26 6/46/27 7/47/28
f 42/110/26 7/47/28 25/81/29
f 42/110/26 25/81/29 24/80/30
f 42/110/26 24/80/30 6/46/27
f 43/111/31 7/47/28 8/48/32
f 43/111/31 8/48/32 26/82/33
f 43/111/31 26/82/33 25/81/29
f 43/111/31 25/81/29 7/47/28
f 44/112/34 8/49/35 9/50/36
f 44/112/34 9/50/36 27/84/37
f 44/112/34 27/84/37 26/83/38
f 44/112/34 26/83/38 8/49/35
f 45/113/39 9/51/40 10/52/41
f 45/113/39 10/52/41 28/86/42
f 45/113/39 28/86/42 27/85/43
f 45/113/39 27/85/43 9/51/40
f 46/114/44 10/53/45 11/54/46
f 46/114/44 11/54/46 29/88/47
f 46/114/44 29/88/47 28/87/48
f 46/114/44 28/87/48 10/53/45
f 47/115/49 11/55/50 12/56/51
f 47/115/49 12/56/51 30/90/52
f 47/115/49 30/90/52 29/89/53
f 47/115/49 29/89/53 11/55/50
f 48/116/54 12/57/55 13/58/56
f 48/116/54 13/58/56 31/92/57
f 48/116/54 31/92/57 30/91/58
f 48/116/54 30/91/58 12/57/55
f 49/117/59 13/59/60 14/60/61
f 49/117/59 14/60/61 32/94/62
f 49/117/59 32/94/62 31/93/63
f 49/117/59 31/93/63 13/59/60
f 50/118/64 14/61/65 15/62/66
f 50/118/64 15/62/66 33/96/67
f 50/118/64 33/96/67 32/95/68
f 50/118/64 32/95/68 14/61/65
f 51/119/69 15/63/70 16/64/71
f 51/119/69 16/64/71 34/98/72
f 51/119/69 34/98/72 33/97/73
f 51/119/69 33/97/73 15/63/70
f 52/120/74 16/65/75 17/66/76
f 52/120/74 17/66/76 35/100/77
f 52/120/74 35/100/77 34/99/78
f 52/120/74 34/99/78 16/65/75
f 53/121/79 17/67/80 18/68/81
f 53/121/79 18/68/81 36/102/82
f 53/121/79 36/102/82 35/101/83
f 53/121/79 35/101/83 17/67/80
f 54/122/84 18/69/85 1/70/86
f 54/122/84 1/70/86 19/104/87
f 54/122/84 19/104/87 36/103/88
f 54/122/84 36/103/88 18/69/85
