mtllib èµ„æº 4.mtl
# Vertex Positions: 
g groupNumber_0
v 2.17851 -2.17851 -0.8825
v 2.17851 2.17851 -0.8825
v -2.17851 -2.17609 -0.8825
v -1.41089 -2.17851 -0.8825
v 1.63389 0.866262 -0.8825
v 1.63389 -2.17851 -0.8825
v 2.17851 -2.17851 0.8825
v 2.17851 2.17851 0.8825
v -2.17851 -2.17609 0.8825
v -1.41089 -2.17851 0.8825
v 1.63389 0.866262 0.8825
v 1.63389 -2.17851 0.8825
v 2.17851 0 0
v 0 0.00120978 0
v -1.7947 -2.1773 0
v 0.111498 -0.656126 0
v 1.63389 -0.656126 0
v 1.9062 -2.17851 0


# Vertex Texture Coordinates :
vt 0.411314 3.45317e-05
vt 0.411314 0.411348
vt 0 0.000262943
vt 0.0724656 3.45317e-05
vt 0.3599 0.287469
vt 0.3599 3.45317e-05
vt 0 0.418573
vt 0 0.829887
vt 0.411314 0.418801
vt 0.338849 0.418573
vt 0.0514143 0.706007
vt 0.0514143 0.418573
vt 0.418539 0
vt 0.829853 0
vt 0.418476 0.173776
vt 1 0.173776
vt 0.837055 0
vt 0.909521 0
vt 0.418535 0.347552
vt 0.825029 0.347552
vt 0.418507 0.521327
vt 0.705941 0.521327
vt 0.916723 0
vt 0.968137 0
vt 0.418539 0.16662
vt 0.829853 0.16662
vt 0.418476 0.340396
vt 1 0.340396
vt 0.837055 0.16662
vt 0.909521 0.16662
vt 0.418535 0.514172
vt 0.825029 0.514172
vt 0.418507 0.687948
vt 0.705941 0.687948
vt 0.916723 0.16662
vt 0.968137 0.16662
vt 0.624196 0.0833101
vt 0.709238 0.257086
vt 0.873288 0.0833101
vt 0.621782 0.430862
vt 0.562224 0.604638
vt 0.94243 0.0833101


# Vertex Surface Normals: 
vn 0 0 1
vn 0 0 -1
vn 1 0 0
vn 1 0 0
vn 1 0 0
vn 1 0 0
vn 1 0 0
vn -0.70691 0.707303 0
vn -0.70691 0.707303 -1.86203e-17
vn -0.70691 0.707303 -1.86203e-17
vn -0.70691 0.707303 1.86203e-17
vn -0.70691 0.707303 1.86203e-17
vn -0.00315198 -0.999995 0
vn -0.00315198 -0.999995 4.55166e-19
vn -0.00315198 -0.999995 4.55166e-19
vn -0.00315198 -0.999995 -4.55166e-19
vn -0.00315198 -0.999995 -4.55166e-19
vn 0.707107 -0.707107 0
vn 0.707107 -0.707107 -1.85675e-17
vn 0.707107 -0.707107 -1.85675e-17
vn 0.707107 -0.707107 1.85675e-17
vn 0.707107 -0.707107 1.85675e-17
vn -1 0 0
vn -1 0 0
vn -1 0 0
vn -1 0 0
vn -1 0 0
vn 0 -1 0
vn 0 -1 0
vn 0 -1 0
vn 0 -1 0
vn 0 -1 0


# Faces: 
usemtl material0
f 11/5/1 9/3/1 10/4/1
f 11/5/1 7/1/1 8/2/1
f 7/1/1 11/5/1 12/6/1
f 11/5/1 8/2/1 9/3/1
f 3/9/2 5/11/2 4/10/2
f 1/7/2 5/11/2 2/8/2
f 5/11/2 1/7/2 6/12/2
f 2/8/2 5/11/2 3/9/2
f 13/37/3 1/13/4 2/14/5
f 13/37/3 2/14/5 8/26/6
f 13/37/3 8/26/6 7/25/7
f 13/37/3 7/25/7 1/13/4
f 14/38/8 2/15/9 3/16/10
f 14/38/8 3/16/10 9/28/11
f 14/38/8 9/28/11 8/27/12
f 14/38/8 8/27/12 2/15/9
f 15/39/13 3/17/14 4/18/15
f 15/39/13 4/18/15 10/30/16
f 15/39/13 10/30/16 9/29/17
f 15/39/13 9/29/17 3/17/14
f 16/40/18 4/19/19 5/20/20
f 16/40/18 5/20/20 11/32/21
f 16/40/18 11/32/21 10/31/22
f 16/40/18 10/31/22 4/19/19
f 17/41/23 5/21/24 6/22/25
f 17/41/23 6/22/25 12/34/26
f 17/41/23 12/34/26 11/33/27
f 17/41/23 11/33/27 5/21/24
f 18/42/28 6/23/29 1/24/30
f 18/42/28 1/24/30 7/36/31
f 18/42/28 7/36/31 12/35/32
f 18/42/28 12/35/32 6/23/29
