mtllib èµ„æº 40.mtl
# Vertex Positions: 
g groupNumber_0
v 1.47389 -2.17794 -0.8825
v -0.70405 0 -0.8825
v 1.47389 2.17794 -0.8825
v 0.703744 2.17794 -0.8825
v -1.08912 0.385073 -0.8825
v -1.47389 0 -0.8825
v -1.08912 -0.38507 -0.8825
v -0.929407 -0.544485 -0.8825
v 0.703744 -2.17794 -0.8825
v 1.47389 -2.17794 0.8825
v -0.70405 0 0.8825
v 1.47389 2.17794 0.8825
v 0.703744 2.17794 0.8825
v -1.08912 0.385073 0.8825
v -1.47389 0 0.8825
v -1.08912 -0.38507 0.8825
v -0.929407 -0.544485 0.8825
v 0.703744 -2.17794 0.8825
v 0.38492 -1.08897 0
v 0.38492 1.08897 0
v 1.08882 2.17794 0
v -0.192689 1.2815 0
v -1.28151 0.192536 0
v -1.28151 -0.192535 0
v -1.00926 -0.464778 0
v -0.112831 -1.36121 0
v 1.08882 -2.17794 0


# Vertex Texture Coordinates :
vt 0.336315 0
vt 0.0878318 0.248483
vt 0.336315 0.496967
vt 0.248449 0.496967
vt 0.0438985 0.292417
vt 0 0.248483
vt 0.0438985 0.20455
vt 0.0621207 0.186362
vt 0.248449 0
vt 0 0.503033
vt 0.248484 0.751517
vt 0 1
vt 0.0878667 1
vt 0.292417 0.79545
vt 0.336315 0.751517
vt 0.292417 0.707584
vt 0.274195 0.689396
vt 0.0878667 0.503033
vt 0.342429 1.82645e-05
vt 0.693838 1.82645e-05
vt 0.342429 0.207492
vt 0.693838 0.207492
vt 0.342429 0.414966
vt 0.430296 0.414966
vt 0.719574 0.414966
vt 0.78168 0.414966
vt 0.342441 0.62244
vt 0.404548 0.62244
vt 0.430293 0.62244
vt 0.693825 0.62244
vt 0.787838 0.414966
vt 0.875704 0.414966
vt 0.342429 0.201389
vt 0.693838 0.201389
vt 0.342429 0.408863
vt 0.693838 0.408863
vt 0.342429 0.616337
vt 0.430296 0.616337
vt 0.719574 0.616337
vt 0.78168 0.616337
vt 0.342441 0.823811
vt 0.404548 0.823811
vt 0.430293 0.823811
vt 0.693825 0.823811
vt 0.787838 0.616337
vt 0.875704 0.616337
vt 0.518133 0.100704
vt 0.518133 0.308178
vt 0.386363 0.515652
vt 0.574935 0.515652
vt 0.750627 0.515652
vt 0.373495 0.723125
vt 0.417421 0.723125
vt 0.562059 0.723125
vt 0.831771 0.515652


# Vertex Surface Normals: 
vn 0 0 1
vn 0 0 -1
vn 0.707106 0.707107 0
vn 0.707106 0.707107 0
vn 0.707106 0.707107 0
vn 0.707106 0.707107 0
vn 0.707106 0.707107 0
vn 0.707106 -0.707107 0
vn 0.707106 -0.707107 0
vn 0.707106 -0.707107 0
vn 0.707106 -0.707107 0
vn 0.707106 -0.707107 0
vn 0 1 0
vn 0 1 0
vn -0.382683 0.92388 9.28038e-18
vn -0.382683 0.92388 -9.28038e-18
vn 0 1 0
vn -0.707106 0.707107 0
vn -0.707247 0.706966 -1.75227e-17
vn -0.707247 0.706966 1.75227e-17
vn -0.707388 0.706826 0
vn -0.707388 0.706826 -5.21934e-17
vn -0.707388 0.706826 5.21934e-17
vn -0.707386 -0.706828 0
vn -0.707386 -0.706828 -5.21936e-17
vn -0.706912 -0.707301 -6.71909e-17
vn -0.706912 -0.707301 6.71909e-17
vn -0.707386 -0.706828 5.21936e-17
vn -0.706438 -0.707775 0
vn -0.706805 -0.707408 -6.12905e-17
vn -0.706805 -0.707408 6.12905e-17
vn -0.707172 -0.707041 0
vn -0.707172 -0.707041 -4.03927e-17
vn -0.707172 -0.707041 4.03927e-17
vn 0 -1 0
vn 0 -1 0
vn 0 -1 0
vn 0 -1 0
vn 0 -1 0


# Faces: 
usemtl material0
f 11/2/1 15/6/1 16/7/1
f 11/2/1 14/5/1 15/6/1
f 16/7/1 17/8/1 11/2/1
f 18/9/1 10/1/1 11/2/1
f 11/2/1 12/3/1 13/4/1
f 11/2/1 13/4/1 14/5/1
f 18/9/1 11/2/1 17/8/1
f 6/15/2 2/11/2 7/16/2
f 5/14/2 2/11/2 6/15/2
f 8/17/2 7/16/2 2/11/2
f 1/10/2 9/18/2 2/11/2
f 3/12/2 2/11/2 4/13/2
f 4/13/2 2/11/2 5/14/2
f 2/11/2 9/18/2 8/17/2
f 19/47/3 1/19/4 2/20/5
f 19/47/3 2/20/5 11/34/6
f 19/47/3 11/34/6 10/33/7
f 19/47/3 10/33/7 1/19/4
f 20/48/8 2/21/9 3/22/10
f 20/48/8 3/22/10 12/36/11
f 20/48/8 12/36/11 11/35/12
f 20/48/8 11/35/12 2/21/9
f 21/49/13 3/23/14 4/24/15
f 21/49/13 4/24/15 13/38/16
f 21/49/13 13/38/16 12/37/17
f 21/49/13 12/37/17 3/23/14
f 22/50/18 4/24/15 5/25/19
f 22/50/18 5/25/19 14/39/20
f 22/50/18 14/39/20 13/38/16
f 22/50/18 13/38/16 4/24/15
f 23/51/21 5/25/19 6/26/22
f 23/51/21 6/26/22 15/40/23
f 23/51/21 15/40/23 14/39/20
f 23/51/21 14/39/20 5/25/19
f 24/52/24 6/27/25 7/28/26
f 24/52/24 7/28/26 16/42/27
f 24/52/24 16/42/27 15/41/28
f 24/52/24 15/41/28 6/27/25
f 25/53/29 7/28/26 8/29/30
f 25/53/29 8/29/30 17/43/31
f 25/53/29 17/43/31 16/42/27
f 25/53/29 16/42/27 7/28/26
f 26/54/32 8/29/30 9/30/33
f 26/54/32 9/30/33 18/44/34
f 26/54/32 18/44/34 17/43/31
f 26/54/32 17/43/31 8/29/30
f 27/55/35 9/31/36 1/32/37
f 27/55/35 1/32/37 10/46/38
f 27/55/35 10/46/38 18/45/39
f 27/55/35 18/45/39 9/31/36
