mtllib èµ„æº 41.mtl
# Vertex Positions: 
g groupNumber_0
v 1.08912 -0.385073 -0.8825
v 1.47389 0 -0.8825
v 1.08912 0.38507 -0.8825
v 0.929407 0.544485 -0.8825
v -0.703744 2.17794 -0.8825
v -1.47389 2.17794 -0.8825
v 0.70405 0 -0.8825
v -1.47389 -2.17794 -0.8825
v -0.703744 -2.17794 -0.8825
v 1.08912 -0.385073 0.8825
v 1.47389 0 0.8825
v 1.08912 0.38507 0.8825
v 0.929407 0.544485 0.8825
v -0.703744 2.17794 0.8825
v -1.47389 2.17794 0.8825
v 0.70405 0 0.8825
v -1.47389 -2.17794 0.8825
v -0.703744 -2.17794 0.8825
v 1.28151 -0.192536 0
v 1.28151 0.192535 0
v 1.00926 0.464778 0
v 0.112831 1.36121 0
v -1.08882 2.17794 0
v -0.38492 1.08897 0
v -0.38492 -1.08897 0
v -1.08882 -2.17794 0
v 0.192689 -1.2815 0


# Vertex Texture Coordinates :
vt 0.292417 0.20455
vt 0.336315 0.248483
vt 0.292417 0.292416
vt 0.274195 0.310604
vt 0.0878667 0.496967
vt 0 0.496967
vt 0.248484 0.248483
vt 0 0
vt 0.0878667 0
vt 0.0438985 0.707583
vt 0 0.751517
vt 0.0438985 0.79545
vt 0.0621207 0.813638
vt 0.248449 1
vt 0.336315 1
vt 0.0878318 0.751517
vt 0.336315 0.503033
vt 0.248449 0.503033
vt 0.342394 1.82645e-05
vt 0.404501 1.82645e-05
vt 0.410629 1.82645e-05
vt 0.472735 1.82645e-05
vt 0.498481 1.82645e-05
vt 0.762013 1.82645e-05
vt 0.768182 1.82645e-05
vt 0.856049 1.82645e-05
vt 0.410616 0.207492
vt 0.762025 0.207492
vt 0.410616 0.414966
vt 0.762025 0.414966
vt 0.41061 0.62244
vt 0.498476 0.62244
vt 0.787754 0.62244
vt 0.342394 0.201389
vt 0.404501 0.201389
vt 0.410629 0.201389
vt 0.472735 0.201389
vt 0.498481 0.201389
vt 0.762013 0.201389
vt 0.768182 0.201389
vt 0.856049 0.201389
vt 0.410616 0.408863
vt 0.762025 0.408863
vt 0.410616 0.616337
vt 0.762025 0.616337
vt 0.41061 0.823811
vt 0.498476 0.823811
vt 0.787754 0.823811
vt 0.373448 0.100704
vt 0.441682 0.100704
vt 0.485608 0.100704
vt 0.630247 0.100704
vt 0.812116 0.100704
vt 0.586321 0.308178
vt 0.586321 0.515652
vt 0.454543 0.723125
vt 0.643115 0.723125


# Vertex Surface Normals: 
vn 0 0 1
vn 0 0 -1
vn 0.707388 -0.706826 0
vn 0.707247 -0.706966 0
vn 0.707388 -0.706826 0
vn 0.707388 -0.706826 0
vn 0.707247 -0.706966 0
vn 0.707386 0.706828 0
vn 0.707386 0.706828 0
vn 0.706912 0.707301 1.53362e-17
vn 0.706912 0.707301 -1.53362e-17
vn 0.707386 0.706828 0
vn 0.706438 0.707775 0
vn 0.706805 0.707408 2.6171e-17
vn 0.706805 0.707408 -2.6171e-17
vn 0.707172 0.707041 0
vn 0.707172 0.707041 2.16696e-17
vn 0.707172 0.707041 -2.16696e-17
vn 0 1 0
vn 0 1 0
vn 0 1 0
vn 0 1 0
vn 0 1 0
vn -0.707106 -0.707107 0
vn -0.707106 -0.707107 2.59202e-17
vn -0.707106 -0.707107 2.59202e-17
vn -0.707106 -0.707107 -2.59202e-17
vn -0.707106 -0.707107 -2.59202e-17
vn -0.707106 0.707107 0
vn -0.707106 0.707107 0
vn -0.707106 0.707107 0
vn -0.707106 0.707107 0
vn -0.707106 0.707107 0
vn 0 -1 0
vn 0 -1 0
vn 0.382683 -0.92388 0
vn 0.382683 -0.92388 0
vn 0 -1 0
vn 0.707106 -0.707107 0


# Faces: 
usemtl material0
f 16/7/1 14/5/1 15/6/1
f 17/8/1 18/9/1 16/7/1
f 16/7/1 10/1/1 11/2/1
f 10/1/1 16/7/1 18/9/1
f 16/7/1 12/3/1 13/4/1
f 12/3/1 16/7/1 11/2/1
f 16/7/1 13/4/1 14/5/1
f 5/14/2 7/16/2 6/15/2
f 9/18/2 8/17/2 7/16/2
f 1/10/2 7/16/2 2/11/2
f 7/16/2 1/10/2 9/18/2
f 3/12/2 7/16/2 4/13/2
f 7/16/2 3/12/2 2/11/2
f 4/13/2 7/16/2 5/14/2
f 19/49/3 1/19/4 2/20/5
f 19/49/3 2/20/5 11/35/6
f 19/49/3 11/35/6 10/34/7
f 19/49/3 10/34/7 1/19/4
f 20/50/8 2/21/9 3/22/10
f 20/50/8 3/22/10 12/37/11
f 20/50/8 12/37/11 11/36/12
f 20/50/8 11/36/12 2/21/9
f 21/51/13 3/22/10 4/23/14
f 21/51/13 4/23/14 13/38/15
f 21/51/13 13/38/15 12/37/11
f 21/51/13 12/37/11 3/22/10
f 22/52/16 4/23/14 5/24/17
f 22/52/16 5/24/17 14/39/18
f 22/52/16 14/39/18 13/38/15
f 22/52/16 13/38/15 4/23/14
f 23/53/19 5/25/20 6/26/21
f 23/53/19 6/26/21 15/41/22
f 23/53/19 15/41/22 14/40/23
f 23/53/19 14/40/23 5/25/20
f 24/54/24 6/27/25 7/28/26
f 24/54/24 7/28/26 16/43/27
f 24/54/24 16/43/27 15/42/28
f 24/54/24 15/42/28 6/27/25
f 25/55/29 7/29/30 8/30/31
f 25/55/29 8/30/31 17/45/32
f 25/55/29 17/45/32 16/44/33
f 25/55/29 16/44/33 7/29/30
f 26/56/34 8/31/35 9/32/36
f 26/56/34 9/32/36 18/47/37
f 26/56/34 18/47/37 17/46/38
f 26/56/34 17/46/38 8/31/35
f 27/57/39 9/32/36 1/33/4
f 27/57/39 1/33/4 10/48/7
f 27/57/39 10/48/7 18/47/37
f 27/57/39 18/47/37 9/32/36
