mtllib èµ„æº 42.mtl
# Vertex Positions: 
g groupNumber_0
v 1.79316 -0.38507 -0.8825
v 2.17794 0 -0.8825
v 1.79316 0.385073 -0.8825
v 1.63345 0.544485 -0.8825
v 0.000299482 2.17794 -0.8825
v -0.769846 2.17794 -0.8825
v 1.13585 0.272241 -0.8825
v -1.63345 0.272241 -0.8825
v -2.17794 -0.272241 -0.8825
v 1.13585 -0.272241 -0.8825
v -0.769846 -2.17794 -0.8825
v 0.000299482 -2.17794 -0.8825
v 1.79316 -0.38507 0.8825
v 2.17794 0 0.8825
v 1.79316 0.385073 0.8825
v 1.63345 0.544485 0.8825
v 0.000299482 2.17794 0.8825
v -0.769846 2.17794 0.8825
v 1.13585 0.272241 0.8825
v -1.63345 0.272241 0.8825
v -2.17794 -0.272241 0.8825
v 1.13585 -0.272241 0.8825
v -0.769846 -2.17794 0.8825
v 0.000299482 -2.17794 0.8825
v 1.98555 -0.192535 0
v 1.98555 0.192536 0
v 1.71331 0.464779 0
v 0.816875 1.36121 0
v -0.384773 2.17794 0
v 0.183 1.22509 0
v -0.248804 0.272241 0
v -1.9057 0 0
v -0.521046 -0.272241 0
v 0.183 -1.22509 0
v -0.384773 -2.17794 0
v 0.896731 -1.2815 0


# Vertex Texture Coordinates :
vt 0.385858 0.174207
vt 0.423245 0.211622
vt 0.385858 0.249039
vt 0.370339 0.264528
vt 0.211652 0.423245
vt 0.136819 0.423245
vt 0.321989 0.238075
vt 0.0529055 0.238075
vt 0 0.18517
vt 0.321989 0.18517
vt 0.136819 0
vt 0.211652 0
vt 0.0373872 0.602618
vt 0 0.640034
vt 0.0373872 0.67745
vt 0.0529059 0.69294
vt 0.211593 0.851656
vt 0.286426 0.851656
vt 0.101256 0.666487
vt 0.370339 0.666487
vt 0.423245 0.613581
vt 0.101256 0.613581
vt 0.286426 0.428411
vt 0.211593 0.428411
vt 0.428417 1.55549e-05
vt 0.481311 1.55549e-05
vt 0.48653 1.55549e-05
vt 0.539424 1.55549e-05
vt 0.56135 1.55549e-05
vt 0.785788 1.55549e-05
vt 0.791042 1.55549e-05
vt 0.865875 1.55549e-05
vt 0.486521 0.176712
vt 0.748391 0.176712
vt 0.486531 0.353409
vt 0.755614 0.353409
vt 0.87113 1.55549e-05
vt 0.94595 1.55549e-05
vt 0.486531 0.530105
vt 0.80852 0.530105
vt 0.486521 0.706801
vt 0.748391 0.706801
vt 0.813775 0.530105
vt 0.888608 0.530105
vt 0.753635 0.176712
vt 1 0.176712
vt 0.428417 0.171514
vt 0.481311 0.171514
vt 0.48653 0.171514
vt 0.539424 0.171514
vt 0.56135 0.171514
vt 0.785788 0.171514
vt 0.791042 0.171514
vt 0.865875 0.171514
vt 0.486521 0.348211
vt 0.748391 0.348211
vt 0.486531 0.524907
vt 0.755614 0.524907
vt 0.87113 0.171514
vt 0.94595 0.171514
vt 0.486531 0.701604
vt 0.80852 0.701604
vt 0.486521 0.8783
vt 0.748391 0.8783
vt 0.813775 0.701604
vt 0.888608 0.701604
vt 0.753635 0.348211
vt 1 0.348211
vt 0.454864 0.085765
vt 0.512977 0.085765
vt 0.550387 0.085765
vt 0.673569 0.085765
vt 0.828458 0.085765
vt 0.617456 0.262461
vt 0.621073 0.439158
vt 0.90854 0.085765
vt 0.647525 0.615854
vt 0.617456 0.792551
vt 0.851191 0.615854
vt 0.876818 0.262461


# Vertex Surface Normals: 
vn 0 0 1
vn 0 0 -1
vn 0.707378 -0.706836 0
vn 0.707243 -0.706971 6.54946e-17
vn 0.707378 -0.706836 9.85956e-17
vn 0.707378 -0.706836 -9.85956e-17
vn 0.707243 -0.706971 -6.54946e-17
vn 0.70738 0.706834 0
vn 0.70738 0.706834 8.87358e-17
vn 0.706912 0.707302 6.96824e-17
vn 0.706912 0.707302 -6.96824e-17
vn 0.70738 0.706834 -8.87358e-17
vn 0.706443 0.70777 0
vn 0.706808 0.707406 5.39287e-17
vn 0.706808 0.707406 -5.39287e-17
vn 0.707172 0.707041 0
vn 0.707172 0.707041 5.72283e-17
vn 0.707172 0.707041 -5.72283e-17
vn 0 1 0
vn 0 1 0
vn 0 1 0
vn 0 1 0
vn 0 1 0
vn -0.707108 -0.707106 0
vn -0.707108 -0.707106 -2.90573e-17
vn -0.707108 -0.707106 -2.90573e-17
vn -0.707108 -0.707106 2.90573e-17
vn -0.707108 -0.707106 2.90573e-17
vn 0 1 0
vn 0 1 0
vn 0 1 0
vn 0 1 0
vn 0 1 0
vn -0.707107 0.707107 0
vn -0.707107 0.707107 0
vn -0.707107 0.707107 0
vn -0.707107 0.707107 0
vn -0.707107 0.707107 0
vn 0 -1 0
vn 0 -1 0
vn 0 -1 0
vn 0 -1 0
vn 0 -1 0
vn -0.707108 0.707106 0
vn -0.707108 0.707106 5.81146e-17
vn -0.707108 0.707106 5.81146e-17
vn -0.707108 0.707106 -5.81146e-17
vn -0.707108 0.707106 -5.81146e-17
vn 0 -1 0
vn 0 -1 0
vn 0 -1 0
vn 0 -1 0
vn 0 -1 0
vn 0.707108 -0.707106 0
vn 0.707108 -0.707106 3.23935e-17
vn 0.707108 -0.707106 -3.23935e-17


# Faces: 
usemtl material0
f 23/11/1 24/12/1 22/10/1
f 17/5/1 18/6/1 19/7/1
f 21/9/1 22/10/1 20/8/1
f 19/7/1 22/10/1 13/1/1
f 13/1/1 22/10/1 24/12/1
f 15/3/1 13/1/1 14/2/1
f 19/7/1 15/3/1 16/4/1
f 15/3/1 19/7/1 13/1/1
f 19/7/1 16/4/1 17/5/1
f 22/10/1 19/7/1 20/8/1
f 12/24/2 11/23/2 10/22/2
f 6/18/2 5/17/2 7/19/2
f 10/22/2 9/21/2 8/20/2
f 10/22/2 7/19/2 1/13/2
f 10/22/2 1/13/2 12/24/2
f 1/13/2 3/15/2 2/14/2
f 3/15/2 7/19/2 4/16/2
f 7/19/2 3/15/2 1/13/2
f 4/16/2 7/19/2 5/17/2
f 7/19/2 10/22/2 8/20/2
f 25/69/3 1/25/4 2/26/5
f 25/69/3 2/26/5 14/48/6
f 25/69/3 14/48/6 13/47/7
f 25/69/3 13/47/7 1/25/4
f 26/70/8 2/27/9 3/28/10
f 26/70/8 3/28/10 15/50/11
f 26/70/8 15/50/11 14/49/12
f 26/70/8 14/49/12 2/27/9
f 27/71/13 3/28/10 4/29/14
f 27/71/13 4/29/14 16/51/15
f 27/71/13 16/51/15 15/50/11
f 27/71/13 15/50/11 3/28/10
f 28/72/16 4/29/14 5/30/17
f 28/72/16 5/30/17 17/52/18
f 28/72/16 17/52/18 16/51/15
f 28/72/16 16/51/15 4/29/14
f 29/73/19 5/31/20 6/32/21
f 29/73/19 6/32/21 18/54/22
f 29/73/19 18/54/22 17/53/23
f 29/73/19 17/53/23 5/31/20
f 30/74/24 6/33/25 7/34/26
f 30/74/24 7/34/26 19/56/27
f 30/74/24 19/56/27 18/55/28
f 30/74/24 18/55/28 6/33/25
f 31/75/29 7/35/30 8/36/31
f 31/75/29 8/36/31 20/58/32
f 31/75/29 20/58/32 19/57/33
f 31/75/29 19/57/33 7/35/30
f 32/76/34 8/37/35 9/38/36
f 32/76/34 9/38/36 21/60/37
f 32/76/34 21/60/37 20/59/38
f 32/76/34 20/59/38 8/37/35
f 33/77/39 9/39/40 10/40/41
f 33/77/39 10/40/41 22/62/42
f 33/77/39 22/62/42 21/61/43
f 33/77/39 21/61/43 9/39/40
f 34/78/44 10/41/45 11/42/46
f 34/78/44 11/42/46 23/64/47
f 34/78/44 23/64/47 22/63/48
f 34/78/44 22/63/48 10/41/45
f 35/79/49 11/43/50 12/44/51
f 35/79/49 12/44/51 24/66/52
f 35/79/49 24/66/52 23/65/53
f 35/79/49 23/65/53 11/43/50
f 36/80/54 12/45/55 1/46/4
f 36/80/54 1/46/4 13/68/7
f 36/80/54 13/68/7 24/67/56
f 36/80/54 24/67/56 12/45/55
