mtllib èµ„æº 43.mtl
# Vertex Positions: 
g groupNumber_0
v 1.63389 1.63389 -0.8825
v 2.17851 2.17851 -0.8825
v -2.17851 2.17851 -0.8825
v -2.17851 1.63389 -0.8825
v 1.63389 1.63389 0.8825
v 2.17851 2.17851 0.8825
v -2.17851 2.17851 0.8825
v -2.17851 1.63389 0.8825
v 1.9062 1.9062 0
v 8.80951e-10 2.17851 0
v -2.17851 1.9062 0
v -0.272315 1.63389 0


# Vertex Texture Coordinates :
vt 0.735783 0
vt 0.840895 0.105112
vt 0 0.105112
vt 0 0
vt 0.105112 0.115582
vt 0 0.220694
vt 0.840895 0.220694
vt 0.840895 0.115582
vt 9.46355e-05 0.231137
vt 0.148745 0.231137
vt 0.159105 0.231137
vt 1 0.231137
vt 0.000102596 0.582195
vt 0.105215 0.582195
vt 0.159105 0.582195
vt 0.894888 0.582195
vt 9.46355e-05 0.571778
vt 0.148745 0.571778
vt 0.159105 0.571778
vt 1 0.571778
vt 0.000102596 0.922835
vt 0.105215 0.922835
vt 0.159105 0.922835
vt 0.894888 0.922835
vt 0.07442 0.401458
vt 0.579552 0.401458
vt 0.0526586 0.752515
vt 0.526997 0.752515


# Vertex Surface Normals: 
vn 0 0 1
vn 0 0 -1
vn 0.707107 -0.707107 0
vn 0.707107 -0.707107 -8.13895e-17
vn 0.707107 -0.707107 -8.13895e-17
vn 0.707107 -0.707107 8.13895e-17
vn 0.707107 -0.707107 8.13895e-17
vn 0 1 0
vn 0 1 0
vn 0 1 0
vn 0 1 0
vn 0 1 0
vn -1 0 0
vn -1 0 0
vn -1 0 0
vn -1 0 0
vn -1 0 0
vn 0 -1 0
vn 0 -1 0
vn 0 -1 0
vn 0 -1 0
vn 0 -1 0


# Faces: 
usemtl material0
f 7/3/1 8/4/1 5/1/1
f 5/1/1 6/2/1 7/3/1
f 4/8/2 3/7/2 1/5/2
f 2/6/2 1/5/2 3/7/2
f 9/25/3 1/9/4 2/10/5
f 9/25/3 2/10/5 6/18/6
f 9/25/3 6/18/6 5/17/7
f 9/25/3 5/17/7 1/9/4
f 10/26/8 2/11/9 3/12/10
f 10/26/8 3/12/10 7/20/11
f 10/26/8 7/20/11 6/19/12
f 10/26/8 6/19/12 2/11/9
f 11/27/13 3/13/14 4/14/15
f 11/27/13 4/14/15 8/22/16
f 11/27/13 8/22/16 7/21/17
f 11/27/13 7/21/17 3/13/14
f 12/28/18 4/15/19 1/16/20
f 12/28/18 1/16/20 5/24/21
f 12/28/18 5/24/21 8/23/22
f 12/28/18 8/23/22 4/15/19

# Vertex Positions: 
g groupNumber_1
v 1.03177 0.816944 -0.8825
v -2.17851 0.816944 -0.8825
v -2.17851 0.272315 -0.8825
v 0.486838 0.272315 -0.8825
v 1.03177 0.816944 0.8825
v -2.17851 0.816944 0.8825
v -2.17851 0.272315 0.8825
v 0.486838 0.272315 0.8825
v -0.573374 0.816944 -2.22045e-16
v -2.17851 0.544629 -2.22045e-16
v -0.845838 0.272315 -2.22045e-16
v 0.759302 0.544629 -2.22045e-16


# Vertex Texture Coordinates :
vt 0.677705 0.114974
vt 0 0.114974
vt 0 0
vt 0.562668 0
vt 0 0.238238
vt 0.677705 0.238238
vt 0.677705 0.123264
vt 0.115037 0.123264
vt 0 0.246522
vt 0.677705 0.246522
vt 0.685987 0.246522
vt 0.80096 0.246522
vt 2.2739e-05 0.627401
vt 0.562691 0.627401
vt 0.809242 0.246522
vt 0.971884 0.246522
vt 0 0.619122
vt 0.677705 0.619122
vt 0.685987 0.619122
vt 0.80096 0.619122
vt 2.2739e-05 1
vt 0.562691 1
vt 0.809242 0.619122
vt 0.971884 0.619122
vt 0.338852 0.432822
vt 0.743473 0.432822
vt 0.281357 0.8137
vt 0.890563 0.432822


# Vertex Surface Normals: 
vn 0 0 1
vn 0 0 -1
vn 0 1 0
vn 0 1 0
vn 0 1 0
vn 0 1 0
vn 0 1 0
vn -1 0 0
vn -1 0 0
vn -1 0 0
vn -1 0 0
vn -1 0 0
vn 0 -1 0
vn 0 -1 0
vn 0.382556 -0.923932 0
vn 0.382556 -0.923932 0
vn 0 -1 0
vn 0.706912 -0.707301 0
vn 0.706912 -0.707301 0
vn 0.706912 -0.707301 0


# Faces: 
usemtl material1
f 18/30/23 19/31/23 20/32/23
f 20/32/23 17/29/23 18/30/23
f 15/35/24 14/34/24 16/36/24
f 13/33/24 16/36/24 14/34/24
f 21/53/25 13/37/26 14/38/27
f 21/53/25 14/38/27 18/46/28
f 21/53/25 18/46/28 17/45/29
f 21/53/25 17/45/29 13/37/26
f 22/54/30 14/39/31 15/40/32
f 22/54/30 15/40/32 19/48/33
f 22/54/30 19/48/33 18/47/34
f 22/54/30 18/47/34 14/39/31
f 23/55/35 15/41/36 16/42/37
f 23/55/35 16/42/37 20/50/38
f 23/55/35 20/50/38 19/49/39
f 23/55/35 19/49/39 15/41/36
f 24/56/40 16/43/37 13/44/41
f 24/56/40 13/44/41 17/52/42
f 24/56/40 17/52/42 20/51/38
f 24/56/40 20/51/38 16/43/37

# Vertex Positions: 
g groupNumber_2
v 2.17851 -2.17851 -0.8825
v 1.63389 -1.63389 -0.8825
v -2.17851 -1.63389 -0.8825
v -2.17851 -2.17851 -0.8825
v 2.17851 -2.17851 0.8825
v 1.63389 -1.63389 0.8825
v -2.17851 -1.63389 0.8825
v -2.17851 -2.17851 0.8825
v 1.9062 -1.9062 -1.11022e-16
v -0.272315 -1.63389 -1.11022e-16
v -2.17851 -1.9062 -1.11022e-16
v 8.8095e-10 -2.17851 -1.11022e-16


# Vertex Texture Coordinates :
vt 0.840895 0
vt 0.735783 0.105112
vt 0 0.105112
vt 0 0
vt 0 0.115582
vt 0.105112 0.220694
vt 0.840895 0.220694
vt 0.840895 0.115582
vt 9.46355e-05 0.231137
vt 0.148745 0.231137
vt 0.159105 0.231137
vt 0.894888 0.231137
vt 0.000102596 0.582195
vt 0.105215 0.582195
vt 0.159105 0.582195
vt 1 0.582195
vt 9.46355e-05 0.571778
vt 0.148745 0.571778
vt 0.159105 0.571778
vt 0.894888 0.571778
vt 0.000102596 0.922835
vt 0.105215 0.922835
vt 0.159105 0.922835
vt 1 0.922835
vt 0.07442 0.401458
vt 0.526997 0.401458
vt 0.0526586 0.752515
vt 0.579552 0.752515


# Vertex Surface Normals: 
vn 0 0 1
vn 0 0 -1
vn 0.707107 0.707107 0
vn 0.707107 0.707107 0
vn 0.707107 0.707107 0
vn 0.707107 0.707107 0
vn 0.707107 0.707107 0
vn 0 1 0
vn 0 1 0
vn 0 1 0
vn 0 1 0
vn 0 1 0
vn -1 0 0
vn -1 0 0
vn -1 0 0
vn -1 0 0
vn -1 0 0
vn 0 -1 0
vn 0 -1 0
vn 0 -1 0
vn 0 -1 0
vn 0 -1 0


# Faces: 
usemtl material2
f 31/59/43 32/60/43 30/58/43
f 29/57/43 30/58/43 32/60/43
f 28/64/44 27/63/44 26/62/44
f 26/62/44 25/61/44 28/64/44
f 33/81/45 25/65/46 26/66/47
f 33/81/45 26/66/47 30/74/48
f 33/81/45 30/74/48 29/73/49
f 33/81/45 29/73/49 25/65/46
f 34/82/50 26/67/51 27/68/52
f 34/82/50 27/68/52 31/76/53
f 34/82/50 31/76/53 30/75/54
f 34/82/50 30/75/54 26/67/51
f 35/83/55 27/69/56 28/70/57
f 35/83/55 28/70/57 32/78/58
f 35/83/55 32/78/58 31/77/59
f 35/83/55 31/77/59 27/69/56
f 36/84/60 28/71/61 25/72/62
f 36/84/60 25/72/62 29/80/63
f 36/84/60 29/80/63 32/79/64
f 36/84/60 32/79/64 28/71/61
