mtllib èµ„æº 9.mtl
# Vertex Positions: 
g groupNumber_0
v 2.17851 2.17851 -0.8825
v -2.17851 2.17851 -0.8825
v -2.17851 -2.17851 -0.8825
v -1.63389 -2.17851 -0.8825
v -1.63389 0.544629 -0.8825
v 0.544629 0.544629 -0.8825
v 1.08926 1.08926 -0.8825
v -1.63389 1.08926 -0.8825
v -1.63389 1.63389 -0.8825
v 1.63389 1.63389 -0.8825
v 2.17851 2.17851 0.8825
v -2.17851 2.17851 0.8825
v -2.17851 -2.17851 0.8825
v -1.63389 -2.17851 0.8825
v -1.63389 0.544629 0.8825
v 0.544629 0.544629 0.8825
v 1.08926 1.08926 0.8825
v -1.63389 1.08926 0.8825
v -1.63389 1.63389 0.8825
v 1.63389 1.63389 0.8825
v -1.77636e-15 2.17851 0
v -2.17851 0 0
v -1.9062 -2.17851 0
v -1.63389 -0.816943 0
v -0.544628 0.544629 0
v 0.816944 0.816943 0
v -0.272314 1.08926 0
v -1.63389 1.36157 0
v 0 1.63389 0
v 1.9062 1.9062 0


# Vertex Texture Coordinates :
vt 0.439603 0.439603
vt 0 0.439603
vt 0 0
vt 0.0549504 0
vt 0.0549504 0.274752
vt 0.274752 0.274752
vt 0.329702 0.329702
vt 0.0549504 0.329702
vt 0.0549504 0.384652
vt 0.384652 0.384652
vt 0 0.884572
vt 0.439603 0.884572
vt 0.439603 0.444969
vt 0.384652 0.444969
vt 0.384652 0.719721
vt 0.164851 0.719721
vt 0.109901 0.774671
vt 0.384652 0.774671
vt 0.384652 0.829622
vt 0.0549504 0.829622
vt 0.444969 3.97626e-05
vt 0.884572 3.97626e-05
vt 0.444969 0.183565
vt 0.884572 0.183565
vt 0.889992 3.97626e-05
vt 0.944942 3.97626e-05
vt 0.445023 0.367091
vt 0.719775 0.367091
vt 0.445019 0.550617
vt 0.66482 0.550617
vt 0.742532 0.550617
vt 0.725248 0.367091
vt 1 0.367091
vt 0.889992 0.183565
vt 0.944942 0.183565
vt 0.444969 0.734142
vt 0.774671 0.734142
vt 0.747997 0.550617
vt 0.825708 0.550617
vt 0.444969 0.17812
vt 0.884572 0.17812
vt 0.444969 0.361645
vt 0.884572 0.361645
vt 0.889992 0.17812
vt 0.944942 0.17812
vt 0.445023 0.545171
vt 0.719775 0.545171
vt 0.445019 0.728696
vt 0.66482 0.728696
vt 0.742532 0.728696
vt 0.725248 0.545171
vt 1 0.545171
vt 0.889992 0.361645
vt 0.944942 0.361645
vt 0.444969 0.912222
vt 0.774671 0.912222
vt 0.747997 0.728696
vt 0.825708 0.728696
vt 0.664771 0.0890797
vt 0.664771 0.272605
vt 0.917467 0.0890797
vt 0.582399 0.456131
vt 0.554919 0.639657
vt 0.703676 0.639657
vt 0.862624 0.456131
vt 0.917467 0.272605
vt 0.60982 0.823182
vt 0.786853 0.639657


# Vertex Surface Normals: 
vn 0 0 1
vn 0 0 -1
vn 0 1 0
vn 0 1 0
vn 0 1 0
vn 0 1 0
vn 0 1 0
vn -1 0 0
vn -1 0 0
vn -1 0 0
vn -1 0 0
vn -1 0 0
vn 0 -1 0
vn 0 -1 0
vn 0 -1 0
vn 0 -1 0
vn 0 -1 0
vn 1 0 0
vn 1 0 0
vn 1 0 0
vn 1 0 0
vn 1 0 0
vn 0 -1 0
vn 0 -1 0
vn 0.382683 -0.92388 -5.66009e-17
vn 0.382683 -0.92388 5.66009e-17
vn 0 -1 0
vn 0.707105 -0.707108 0
vn 0.707105 -0.707108 -1.04585e-16
vn 0.707105 -0.707108 1.04585e-16
vn 0 1 0
vn 0 1 0
vn 0 1 0
vn 0 1 0
vn 0 1 0
vn 1 0 0
vn 1 0 0
vn 1 0 0
vn 1 0 0
vn 1 0 0
vn 0 -1 0
vn 0 -1 0
vn 0 -1 0
vn 0 -1 0
vn 0 -1 0
vn 0.707107 -0.707107 0
vn 0.707107 -0.707107 5.22923e-17
vn 0.707107 -0.707107 5.22923e-17
vn 0.707107 -0.707107 -5.22923e-17
vn 0.707107 -0.707107 -5.22923e-17


# Faces: 
usemtl material0
f 13/3/1 14/4/1 15/5/1
f 12/2/1 15/5/1 18/8/1
f 15/5/1 12/2/1 13/3/1
f 18/8/1 15/5/1 16/6/1
f 12/2/1 18/8/1 19/9/1
f 19/9/1 20/10/1 11/1/1
f 19/9/1 11/1/1 12/2/1
f 17/7/1 18/8/1 16/6/1
f 4/14/2 3/13/2 5/15/2
f 5/15/2 2/12/2 8/18/2
f 2/12/2 5/15/2 3/13/2
f 5/15/2 8/18/2 6/16/2
f 8/18/2 2/12/2 9/19/2
f 10/20/2 9/19/2 1/11/2
f 1/11/2 9/19/2 2/12/2
f 8/18/2 7/17/2 6/16/2
f 21/59/3 1/21/4 2/22/5
f 21/59/3 2/22/5 12/41/6
f 21/59/3 12/41/6 11/40/7
f 21/59/3 11/40/7 1/21/4
f 22/60/8 2/23/9 3/24/10
f 22/60/8 3/24/10 13/43/11
f 22/60/8 13/43/11 12/42/12
f 22/60/8 12/42/12 2/23/9
f 23/61/13 3/25/14 4/26/15
f 23/61/13 4/26/15 14/45/16
f 23/61/13 14/45/16 13/44/17
f 23/61/13 13/44/17 3/25/14
f 24/62/18 4/27/19 5/28/20
f 24/62/18 5/28/20 15/47/21
f 24/62/18 15/47/21 14/46/22
f 24/62/18 14/46/22 4/27/19
f 25/63/23 5/29/24 6/30/25
f 25/63/23 6/30/25 16/49/26
f 25/63/23 16/49/26 15/48/27
f 25/63/23 15/48/27 5/29/24
f 26/64/28 6/30/25 7/31/29
f 26/64/28 7/31/29 17/50/30
f 26/64/28 17/50/30 16/49/26
f 26/64/28 16/49/26 6/30/25
f 27/65/31 7/32/32 8/33/33
f 27/65/31 8/33/33 18/52/34
f 27/65/31 18/52/34 17/51/35
f 27/65/31 17/51/35 7/32/32
f 28/66/36 8/34/37 9/35/38
f 28/66/36 9/35/38 19/54/39
f 28/66/36 19/54/39 18/53/40
f 28/66/36 18/53/40 8/34/37
f 29/67/41 9/36/42 10/37/43
f 29/67/41 10/37/43 20/56/44
f 29/67/41 20/56/44 19/55/45
f 29/67/41 19/55/45 9/36/42
f 30/68/46 10/38/47 1/39/48
f 30/68/46 1/39/48 11/58/49
f 30/68/46 11/58/49 20/57/50
f 30/68/46 20/57/50 10/38/47
