{
	"asset":{
		"version":"2.0",
		"generator":"Created using the official Cinema 4D glTF Exporter 1.000x284978"
	},
	"scenes":[{
		"nodes":[0]
	}],
	"nodes":[{
		"name":"Default",
		"translation":[0.0,
		0.0,
		0.0],
		"scale":[1.0,
		1.0,
		0.3400000035762787],
		"rotation":[0.0,
		0.0,
		0.0,
		-1.0],
		"mesh":0
	}],
	"materials":[{
		"pbrMetallicRoughness":{
			"baseColorFactor":[1.0,
			1.0,
			1.0,
			1.0],
			"metallicFactor":0.0,
			"roughnessFactor":0.5
		},
		"emissiveFactor":[0.0,
		0.0,
		0.0],
		"alphaMode":"OPAQUE",
		"doubleSided":false,
		"name":"material0"
	}],
	"meshes":[{
		"name":"Default",
		"primitives":[{
			"attributes":{
				"POSITION":1,
				"NORMAL":2,
				"TEXCOORD_0":3
			},
			"indices":0,
			"material":0
		}]
	}],
	"accessors":[{
		"bufferView":0,
		"type":"SCALAR",
		"componentType":5123,
		"count":96,
		"byteOffset":0,
		"min":[0],
		"max":[41]
	},
	{
		"bufferView":1,
		"type":"VEC3",
		"componentType":5126,
		"count":42,
		"byteOffset":0,
		"min":[-2.1785099506378176,
		-2.1785099506378176,
		-0.8824999928474426],
		"max":[2.1785099506378176,
		2.1785099506378176,
		0.8824999928474426]
	},
	{
		"bufferView":1,
		"type":"VEC3",
		"componentType":5126,
		"count":42,
		"byteOffset":12,
		"min":[-1.0,
		-1.0,
		-1.0],
		"max":[1.0,
		0.7072812914848328,
		1.0]
	},
	{
		"bufferView":1,
		"type":"VEC2",
		"componentType":5126,
		"count":42,
		"byteOffset":24,
		"min":[0.0,
		0.1701129972934723],
		"max":[1.0,
		1.0]
	},
	{
		"bufferView":2,
		"type":"SCALAR",
		"componentType":5126,
		"count":3,
		"byteOffset":0,
		"min":[0.0],
		"max":[6.0]
	},
	{
		"bufferView":2,
		"type":"VEC3",
		"componentType":5126,
		"count":3,
		"byteOffset":12,
		"min":[1.0,
		1.0,
		0.3400000035762787],
		"max":[1.0,
		1.0,
		8.0]
	}],
	"bufferViews":[{
		"buffer":0,
		"byteOffset":0,
		"byteLength":192,
		"target":34963
	},
	{
		"buffer":0,
		"byteOffset":192,
		"byteLength":1344,
		"target":34962,
		"byteStride":32
	},
	{
		"buffer":1,
		"byteOffset":0,
		"byteLength":48
	}],
	"animations":[{
		"samplers":[{
			"input":4,
			"interpolation":"LINEAR",
			"output":5
		}],
		"channels":[{
			"sampler":0,
			"target":{
				"node":0,
				"path":"scale"
			}
		}]
	}],
	"buffers":[{
		"uri":"data:application/octet-stream;base64,",
		"byteLength":1536
	},
	{
		"uri":"data:application/octet-stream;base64,",
		"byteLength":48
	}]
}