{
	"nodes":[{
		"name":"ball",
		"translation":[0.0,
		28.47899055480957,
		0.0],
		"rotation":[0.0,
		0.0,
		0.0,
		-1.0],
		"scale":[1.0,
		1.0,
		1.0],
		"mesh":0
	}],
	"asset":{
		"version":"2.0",
		"generator":"Created using the official Cinema 4D glTF Exporter 1.000x284978"
	},
	"scenes":[{
		"nodes":[0]
	}],
	"meshes":[{
		"name":"ball",
		"primitives":[{
			"attributes":{
				"POSITION":1,
				"NORMAL":2,
				"TEXCOORD_0":3
			},
			"indices":0
		}]
	}],
	"accessors":[{
		"bufferView":0,
		"type":"SCALAR",
		"count":282744,
		"componentType":5123,
		"byteOffset":0,
		"min":[0],
		"max":[47892]
	},
	{
		"bufferView":1,
		"type":"VEC3",
		"count":47893,
		"componentType":5126,
		"byteOffset":0,
		"min":[-8.150177001953125,
		-8.247328758239746,
		-8.21272087097168],
		"max":[8.087128639221192,
		8.178658485412598,
		8.169249534606934]
	},
	{
		"bufferView":1,
		"type":"VEC3",
		"count":47893,
		"componentType":5126,
		"byteOffset":12,
		"min":[-0.9999688267707825,
		-0.9997813105583191,
		-0.9998750686645508],
		"max":[0.9999063014984131,
		0.999750018119812,
		0.9999688267707825]
	},
	{
		"bufferView":1,
		"type":"VEC2",
		"count":47893,
		"componentType":5126,
		"byteOffset":24,
		"min":[0.0,
		0.0],
		"max":[1.0,
		1.0]
	},
	{
		"bufferView":2,
		"type":"SCALAR",
		"count":6,
		"componentType":5126,
		"byteOffset":0,
		"min":[0.0],
		"max":[10.300000190734864]
	},
	{
		"bufferView":2,
		"type":"VEC3",
		"count":18,
		"componentType":5126,
		"byteOffset":24,
		"min":[0.0,
		-0.8110573291778565,
		0.0],
		"max":[0.0,
		29.64211082458496,
		0.0]
	}],
	"bufferViews":[{
		"buffer":0,
		"byteOffset":0,
		"byteLength":565488,
		"target":34963
	},
	{
		"buffer":0,
		"byteOffset":565488,
		"byteLength":1532576,
		"target":34962,
		"byteStride":32
	},
	{
		"buffer":1,
		"byteOffset":0,
		"byteLength":240
	}],
	"animations":[{
		"samplers":[{
			"input":4,
			"interpolation":"CUBICSPLINE",
			"output":5
		}],
		"channels":[{
			"sampler":0,
			"target":{
				"node":0,
				"path":"translation"
			}
		}]
	}],
	"buffers":[{
		"uri":"data:application/octet-stream;base64,",
		"byteLength":2098064
	},
	{
		"uri":"data:application/octet-stream;base64,",
		"byteLength":240
	}]
}